<ttFont>
    <TTGlyph name=".notdef" xMin="172" yMin="7" xMax="587" yMax="696">
      <contour>
        <pt x="172" y="663" on="1"/>
        <pt x="172" y="676" on="0"/>
        <pt x="192" y="696" on="0"/>
        <pt x="205" y="696" on="1"/>
        <pt x="554" y="696" on="1"/>
        <pt x="568" y="696" on="0"/>
        <pt x="587" y="676" on="0"/>
        <pt x="587" y="663" on="1"/>
        <pt x="587" y="40" on="1"/>
        <pt x="587" y="26" on="0"/>
        <pt x="568" y="7" on="0"/>
        <pt x="554" y="7" on="1"/>
        <pt x="205" y="7" on="1"/>
        <pt x="192" y="7" on="0"/>
        <pt x="172" y="26" on="0"/>
        <pt x="172" y="40" on="1"/>
      </contour>
      <contour>
        <pt x="521" y="630" on="1"/>
        <pt x="238" y="630" on="1"/>
        <pt x="238" y="73" on="1"/>
        <pt x="521" y="73" on="1"/>
      </contour>
    </TTGlyph>
    <TTGlyph name="A" xMin="-1" yMin="-5" xMax="322" yMax="652">
      <contour>
        <pt x="322" y="5" on="1"/>
        <pt x="257" y="-5" on="1"/>
        <pt x="252" y="27" on="0"/>
        <pt x="236" y="114" on="0"/>
        <pt x="216" y="211" on="0"/>
        <pt x="196" y="314" on="0"/>
        <pt x="176" y="411" on="0"/>
        <pt x="159" y="498" on="0"/>
        <pt x="153" y="530" on="1"/>
        <pt x="153" y="530" on="0"/>
        <pt x="134" y="413" on="1"/>
        <pt x="122" y="344" on="0"/>
        <pt x="98" y="195" on="0"/>
        <pt x="75" y="52" on="0"/>
        <pt x="67" y="-1" on="1"/>
        <pt x="-1" y="0" on="1"/>
        <pt x="11" y="48" on="0"/>
        <pt x="40" y="193" on="0"/>
        <pt x="72" y="366" on="0"/>
        <pt x="103" y="554" on="0"/>
        <pt x="117" y="646" on="1"/>
        <pt x="194" y="652" on="1"/>
        <pt x="198" y="620" on="0"/>
        <pt x="216" y="523" on="0"/>
        <pt x="238" y="406" on="0"/>
        <pt x="264" y="279" on="0"/>
        <pt x="289" y="156" on="0"/>
        <pt x="313" y="46" on="0"/>
      </contour>
      <contour>
        <pt x="273" y="170" on="1"/>
        <pt x="55" y="162" on="1"/>
        <pt x="54" y="216" on="1"/>
        <pt x="270" y="222" on="1"/>
      </contour>
    </TTGlyph>
    <TTGlyph name="AE" xMin="13" yMin="-8" xMax="710" yMax="545">
      <contour>
        <pt x="365" y="434" on="1"/>
        <pt x="327" y="380" on="0"/>
        <pt x="247" y="262" on="0"/>
        <pt x="208" y="205" on="1"/>
        <pt x="365" y="205" on="1"/>
      </contour>
      <contour>
        <pt x="402" y="-6" on="1"/>
        <pt x="398" y="-6" on="1"/>
        <pt x="384" y="-6" on="0"/>
        <pt x="365" y="13" on="0"/>
        <pt x="365" y="27" on="1"/>
        <pt x="365" y="139" on="1"/>
        <pt x="163" y="139" on="1"/>
        <pt x="138" y="103" on="0"/>
        <pt x="94" y="37" on="0"/>
        <pt x="76" y="9" on="1"/>
        <pt x="68" y="-2" on="0"/>
        <pt x="41" y="-8" on="0"/>
        <pt x="30" y="-1" on="1"/>
        <pt x="19" y="7" on="0"/>
        <pt x="13" y="34" on="0"/>
        <pt x="20" y="45" on="1"/>
        <pt x="51" y="92" on="0"/>
        <pt x="133" y="214" on="0"/>
        <pt x="223" y="345" on="0"/>
        <pt x="313" y="475" on="0"/>
        <pt x="352" y="531" on="1"/>
        <pt x="360" y="543" on="0"/>
        <pt x="379" y="545" on="1"/>
        <pt x="384" y="545" on="1"/>
        <pt x="675" y="545" on="1"/>
        <pt x="689" y="545" on="0"/>
        <pt x="708" y="526" on="0"/>
        <pt x="708" y="512" on="1"/>
        <pt x="708" y="498" on="0"/>
        <pt x="689" y="479" on="0"/>
        <pt x="675" y="479" on="1"/>
        <pt x="431" y="479" on="1"/>
        <pt x="431" y="321" on="1"/>
        <pt x="632" y="321" on="1"/>
        <pt x="646" y="321" on="0"/>
        <pt x="665" y="302" on="0"/>
        <pt x="665" y="288" on="1"/>
        <pt x="665" y="274" on="0"/>
        <pt x="646" y="255" on="0"/>
        <pt x="632" y="255" on="1"/>
        <pt x="431" y="255" on="1"/>
        <pt x="431" y="60" on="1"/>
        <pt x="677" y="60" on="1"/>
        <pt x="691" y="60" on="0"/>
        <pt x="710" y="41" on="0"/>
        <pt x="710" y="27" on="1"/>
        <pt x="710" y="13" on="0"/>
        <pt x="691" y="-6" on="0"/>
        <pt x="677" y="-6" on="1"/>
        <pt x="406" y="-6" on="1"/>
      </contour>
    </TTGlyph>
    <TTGlyph name="Aacute" xMin="31" yMin="-9" xMax="535" yMax="764">
      <contour>
        <pt x="388" y="205" on="1"/>
        <pt x="362" y="265" on="0"/>
        <pt x="305" y="390" on="0"/>
        <pt x="278" y="448" on="1"/>
        <pt x="252" y="390" on="0"/>
        <pt x="199" y="265" on="0"/>
        <pt x="173" y="205" on="1"/>
      </contour>
      <contour>
        <pt x="511" y="-4" on="1"/>
        <pt x="498" y="-9" on="0"/>
        <pt x="473" y="2" on="0"/>
        <pt x="468" y="15" on="1"/>
        <pt x="457" y="41" on="0"/>
        <pt x="432" y="104" on="0"/>
        <pt x="417" y="139" on="1"/>
        <pt x="146" y="139" on="1"/>
        <pt x="132" y="104" on="0"/>
        <pt x="108" y="42" on="0"/>
        <pt x="98" y="16" on="1"/>
        <pt x="93" y="3" on="0"/>
        <pt x="69" y="-9" on="0"/>
        <pt x="56" y="-4" on="1"/>
        <pt x="43" y="1" on="0"/>
        <pt x="31" y="25" on="0"/>
        <pt x="36" y="38" on="1"/>
        <pt x="53" y="86" on="0"/>
        <pt x="104" y="209" on="0"/>
        <pt x="161" y="343" on="0"/>
        <pt x="220" y="477" on="0"/>
        <pt x="245" y="534" on="1"/>
        <pt x="250" y="544" on="0"/>
        <pt x="267" y="554" on="0"/>
        <pt x="277" y="554" on="1"/>
        <pt x="288" y="555" on="0"/>
        <pt x="306" y="545" on="0"/>
        <pt x="311" y="535" on="1"/>
        <pt x="338" y="477" on="0"/>
        <pt x="400" y="342" on="0"/>
        <pt x="459" y="208" on="0"/>
        <pt x="512" y="85" on="0"/>
        <pt x="530" y="39" on="1"/>
        <pt x="535" y="26" on="0"/>
        <pt x="524" y="1" on="0"/>
      </contour>
      <contour>
        <pt x="427" y="746" on="1"/>
        <pt x="434" y="734" on="0"/>
        <pt x="427" y="708" on="0"/>
        <pt x="416" y="701" on="1"/>
        <pt x="382" y="681" on="0"/>
        <pt x="317" y="639" on="0"/>
        <pt x="295" y="623" on="1"/>
        <pt x="284" y="615" on="0"/>
        <pt x="257" y="620" on="0"/>
        <pt x="249" y="631" on="1"/>
        <pt x="241" y="642" on="0"/>
        <pt x="246" y="669" on="0"/>
        <pt x="257" y="677" on="1"/>
        <pt x="279" y="693" on="0"/>
        <pt x="347" y="737" on="0"/>
        <pt x="382" y="757" on="1"/>
        <pt x="394" y="764" on="0"/>
        <pt x="420" y="757" on="0"/>
      </contour>
    </TTGlyph>
    <TTGlyph name="Abreve" xMin="31" yMin="-9" xMax="535" yMax="768">
      <contour>
        <pt x="388" y="205" on="1"/>
        <pt x="362" y="265" on="0"/>
        <pt x="305" y="390" on="0"/>
        <pt x="278" y="448" on="1"/>
        <pt x="252" y="390" on="0"/>
        <pt x="199" y="265" on="0"/>
        <pt x="173" y="205" on="1"/>
      </contour>
      <contour>
        <pt x="511" y="-4" on="1"/>
        <pt x="498" y="-9" on="0"/>
        <pt x="473" y="2" on="0"/>
        <pt x="468" y="15" on="1"/>
        <pt x="457" y="41" on="0"/>
        <pt x="432" y="104" on="0"/>
        <pt x="417" y="139" on="1"/>
        <pt x="146" y="139" on="1"/>
        <pt x="132" y="104" on="0"/>
        <pt x="108" y="42" on="0"/>
        <pt x="98" y="16" on="1"/>
        <pt x="93" y="3" on="0"/>
        <pt x="69" y="-9" on="0"/>
        <pt x="56" y="-4" on="1"/>
        <pt x="43" y="1" on="0"/>
        <pt x="31" y="25" on="0"/>
        <pt x="36" y="38" on="1"/>
        <pt x="53" y="86" on="0"/>
        <pt x="104" y="209" on="0"/>
        <pt x="161" y="343" on="0"/>
        <pt x="220" y="477" on="0"/>
        <pt x="245" y="534" on="1"/>
        <pt x="250" y="544" on="0"/>
        <pt x="267" y="554" on="0"/>
        <pt x="277" y="554" on="1"/>
        <pt x="288" y="555" on="0"/>
        <pt x="306" y="545" on="0"/>
        <pt x="311" y="535" on="1"/>
        <pt x="338" y="477" on="0"/>
        <pt x="400" y="342" on="0"/>
        <pt x="459" y="208" on="0"/>
        <pt x="512" y="85" on="0"/>
        <pt x="530" y="39" on="1"/>
        <pt x="535" y="26" on="0"/>
        <pt x="524" y="1" on="0"/>
      </contour>
      <contour>
        <pt x="137" y="759" on="1"/>
        <pt x="148" y="767" on="0"/>
        <pt x="175" y="764" on="0"/>
        <pt x="183" y="753" on="1"/>
        <pt x="200" y="731" on="0"/>
        <pt x="248" y="703" on="0"/>
        <pt x="276" y="703" on="1"/>
        <pt x="307" y="703" on="0"/>
        <pt x="350" y="730" on="0"/>
        <pt x="365" y="752" on="1"/>
        <pt x="373" y="763" on="0"/>
        <pt x="400" y="768" on="0"/>
        <pt x="411" y="760" on="1"/>
        <pt x="422" y="752" on="0"/>
        <pt x="427" y="725" on="0"/>
        <pt x="419" y="714" on="1"/>
        <pt x="395" y="679" on="0"/>
        <pt x="325" y="637" on="0"/>
        <pt x="276" y="637" on="1"/>
        <pt x="233" y="637" on="0"/>
        <pt x="157" y="679" on="0"/>
        <pt x="131" y="713" on="1"/>
        <pt x="123" y="724" on="0"/>
        <pt x="126" y="751" on="0"/>
      </contour>
    </TTGlyph>
    <TTGlyph name="Acircumflex" xMin="31" yMin="-9" xMax="535" yMax="740">
      <contour>
        <pt x="388" y="205" on="1"/>
        <pt x="362" y="265" on="0"/>
        <pt x="305" y="390" on="0"/>
        <pt x="278" y="448" on="1"/>
        <pt x="252" y="390" on="0"/>
        <pt x="199" y="265" on="0"/>
        <pt x="173" y="205" on="1"/>
      </contour>
      <contour>
        <pt x="511" y="-4" on="1"/>
        <pt x="498" y="-9" on="0"/>
        <pt x="473" y="2" on="0"/>
        <pt x="468" y="15" on="1"/>
        <pt x="457" y="41" on="0"/>
        <pt x="432" y="104" on="0"/>
        <pt x="417" y="139" on="1"/>
        <pt x="146" y="139" on="1"/>
        <pt x="132" y="104" on="0"/>
        <pt x="108" y="42" on="0"/>
        <pt x="98" y="16" on="1"/>
        <pt x="93" y="3" on="0"/>
        <pt x="69" y="-9" on="0"/>
        <pt x="56" y="-4" on="1"/>
        <pt x="43" y="1" on="0"/>
        <pt x="31" y="25" on="0"/>
        <pt x="36" y="38" on="1"/>
        <pt x="53" y="86" on="0"/>
        <pt x="104" y="209" on="0"/>
        <pt x="161" y="343" on="0"/>
        <pt x="220" y="477" on="0"/>
        <pt x="245" y="534" on="1"/>
        <pt x="250" y="544" on="0"/>
        <pt x="267" y="554" on="0"/>
        <pt x="277" y="554" on="1"/>
        <pt x="288" y="555" on="0"/>
        <pt x="306" y="545" on="0"/>
        <pt x="311" y="535" on="1"/>
        <pt x="338" y="477" on="0"/>
        <pt x="400" y="342" on="0"/>
        <pt x="459" y="208" on="0"/>
        <pt x="512" y="85" on="0"/>
        <pt x="530" y="39" on="1"/>
        <pt x="535" y="26" on="0"/>
        <pt x="524" y="1" on="0"/>
      </contour>
      <contour>
        <pt x="199" y="612" on="1"/>
        <pt x="188" y="604" on="0"/>
        <pt x="161" y="607" on="0"/>
        <pt x="153" y="618" on="1"/>
        <pt x="145" y="629" on="0"/>
        <pt x="148" y="656" on="0"/>
        <pt x="159" y="664" on="1"/>
        <pt x="180" y="680" on="0"/>
        <pt x="230" y="716" on="0"/>
        <pt x="256" y="734" on="1"/>
        <pt x="261" y="738" on="0"/>
        <pt x="272" y="740" on="0"/>
        <pt x="278" y="740" on="1"/>
        <pt x="284" y="740" on="0"/>
        <pt x="296" y="738" on="0"/>
        <pt x="301" y="734" on="1"/>
        <pt x="327" y="716" on="0"/>
        <pt x="377" y="681" on="0"/>
        <pt x="398" y="664" on="1"/>
        <pt x="409" y="656" on="0"/>
        <pt x="412" y="629" on="0"/>
        <pt x="404" y="618" on="1"/>
        <pt x="396" y="607" on="0"/>
        <pt x="369" y="604" on="0"/>
        <pt x="358" y="612" on="1"/>
        <pt x="340" y="625" on="0"/>
        <pt x="300" y="654" on="0"/>
        <pt x="279" y="669" on="1"/>
        <pt x="258" y="654" on="0"/>
        <pt x="217" y="626" on="0"/>
      </contour>
    </TTGlyph>
    <TTGlyph name="Adieresis" xMin="31" yMin="-9" xMax="535" yMax="723">
      <contour>
        <pt x="388" y="205" on="1"/>
        <pt x="362" y="265" on="0"/>
        <pt x="305" y="390" on="0"/>
        <pt x="278" y="448" on="1"/>
        <pt x="252" y="390" on="0"/>
        <pt x="199" y="265" on="0"/>
        <pt x="173" y="205" on="1"/>
      </contour>
      <contour>
        <pt x="511" y="-4" on="1"/>
        <pt x="498" y="-9" on="0"/>
        <pt x="473" y="2" on="0"/>
        <pt x="468" y="15" on="1"/>
        <pt x="457" y="41" on="0"/>
        <pt x="432" y="104" on="0"/>
        <pt x="417" y="139" on="1"/>
        <pt x="146" y="139" on="1"/>
        <pt x="132" y="104" on="0"/>
        <pt x="108" y="42" on="0"/>
        <pt x="98" y="16" on="1"/>
        <pt x="93" y="3" on="0"/>
        <pt x="69" y="-9" on="0"/>
        <pt x="56" y="-4" on="1"/>
        <pt x="43" y="1" on="0"/>
        <pt x="31" y="25" on="0"/>
        <pt x="36" y="38" on="1"/>
        <pt x="53" y="86" on="0"/>
        <pt x="104" y="209" on="0"/>
        <pt x="161" y="343" on="0"/>
        <pt x="220" y="477" on="0"/>
        <pt x="245" y="534" on="1"/>
        <pt x="250" y="544" on="0"/>
        <pt x="267" y="554" on="0"/>
        <pt x="277" y="554" on="1"/>
        <pt x="288" y="555" on="0"/>
        <pt x="306" y="545" on="0"/>
        <pt x="311" y="535" on="1"/>
        <pt x="338" y="477" on="0"/>
        <pt x="400" y="342" on="0"/>
        <pt x="459" y="208" on="0"/>
        <pt x="512" y="85" on="0"/>
        <pt x="530" y="39" on="1"/>
        <pt x="535" y="26" on="0"/>
        <pt x="524" y="1" on="0"/>
      </contour>
      <contour>
        <pt x="171" y="663" on="1"/>
        <pt x="171" y="657" on="0"/>
        <pt x="176" y="654" on="0"/>
        <pt x="182" y="654" on="0"/>
        <pt x="188" y="657" on="0"/>
        <pt x="189" y="657" on="1"/>
        <pt x="191" y="657" on="0"/>
        <pt x="203" y="655" on="0"/>
        <pt x="203" y="663" on="1"/>
        <pt x="203" y="671" on="0"/>
        <pt x="198" y="671" on="1"/>
        <pt x="198" y="671" on="0"/>
        <pt x="189" y="671" on="1"/>
        <pt x="188" y="671" on="0"/>
        <pt x="182" y="673" on="0"/>
        <pt x="176" y="673" on="0"/>
        <pt x="171" y="669" on="0"/>
      </contour>
      <contour>
        <pt x="364" y="663" on="1"/>
        <pt x="364" y="657" on="0"/>
        <pt x="369" y="654" on="0"/>
        <pt x="375" y="654" on="0"/>
        <pt x="381" y="657" on="0"/>
        <pt x="382" y="657" on="1"/>
        <pt x="384" y="657" on="0"/>
        <pt x="397" y="655" on="0"/>
        <pt x="397" y="663" on="1"/>
        <pt x="397" y="672" on="0"/>
        <pt x="385" y="671" on="0"/>
        <pt x="382" y="671" on="1"/>
        <pt x="381" y="671" on="0"/>
        <pt x="375" y="673" on="0"/>
        <pt x="369" y="673" on="0"/>
        <pt x="364" y="669" on="0"/>
      </contour>
      <contour>
        <pt x="137" y="663" on="1"/>
        <pt x="137" y="690" on="0"/>
        <pt x="171" y="723" on="0"/>
        <pt x="189" y="723" on="1"/>
        <pt x="206" y="723" on="0"/>
        <pt x="237" y="695" on="0"/>
        <pt x="237" y="663" on="1"/>
        <pt x="237" y="629" on="0"/>
        <pt x="206" y="605" on="0"/>
        <pt x="189" y="605" on="1"/>
        <pt x="169" y="605" on="0"/>
        <pt x="137" y="634" on="0"/>
      </contour>
      <contour>
        <pt x="331" y="663" on="1"/>
        <pt x="331" y="691" on="0"/>
        <pt x="364" y="723" on="0"/>
        <pt x="382" y="723" on="1"/>
        <pt x="399" y="723" on="0"/>
        <pt x="430" y="695" on="0"/>
        <pt x="430" y="663" on="1"/>
        <pt x="430" y="629" on="0"/>
        <pt x="399" y="605" on="0"/>
        <pt x="382" y="605" on="1"/>
        <pt x="362" y="605" on="0"/>
        <pt x="331" y="633" on="0"/>
      </contour>
    </TTGlyph>
    <TTGlyph name="Agrave" xMin="31" yMin="-9" xMax="535" yMax="766">
      <contour>
        <pt x="388" y="205" on="1"/>
        <pt x="362" y="265" on="0"/>
        <pt x="305" y="390" on="0"/>
        <pt x="278" y="448" on="1"/>
        <pt x="252" y="390" on="0"/>
        <pt x="199" y="265" on="0"/>
        <pt x="173" y="205" on="1"/>
      </contour>
      <contour>
        <pt x="511" y="-4" on="1"/>
        <pt x="498" y="-9" on="0"/>
        <pt x="473" y="2" on="0"/>
        <pt x="468" y="15" on="1"/>
        <pt x="457" y="41" on="0"/>
        <pt x="432" y="104" on="0"/>
        <pt x="417" y="139" on="1"/>
        <pt x="146" y="139" on="1"/>
        <pt x="132" y="104" on="0"/>
        <pt x="108" y="42" on="0"/>
        <pt x="98" y="16" on="1"/>
        <pt x="93" y="3" on="0"/>
        <pt x="69" y="-9" on="0"/>
        <pt x="56" y="-4" on="1"/>
        <pt x="43" y="1" on="0"/>
        <pt x="31" y="25" on="0"/>
        <pt x="36" y="38" on="1"/>
        <pt x="53" y="86" on="0"/>
        <pt x="104" y="209" on="0"/>
        <pt x="161" y="343" on="0"/>
        <pt x="220" y="477" on="0"/>
        <pt x="245" y="534" on="1"/>
        <pt x="250" y="544" on="0"/>
        <pt x="267" y="554" on="0"/>
        <pt x="277" y="554" on="1"/>
        <pt x="288" y="555" on="0"/>
        <pt x="306" y="545" on="0"/>
        <pt x="311" y="535" on="1"/>
        <pt x="338" y="477" on="0"/>
        <pt x="400" y="342" on="0"/>
        <pt x="459" y="208" on="0"/>
        <pt x="512" y="85" on="0"/>
        <pt x="530" y="39" on="1"/>
        <pt x="535" y="26" on="0"/>
        <pt x="524" y="1" on="0"/>
      </contour>
      <contour>
        <pt x="142" y="746" on="1"/>
        <pt x="149" y="758" on="0"/>
        <pt x="175" y="766" on="0"/>
        <pt x="187" y="759" on="1"/>
        <pt x="201" y="751" on="0"/>
        <pt x="234" y="729" on="0"/>
        <pt x="267" y="706" on="0"/>
        <pt x="296" y="683" on="0"/>
        <pt x="307" y="675" on="1"/>
        <pt x="318" y="667" on="0"/>
        <pt x="321" y="640" on="0"/>
        <pt x="313" y="629" on="1"/>
        <pt x="305" y="618" on="0"/>
        <pt x="278" y="615" on="0"/>
        <pt x="267" y="623" on="1"/>
        <pt x="257" y="630" on="0"/>
        <pt x="230" y="651" on="0"/>
        <pt x="199" y="673" on="0"/>
        <pt x="168" y="694" on="0"/>
        <pt x="155" y="701" on="1"/>
        <pt x="143" y="708" on="0"/>
        <pt x="135" y="734" on="0"/>
      </contour>
    </TTGlyph>
    <TTGlyph name="Amacron" xMin="31" yMin="-9" xMax="535" yMax="721">
      <contour>
        <pt x="388" y="205" on="1"/>
        <pt x="362" y="265" on="0"/>
        <pt x="305" y="390" on="0"/>
        <pt x="278" y="448" on="1"/>
        <pt x="252" y="390" on="0"/>
        <pt x="199" y="265" on="0"/>
        <pt x="173" y="205" on="1"/>
      </contour>
      <contour>
        <pt x="511" y="-4" on="1"/>
        <pt x="498" y="-9" on="0"/>
        <pt x="473" y="2" on="0"/>
        <pt x="468" y="15" on="1"/>
        <pt x="457" y="41" on="0"/>
        <pt x="432" y="104" on="0"/>
        <pt x="417" y="139" on="1"/>
        <pt x="146" y="139" on="1"/>
        <pt x="132" y="104" on="0"/>
        <pt x="108" y="42" on="0"/>
        <pt x="98" y="16" on="1"/>
        <pt x="93" y="3" on="0"/>
        <pt x="69" y="-9" on="0"/>
        <pt x="56" y="-4" on="1"/>
        <pt x="43" y="1" on="0"/>
        <pt x="31" y="25" on="0"/>
        <pt x="36" y="38" on="1"/>
        <pt x="53" y="86" on="0"/>
        <pt x="104" y="209" on="0"/>
        <pt x="161" y="343" on="0"/>
        <pt x="220" y="477" on="0"/>
        <pt x="245" y="534" on="1"/>
        <pt x="250" y="544" on="0"/>
        <pt x="267" y="554" on="0"/>
        <pt x="277" y="554" on="1"/>
        <pt x="288" y="555" on="0"/>
        <pt x="306" y="545" on="0"/>
        <pt x="311" y="535" on="1"/>
        <pt x="338" y="477" on="0"/>
        <pt x="400" y="342" on="0"/>
        <pt x="459" y="208" on="0"/>
        <pt x="512" y="85" on="0"/>
        <pt x="530" y="39" on="1"/>
        <pt x="535" y="26" on="0"/>
        <pt x="524" y="1" on="0"/>
      </contour>
      <contour>
        <pt x="430" y="688" on="1"/>
        <pt x="430" y="674" on="0"/>
        <pt x="411" y="655" on="0"/>
        <pt x="397" y="655" on="1"/>
        <pt x="168" y="655" on="1"/>
        <pt x="154" y="655" on="0"/>
        <pt x="135" y="674" on="0"/>
        <pt x="135" y="688" on="1"/>
        <pt x="135" y="702" on="0"/>
        <pt x="154" y="721" on="0"/>
        <pt x="168" y="721" on="1"/>
        <pt x="397" y="721" on="1"/>
        <pt x="411" y="721" on="0"/>
        <pt x="430" y="702" on="0"/>
      </contour>
    </TTGlyph>
    <TTGlyph name="Aogonek" xMin="31" yMin="-188" xMax="601" yMax="555">
      <contour>
        <pt x="388" y="205" on="1"/>
        <pt x="362" y="265" on="0"/>
        <pt x="305" y="390" on="0"/>
        <pt x="278" y="448" on="1"/>
        <pt x="252" y="390" on="0"/>
        <pt x="199" y="265" on="0"/>
        <pt x="173" y="205" on="1"/>
      </contour>
      <contour>
        <pt x="514" y="-188" on="1"/>
        <pt x="493" y="-188" on="0"/>
        <pt x="449" y="-173" on="0"/>
        <pt x="432" y="-156" on="1"/>
        <pt x="402" y="-126" on="0"/>
        <pt x="402" y="-85" on="1"/>
        <pt x="402" y="-62" on="0"/>
        <pt x="425" y="-3" on="0"/>
        <pt x="460" y="34" on="1"/>
        <pt x="451" y="57" on="0"/>
        <pt x="429" y="110" on="0"/>
        <pt x="417" y="139" on="1"/>
        <pt x="146" y="139" on="1"/>
        <pt x="132" y="104" on="0"/>
        <pt x="108" y="42" on="0"/>
        <pt x="98" y="16" on="1"/>
        <pt x="93" y="3" on="0"/>
        <pt x="69" y="-9" on="0"/>
        <pt x="56" y="-4" on="1"/>
        <pt x="43" y="1" on="0"/>
        <pt x="31" y="25" on="0"/>
        <pt x="36" y="38" on="1"/>
        <pt x="53" y="86" on="0"/>
        <pt x="104" y="209" on="0"/>
        <pt x="161" y="343" on="0"/>
        <pt x="220" y="477" on="0"/>
        <pt x="245" y="534" on="1"/>
        <pt x="250" y="544" on="0"/>
        <pt x="267" y="554" on="0"/>
        <pt x="277" y="554" on="1"/>
        <pt x="288" y="555" on="0"/>
        <pt x="306" y="545" on="0"/>
        <pt x="311" y="535" on="1"/>
        <pt x="338" y="477" on="0"/>
        <pt x="399" y="343" on="0"/>
        <pt x="459" y="210" on="0"/>
        <pt x="511" y="87" on="0"/>
        <pt x="529" y="41" on="1"/>
        <pt x="534" y="32" on="0"/>
        <pt x="530" y="10" on="0"/>
        <pt x="522" y="3" on="1"/>
        <pt x="491" y="-25" on="0"/>
        <pt x="468" y="-68" on="0"/>
        <pt x="468" y="-85" on="1"/>
        <pt x="468" y="-98" on="0"/>
        <pt x="478" y="-110" on="1"/>
        <pt x="486" y="-117" on="0"/>
        <pt x="505" y="-122" on="0"/>
        <pt x="514" y="-122" on="1"/>
        <pt x="525" y="-122" on="0"/>
        <pt x="547" y="-117" on="0"/>
        <pt x="555" y="-114" on="1"/>
        <pt x="568" y="-110" on="0"/>
        <pt x="592" y="-123" on="0"/>
        <pt x="597" y="-136" on="1"/>
        <pt x="601" y="-149" on="0"/>
        <pt x="588" y="-173" on="0"/>
        <pt x="575" y="-178" on="1"/>
        <pt x="563" y="-181" on="0"/>
        <pt x="531" y="-188" on="0"/>
      </contour>
    </TTGlyph>
    <TTGlyph name="Aring" xMin="31" yMin="-9" xMax="535" yMax="811">
      <contour>
        <pt x="388" y="205" on="1"/>
        <pt x="362" y="265" on="0"/>
        <pt x="305" y="390" on="0"/>
        <pt x="278" y="448" on="1"/>
        <pt x="252" y="390" on="0"/>
        <pt x="199" y="265" on="0"/>
        <pt x="173" y="205" on="1"/>
      </contour>
      <contour>
        <pt x="511" y="-4" on="1"/>
        <pt x="498" y="-9" on="0"/>
        <pt x="473" y="2" on="0"/>
        <pt x="468" y="15" on="1"/>
        <pt x="457" y="41" on="0"/>
        <pt x="432" y="104" on="0"/>
        <pt x="417" y="139" on="1"/>
        <pt x="146" y="139" on="1"/>
        <pt x="132" y="104" on="0"/>
        <pt x="108" y="42" on="0"/>
        <pt x="98" y="16" on="1"/>
        <pt x="93" y="3" on="0"/>
        <pt x="69" y="-9" on="0"/>
        <pt x="56" y="-4" on="1"/>
        <pt x="43" y="1" on="0"/>
        <pt x="31" y="25" on="0"/>
        <pt x="36" y="38" on="1"/>
        <pt x="53" y="86" on="0"/>
        <pt x="104" y="209" on="0"/>
        <pt x="161" y="343" on="0"/>
        <pt x="220" y="477" on="0"/>
        <pt x="245" y="534" on="1"/>
        <pt x="250" y="544" on="0"/>
        <pt x="267" y="554" on="0"/>
        <pt x="277" y="554" on="1"/>
        <pt x="288" y="555" on="0"/>
        <pt x="306" y="545" on="0"/>
        <pt x="311" y="535" on="1"/>
        <pt x="338" y="477" on="0"/>
        <pt x="400" y="342" on="0"/>
        <pt x="459" y="208" on="0"/>
        <pt x="512" y="85" on="0"/>
        <pt x="530" y="39" on="1"/>
        <pt x="535" y="26" on="0"/>
        <pt x="524" y="1" on="0"/>
      </contour>
      <contour>
        <pt x="280" y="655" on="1"/>
        <pt x="303" y="655" on="0"/>
        <pt x="334" y="681" on="0"/>
        <pt x="334" y="700" on="1"/>
        <pt x="334" y="719" on="0"/>
        <pt x="303" y="745" on="0"/>
        <pt x="280" y="745" on="1"/>
        <pt x="257" y="745" on="0"/>
        <pt x="229" y="717" on="0"/>
        <pt x="229" y="700" on="1"/>
        <pt x="229" y="683" on="0"/>
        <pt x="257" y="655" on="0"/>
      </contour>
      <contour>
        <pt x="280" y="811" on="1"/>
        <pt x="309" y="811" on="0"/>
        <pt x="354" y="792" on="0"/>
        <pt x="384" y="761" on="0"/>
        <pt x="400" y="721" on="0"/>
        <pt x="400" y="700" on="1"/>
        <pt x="400" y="679" on="0"/>
        <pt x="384" y="639" on="0"/>
        <pt x="354" y="608" on="0"/>
        <pt x="309" y="589" on="0"/>
        <pt x="280" y="589" on="1"/>
        <pt x="252" y="589" on="0"/>
        <pt x="209" y="609" on="0"/>
        <pt x="179" y="640" on="0"/>
        <pt x="163" y="680" on="0"/>
        <pt x="163" y="700" on="1"/>
        <pt x="163" y="720" on="0"/>
        <pt x="179" y="760" on="0"/>
        <pt x="209" y="791" on="0"/>
        <pt x="252" y="811" on="0"/>
      </contour>
    </TTGlyph>
    <TTGlyph name="Atilde" xMin="31" yMin="-9" xMax="535" yMax="732">
      <contour>
        <pt x="388" y="205" on="1"/>
        <pt x="362" y="265" on="0"/>
        <pt x="305" y="390" on="0"/>
        <pt x="278" y="448" on="1"/>
        <pt x="252" y="390" on="0"/>
        <pt x="199" y="265" on="0"/>
        <pt x="173" y="205" on="1"/>
      </contour>
      <contour>
        <pt x="511" y="-4" on="1"/>
        <pt x="498" y="-9" on="0"/>
        <pt x="473" y="2" on="0"/>
        <pt x="468" y="15" on="1"/>
        <pt x="457" y="41" on="0"/>
        <pt x="432" y="104" on="0"/>
        <pt x="417" y="139" on="1"/>
        <pt x="146" y="139" on="1"/>
        <pt x="132" y="104" on="0"/>
        <pt x="108" y="42" on="0"/>
        <pt x="98" y="16" on="1"/>
        <pt x="93" y="3" on="0"/>
        <pt x="69" y="-9" on="0"/>
        <pt x="56" y="-4" on="1"/>
        <pt x="43" y="1" on="0"/>
        <pt x="31" y="25" on="0"/>
        <pt x="36" y="38" on="1"/>
        <pt x="53" y="86" on="0"/>
        <pt x="104" y="209" on="0"/>
        <pt x="161" y="343" on="0"/>
        <pt x="220" y="477" on="0"/>
        <pt x="245" y="534" on="1"/>
        <pt x="250" y="544" on="0"/>
        <pt x="267" y="554" on="0"/>
        <pt x="277" y="554" on="1"/>
        <pt x="288" y="555" on="0"/>
        <pt x="306" y="545" on="0"/>
        <pt x="311" y="535" on="1"/>
        <pt x="338" y="477" on="0"/>
        <pt x="400" y="342" on="0"/>
        <pt x="459" y="208" on="0"/>
        <pt x="512" y="85" on="0"/>
        <pt x="530" y="39" on="1"/>
        <pt x="535" y="26" on="0"/>
        <pt x="524" y="1" on="0"/>
      </contour>
      <contour>
        <pt x="143" y="626" on="1"/>
        <pt x="133" y="634" on="0"/>
        <pt x="130" y="662" on="0"/>
        <pt x="138" y="673" on="1"/>
        <pt x="162" y="702" on="0"/>
        <pt x="208" y="729" on="0"/>
        <pt x="233" y="729" on="1"/>
        <pt x="257" y="729" on="0"/>
        <pt x="291" y="712" on="0"/>
        <pt x="310" y="697" on="1"/>
        <pt x="320" y="691" on="0"/>
        <pt x="338" y="681" on="0"/>
        <pt x="349" y="681" on="1"/>
        <pt x="365" y="681" on="0"/>
        <pt x="385" y="701" on="0"/>
        <pt x="398" y="718" on="1"/>
        <pt x="406" y="729" on="0"/>
        <pt x="433" y="732" on="0"/>
        <pt x="444" y="724" on="1"/>
        <pt x="455" y="716" on="0"/>
        <pt x="458" y="689" on="0"/>
        <pt x="450" y="678" on="1"/>
        <pt x="424" y="643" on="0"/>
        <pt x="380" y="615" on="0"/>
        <pt x="349" y="615" on="1"/>
        <pt x="327" y="615" on="0"/>
        <pt x="290" y="630" on="0"/>
        <pt x="270" y="645" on="1"/>
        <pt x="260" y="653" on="0"/>
        <pt x="245" y="663" on="0"/>
        <pt x="233" y="663" on="1"/>
        <pt x="220" y="663" on="0"/>
        <pt x="201" y="645" on="0"/>
        <pt x="190" y="631" on="1"/>
        <pt x="182" y="621" on="0"/>
        <pt x="154" y="618" on="0"/>
      </contour>
    </TTGlyph>
    <TTGlyph name="B" xMin="44" yMin="-3" xMax="310" yMax="654">
      <contour>
        <pt x="118" y="352" on="1"/>
        <pt x="179" y="364" on="0"/>
        <pt x="222" y="429" on="0"/>
        <pt x="222" y="493" on="1"/>
        <pt x="222" y="555" on="0"/>
        <pt x="175" y="605" on="0"/>
        <pt x="109" y="593" on="1"/>
        <pt x="112" y="534" on="0"/>
        <pt x="116" y="411" on="0"/>
      </contour>
      <contour>
        <pt x="118" y="56" on="1"/>
        <pt x="153" y="56" on="0"/>
        <pt x="201" y="68" on="0"/>
        <pt x="230" y="100" on="0"/>
        <pt x="243" y="152" on="0"/>
        <pt x="243" y="193" on="1"/>
        <pt x="243" y="221" on="0"/>
        <pt x="231" y="266" on="0"/>
        <pt x="202" y="296" on="0"/>
        <pt x="155" y="309" on="0"/>
        <pt x="119" y="305" on="1"/>
        <pt x="120" y="243" on="0"/>
        <pt x="120" y="118" on="0"/>
      </contour>
      <contour>
        <pt x="50" y="-3" on="1"/>
        <pt x="53" y="69" on="0"/>
        <pt x="54" y="234" on="0"/>
        <pt x="52" y="403" on="0"/>
        <pt x="47" y="568" on="0"/>
        <pt x="44" y="640" on="1"/>
        <pt x="64" y="646" on="0"/>
        <pt x="112" y="654" on="0"/>
        <pt x="154" y="654" on="1"/>
        <pt x="186" y="654" on="0"/>
        <pt x="236" y="639" on="0"/>
        <pt x="271" y="601" on="0"/>
        <pt x="289" y="538" on="0"/>
        <pt x="289" y="490" on="1"/>
        <pt x="289" y="442" on="0"/>
        <pt x="244" y="364" on="0"/>
        <pt x="206" y="346" on="1"/>
        <pt x="234" y="341" on="0"/>
        <pt x="273" y="312" on="0"/>
        <pt x="298" y="272" on="0"/>
        <pt x="310" y="224" on="0"/>
        <pt x="310" y="199" on="1"/>
        <pt x="310" y="146" on="0"/>
        <pt x="292" y="70" on="0"/>
        <pt x="237" y="21" on="0"/>
        <pt x="134" y="-3" on="0"/>
      </contour>
    </TTGlyph>
    <TTGlyph name="C" xMin="30" yMin="-9" xMax="288" yMax="658">
      <contour>
        <pt x="258" y="587" on="1"/>
        <pt x="247" y="591" on="0"/>
        <pt x="215" y="603" on="0"/>
        <pt x="199" y="603" on="1"/>
        <pt x="167" y="603" on="0"/>
        <pt x="127" y="574" on="0"/>
        <pt x="104" y="510" on="0"/>
        <pt x="95" y="409" on="0"/>
        <pt x="95" y="337" on="1"/>
        <pt x="95" y="264" on="0"/>
        <pt x="102" y="167" on="0"/>
        <pt x="117" y="105" on="0"/>
        <pt x="137" y="70" on="0"/>
        <pt x="151" y="59" on="1"/>
        <pt x="158" y="53" on="0"/>
        <pt x="189" y="48" on="0"/>
        <pt x="225" y="49" on="0"/>
        <pt x="259" y="56" on="0"/>
        <pt x="271" y="61" on="1"/>
        <pt x="288" y="15" on="1"/>
        <pt x="265" y="2" on="0"/>
        <pt x="219" y="-9" on="0"/>
        <pt x="199" y="-9" on="1"/>
        <pt x="150" y="-9" on="0"/>
        <pt x="85" y="20" on="0"/>
        <pt x="46" y="94" on="0"/>
        <pt x="30" y="221" on="0"/>
        <pt x="30" y="319" on="1"/>
        <pt x="30" y="415" on="0"/>
        <pt x="46" y="544" on="0"/>
        <pt x="87" y="624" on="0"/>
        <pt x="155" y="658" on="0"/>
        <pt x="207" y="658" on="1"/>
        <pt x="229" y="658" on="0"/>
        <pt x="266" y="647" on="0"/>
        <pt x="276" y="636" on="1"/>
      </contour>
    </TTGlyph>
    <TTGlyph name="Cacute" xMin="53" yMin="-15" xMax="510" yMax="764">
      <contour>
        <pt x="499" y="476" on="1"/>
        <pt x="492" y="465" on="0"/>
        <pt x="466" y="456" on="0"/>
        <pt x="454" y="463" on="1"/>
        <pt x="432" y="475" on="0"/>
        <pt x="369" y="488" on="0"/>
        <pt x="334" y="488" on="1"/>
        <pt x="290" y="488" on="0"/>
        <pt x="212" y="456" on="0"/>
        <pt x="154" y="398" on="0"/>
        <pt x="119" y="316" on="0"/>
        <pt x="119" y="266" on="1"/>
        <pt x="119" y="220" on="0"/>
        <pt x="149" y="142" on="0"/>
        <pt x="205" y="84" on="0"/>
        <pt x="287" y="51" on="0"/>
        <pt x="340" y="51" on="1"/>
        <pt x="410" y="51" on="0"/>
        <pt x="460" y="77" on="1"/>
        <pt x="472" y="83" on="0"/>
        <pt x="498" y="75" on="0"/>
        <pt x="504" y="63" on="1"/>
        <pt x="510" y="51" on="0"/>
        <pt x="502" y="25" on="0"/>
        <pt x="490" y="19" on="1"/>
        <pt x="459" y="3" on="0"/>
        <pt x="384" y="-15" on="0"/>
        <pt x="340" y="-15" on="1"/>
        <pt x="272" y="-15" on="0"/>
        <pt x="165" y="28" on="0"/>
        <pt x="91" y="104" on="0"/>
        <pt x="53" y="207" on="0"/>
        <pt x="53" y="266" on="1"/>
        <pt x="53" y="331" on="0"/>
        <pt x="99" y="437" on="0"/>
        <pt x="176" y="513" on="0"/>
        <pt x="278" y="554" on="0"/>
        <pt x="334" y="554" on="1"/>
        <pt x="379" y="554" on="0"/>
        <pt x="458" y="536" on="0"/>
        <pt x="486" y="521" on="1"/>
        <pt x="497" y="514" on="0"/>
        <pt x="506" y="488" on="0"/>
      </contour>
      <contour>
        <pt x="469" y="746" on="1"/>
        <pt x="476" y="734" on="0"/>
        <pt x="469" y="708" on="0"/>
        <pt x="458" y="701" on="1"/>
        <pt x="424" y="681" on="0"/>
        <pt x="359" y="639" on="0"/>
        <pt x="337" y="623" on="1"/>
        <pt x="326" y="615" on="0"/>
        <pt x="299" y="620" on="0"/>
        <pt x="291" y="631" on="1"/>
        <pt x="283" y="642" on="0"/>
        <pt x="288" y="669" on="0"/>
        <pt x="299" y="677" on="1"/>
        <pt x="321" y="693" on="0"/>
        <pt x="389" y="737" on="0"/>
        <pt x="424" y="757" on="1"/>
        <pt x="436" y="764" on="0"/>
        <pt x="462" y="757" on="0"/>
      </contour>
    </TTGlyph>
    <TTGlyph name="Ccaron" xMin="53" yMin="-15" xMax="510" yMax="761">
      <contour>
        <pt x="499" y="476" on="1"/>
        <pt x="492" y="465" on="0"/>
        <pt x="466" y="456" on="0"/>
        <pt x="454" y="463" on="1"/>
        <pt x="432" y="475" on="0"/>
        <pt x="369" y="488" on="0"/>
        <pt x="334" y="488" on="1"/>
        <pt x="290" y="488" on="0"/>
        <pt x="212" y="456" on="0"/>
        <pt x="154" y="398" on="0"/>
        <pt x="119" y="316" on="0"/>
        <pt x="119" y="266" on="1"/>
        <pt x="119" y="220" on="0"/>
        <pt x="149" y="142" on="0"/>
        <pt x="205" y="84" on="0"/>
        <pt x="287" y="51" on="0"/>
        <pt x="340" y="51" on="1"/>
        <pt x="410" y="51" on="0"/>
        <pt x="460" y="77" on="1"/>
        <pt x="472" y="83" on="0"/>
        <pt x="498" y="75" on="0"/>
        <pt x="504" y="63" on="1"/>
        <pt x="510" y="51" on="0"/>
        <pt x="502" y="25" on="0"/>
        <pt x="490" y="19" on="1"/>
        <pt x="459" y="3" on="0"/>
        <pt x="384" y="-15" on="0"/>
        <pt x="340" y="-15" on="1"/>
        <pt x="272" y="-15" on="0"/>
        <pt x="165" y="28" on="0"/>
        <pt x="91" y="104" on="0"/>
        <pt x="53" y="207" on="0"/>
        <pt x="53" y="266" on="1"/>
        <pt x="53" y="331" on="0"/>
        <pt x="99" y="437" on="0"/>
        <pt x="176" y="513" on="0"/>
        <pt x="278" y="554" on="0"/>
        <pt x="334" y="554" on="1"/>
        <pt x="379" y="554" on="0"/>
        <pt x="458" y="536" on="0"/>
        <pt x="486" y="521" on="1"/>
        <pt x="497" y="514" on="0"/>
        <pt x="506" y="488" on="0"/>
      </contour>
      <contour>
        <pt x="341" y="631" on="1"/>
        <pt x="336" y="627" on="0"/>
        <pt x="325" y="625" on="0"/>
        <pt x="319" y="625" on="1"/>
        <pt x="313" y="625" on="0"/>
        <pt x="301" y="627" on="0"/>
        <pt x="296" y="631" on="1"/>
        <pt x="270" y="649" on="0"/>
        <pt x="220" y="684" on="0"/>
        <pt x="199" y="701" on="1"/>
        <pt x="188" y="709" on="0"/>
        <pt x="185" y="736" on="0"/>
        <pt x="193" y="747" on="1"/>
        <pt x="201" y="758" on="0"/>
        <pt x="228" y="761" on="0"/>
        <pt x="239" y="753" on="1"/>
        <pt x="257" y="740" on="0"/>
        <pt x="297" y="711" on="0"/>
        <pt x="318" y="696" on="1"/>
        <pt x="339" y="711" on="0"/>
        <pt x="380" y="739" on="0"/>
        <pt x="398" y="753" on="1"/>
        <pt x="409" y="761" on="0"/>
        <pt x="436" y="758" on="0"/>
        <pt x="444" y="747" on="1"/>
        <pt x="452" y="736" on="0"/>
        <pt x="449" y="709" on="0"/>
        <pt x="438" y="701" on="1"/>
        <pt x="417" y="685" on="0"/>
        <pt x="367" y="649" on="0"/>
      </contour>
    </TTGlyph>
    <TTGlyph name="Ccedilla" xMin="53" yMin="-240" xMax="510" yMax="554">
      <contour>
        <pt x="359" y="-97" on="1"/>
        <pt x="369" y="-107" on="0"/>
        <pt x="369" y="-134" on="0"/>
        <pt x="359" y="-143" on="1"/>
        <pt x="350" y="-152" on="0"/>
        <pt x="326" y="-175" on="0"/>
        <pt x="314" y="-187" on="1"/>
        <pt x="291" y="-210" on="1"/>
        <pt x="271" y="-230" on="1"/>
        <pt x="262" y="-240" on="0"/>
        <pt x="235" y="-240" on="0"/>
        <pt x="225" y="-230" on="1"/>
        <pt x="215" y="-220" on="0"/>
        <pt x="215" y="-193" on="0"/>
        <pt x="225" y="-184" on="1"/>
        <pt x="225" y="-184" on="0"/>
        <pt x="245" y="-164" on="1"/>
        <pt x="268" y="-141" on="1"/>
        <pt x="280" y="-129" on="0"/>
        <pt x="304" y="-106" on="0"/>
        <pt x="313" y="-97" on="1"/>
        <pt x="322" y="-87" on="0"/>
        <pt x="349" y="-87" on="0"/>
      </contour>
      <contour>
        <pt x="499" y="476" on="1"/>
        <pt x="492" y="465" on="0"/>
        <pt x="466" y="456" on="0"/>
        <pt x="454" y="463" on="1"/>
        <pt x="432" y="475" on="0"/>
        <pt x="369" y="488" on="0"/>
        <pt x="334" y="488" on="1"/>
        <pt x="290" y="488" on="0"/>
        <pt x="212" y="456" on="0"/>
        <pt x="154" y="398" on="0"/>
        <pt x="119" y="316" on="0"/>
        <pt x="119" y="266" on="1"/>
        <pt x="119" y="220" on="0"/>
        <pt x="149" y="142" on="0"/>
        <pt x="205" y="84" on="0"/>
        <pt x="287" y="51" on="0"/>
        <pt x="340" y="51" on="1"/>
        <pt x="410" y="51" on="0"/>
        <pt x="460" y="77" on="1"/>
        <pt x="472" y="83" on="0"/>
        <pt x="498" y="75" on="0"/>
        <pt x="504" y="63" on="1"/>
        <pt x="510" y="51" on="0"/>
        <pt x="502" y="25" on="0"/>
        <pt x="490" y="19" on="1"/>
        <pt x="459" y="3" on="0"/>
        <pt x="384" y="-15" on="0"/>
        <pt x="340" y="-15" on="1"/>
        <pt x="272" y="-15" on="0"/>
        <pt x="165" y="28" on="0"/>
        <pt x="91" y="104" on="0"/>
        <pt x="53" y="207" on="0"/>
        <pt x="53" y="266" on="1"/>
        <pt x="53" y="331" on="0"/>
        <pt x="99" y="437" on="0"/>
        <pt x="176" y="513" on="0"/>
        <pt x="278" y="554" on="0"/>
        <pt x="334" y="554" on="1"/>
        <pt x="379" y="554" on="0"/>
        <pt x="458" y="536" on="0"/>
        <pt x="486" y="521" on="1"/>
        <pt x="497" y="514" on="0"/>
        <pt x="506" y="488" on="0"/>
      </contour>
    </TTGlyph>
    <TTGlyph name="D" xMin="20" yMin="-3" xMax="338" yMax="652">
      <contour>
        <pt x="61" y="-3" on="1"/>
        <pt x="66" y="143" on="0"/>
        <pt x="66" y="439" on="0"/>
        <pt x="59" y="585" on="1"/>
        <pt x="25" y="582" on="1"/>
        <pt x="20" y="633" on="1"/>
        <pt x="44" y="640" on="0"/>
        <pt x="120" y="652" on="0"/>
        <pt x="173" y="652" on="1"/>
        <pt x="215" y="652" on="0"/>
        <pt x="277" y="622" on="0"/>
        <pt x="318" y="552" on="0"/>
        <pt x="338" y="436" on="0"/>
        <pt x="338" y="350" on="1"/>
        <pt x="338" y="242" on="0"/>
        <pt x="318" y="105" on="0"/>
        <pt x="258" y="27" on="0"/>
        <pt x="149" y="-3" on="0"/>
      </contour>
      <contour>
        <pt x="129" y="55" on="1"/>
        <pt x="175" y="57" on="0"/>
        <pt x="231" y="79" on="0"/>
        <pt x="262" y="141" on="0"/>
        <pt x="273" y="254" on="0"/>
        <pt x="273" y="349" on="1"/>
        <pt x="273" y="420" on="0"/>
        <pt x="259" y="519" on="0"/>
        <pt x="224" y="577" on="0"/>
        <pt x="166" y="598" on="0"/>
        <pt x="121" y="591" on="1"/>
        <pt x="129" y="454" on="0"/>
        <pt x="134" y="192" on="0"/>
      </contour>
    </TTGlyph>
    <TTGlyph name="Dcaron" xMin="95" yMin="-6" xMax="564" yMax="761">
      <contour>
        <pt x="161" y="479" on="1"/>
        <pt x="161" y="60" on="1"/>
        <pt x="304" y="60" on="1"/>
        <pt x="349" y="60" on="0"/>
        <pt x="420" y="93" on="0"/>
        <pt x="471" y="150" on="0"/>
        <pt x="498" y="227" on="0"/>
        <pt x="498" y="270" on="1"/>
        <pt x="498" y="315" on="0"/>
        <pt x="467" y="392" on="0"/>
        <pt x="413" y="448" on="0"/>
        <pt x="343" y="479" on="0"/>
        <pt x="304" y="479" on="1"/>
      </contour>
      <contour>
        <pt x="564" y="270" on="1"/>
        <pt x="564" y="212" on="0"/>
        <pt x="527" y="111" on="0"/>
        <pt x="459" y="37" on="0"/>
        <pt x="363" y="-6" on="0"/>
        <pt x="304" y="-6" on="1"/>
        <pt x="128" y="-6" on="1"/>
        <pt x="114" y="-6" on="0"/>
        <pt x="95" y="13" on="0"/>
        <pt x="95" y="27" on="1"/>
        <pt x="95" y="512" on="1"/>
        <pt x="95" y="526" on="0"/>
        <pt x="114" y="545" on="0"/>
        <pt x="128" y="545" on="1"/>
        <pt x="304" y="545" on="1"/>
        <pt x="355" y="545" on="0"/>
        <pt x="449" y="505" on="0"/>
        <pt x="521" y="432" on="0"/>
        <pt x="564" y="331" on="0"/>
      </contour>
      <contour>
        <pt x="294" y="631" on="1"/>
        <pt x="289" y="627" on="0"/>
        <pt x="278" y="625" on="0"/>
        <pt x="272" y="625" on="1"/>
        <pt x="266" y="625" on="0"/>
        <pt x="254" y="627" on="0"/>
        <pt x="249" y="631" on="1"/>
        <pt x="223" y="649" on="0"/>
        <pt x="173" y="684" on="0"/>
        <pt x="152" y="701" on="1"/>
        <pt x="141" y="709" on="0"/>
        <pt x="138" y="736" on="0"/>
        <pt x="146" y="747" on="1"/>
        <pt x="154" y="758" on="0"/>
        <pt x="181" y="761" on="0"/>
        <pt x="192" y="753" on="1"/>
        <pt x="210" y="740" on="0"/>
        <pt x="250" y="711" on="0"/>
        <pt x="271" y="696" on="1"/>
        <pt x="292" y="711" on="0"/>
        <pt x="333" y="739" on="0"/>
        <pt x="351" y="753" on="1"/>
        <pt x="362" y="761" on="0"/>
        <pt x="389" y="758" on="0"/>
        <pt x="397" y="747" on="1"/>
        <pt x="405" y="736" on="0"/>
        <pt x="402" y="709" on="0"/>
        <pt x="391" y="701" on="1"/>
        <pt x="370" y="685" on="0"/>
        <pt x="320" y="649" on="0"/>
      </contour>
    </TTGlyph>
    <TTGlyph name="Dcroat" xMin="21" yMin="-6" xMax="564" yMax="545">
      <contour>
        <pt x="128" y="-6" on="1"/>
        <pt x="114" y="-6" on="0"/>
        <pt x="95" y="13" on="0"/>
        <pt x="95" y="27" on="1"/>
        <pt x="95" y="241" on="1"/>
        <pt x="54" y="241" on="1"/>
        <pt x="40" y="241" on="0"/>
        <pt x="21" y="260" on="0"/>
        <pt x="21" y="274" on="1"/>
        <pt x="21" y="288" on="0"/>
        <pt x="40" y="307" on="0"/>
        <pt x="54" y="307" on="1"/>
        <pt x="95" y="307" on="1"/>
        <pt x="95" y="512" on="1"/>
        <pt x="95" y="526" on="0"/>
        <pt x="114" y="545" on="0"/>
        <pt x="128" y="545" on="1"/>
        <pt x="304" y="545" on="1"/>
        <pt x="355" y="545" on="0"/>
        <pt x="449" y="505" on="0"/>
        <pt x="521" y="432" on="0"/>
        <pt x="564" y="331" on="0"/>
        <pt x="564" y="270" on="1"/>
        <pt x="564" y="212" on="0"/>
        <pt x="527" y="111" on="0"/>
        <pt x="459" y="37" on="0"/>
        <pt x="363" y="-6" on="0"/>
        <pt x="304" y="-6" on="1"/>
      </contour>
      <contour>
        <pt x="161" y="241" on="1"/>
        <pt x="161" y="60" on="1"/>
        <pt x="304" y="60" on="1"/>
        <pt x="349" y="60" on="0"/>
        <pt x="420" y="93" on="0"/>
        <pt x="471" y="150" on="0"/>
        <pt x="498" y="227" on="0"/>
        <pt x="498" y="270" on="1"/>
        <pt x="498" y="315" on="0"/>
        <pt x="467" y="392" on="0"/>
        <pt x="413" y="448" on="0"/>
        <pt x="343" y="479" on="0"/>
        <pt x="304" y="479" on="1"/>
        <pt x="161" y="479" on="1"/>
        <pt x="161" y="307" on="1"/>
        <pt x="300" y="307" on="1"/>
        <pt x="314" y="307" on="0"/>
        <pt x="333" y="288" on="0"/>
        <pt x="333" y="274" on="1"/>
        <pt x="333" y="260" on="0"/>
        <pt x="314" y="241" on="0"/>
        <pt x="300" y="241" on="1"/>
      </contour>
    </TTGlyph>
    <TTGlyph name="E" xMin="40" yMin="-7" xMax="274" yMax="654">
      <contour>
        <pt x="108" y="635" on="1"/>
        <pt x="109" y="535" on="0"/>
        <pt x="112" y="383" on="0"/>
        <pt x="115" y="244" on="0"/>
        <pt x="120" y="100" on="0"/>
        <pt x="123" y="9" on="1"/>
        <pt x="54" y="-7" on="1"/>
        <pt x="54" y="85" on="0"/>
        <pt x="53" y="234" on="0"/>
        <pt x="51" y="381" on="0"/>
        <pt x="45" y="541" on="0"/>
        <pt x="40" y="644" on="1"/>
      </contour>
      <contour>
        <pt x="248" y="654" on="1"/>
        <pt x="250" y="596" on="1"/>
        <pt x="61" y="590" on="1"/>
        <pt x="40" y="644" on="1"/>
      </contour>
      <contour>
        <pt x="272" y="60" on="1"/>
        <pt x="274" y="0" on="1"/>
        <pt x="54" y="-7" on="1"/>
        <pt x="70" y="48" on="1"/>
      </contour>
      <contour>
        <pt x="230" y="366" on="1"/>
        <pt x="232" y="309" on="1"/>
        <pt x="80" y="304" on="1"/>
        <pt x="78" y="357" on="1"/>
      </contour>
    </TTGlyph>
    <TTGlyph name="Eacute" xMin="95" yMin="-6" xMax="440" yMax="764">
      <contour>
        <pt x="132" y="-6" on="1"/>
        <pt x="128" y="-6" on="1"/>
        <pt x="114" y="-6" on="0"/>
        <pt x="95" y="13" on="0"/>
        <pt x="95" y="27" on="1"/>
        <pt x="95" y="512" on="1"/>
        <pt x="95" y="526" on="0"/>
        <pt x="114" y="545" on="0"/>
        <pt x="128" y="545" on="1"/>
        <pt x="132" y="545" on="1"/>
        <pt x="136" y="545" on="1"/>
        <pt x="405" y="545" on="1"/>
        <pt x="419" y="545" on="0"/>
        <pt x="438" y="526" on="0"/>
        <pt x="438" y="512" on="1"/>
        <pt x="438" y="498" on="0"/>
        <pt x="419" y="479" on="0"/>
        <pt x="405" y="479" on="1"/>
        <pt x="161" y="479" on="1"/>
        <pt x="161" y="321" on="1"/>
        <pt x="362" y="321" on="1"/>
        <pt x="376" y="321" on="0"/>
        <pt x="395" y="302" on="0"/>
        <pt x="395" y="288" on="1"/>
        <pt x="395" y="274" on="0"/>
        <pt x="376" y="255" on="0"/>
        <pt x="362" y="255" on="1"/>
        <pt x="161" y="255" on="1"/>
        <pt x="161" y="60" on="1"/>
        <pt x="407" y="60" on="1"/>
        <pt x="421" y="60" on="0"/>
        <pt x="440" y="41" on="0"/>
        <pt x="440" y="27" on="1"/>
        <pt x="440" y="13" on="0"/>
        <pt x="421" y="-6" on="0"/>
        <pt x="407" y="-6" on="1"/>
        <pt x="136" y="-6" on="1"/>
      </contour>
      <contour>
        <pt x="409" y="746" on="1"/>
        <pt x="416" y="734" on="0"/>
        <pt x="409" y="708" on="0"/>
        <pt x="398" y="701" on="1"/>
        <pt x="364" y="681" on="0"/>
        <pt x="299" y="639" on="0"/>
        <pt x="277" y="623" on="1"/>
        <pt x="266" y="615" on="0"/>
        <pt x="239" y="620" on="0"/>
        <pt x="231" y="631" on="1"/>
        <pt x="223" y="642" on="0"/>
        <pt x="228" y="669" on="0"/>
        <pt x="239" y="677" on="1"/>
        <pt x="261" y="693" on="0"/>
        <pt x="329" y="737" on="0"/>
        <pt x="364" y="757" on="1"/>
        <pt x="376" y="764" on="0"/>
        <pt x="402" y="757" on="0"/>
      </contour>
    </TTGlyph>
    <TTGlyph name="Ecaron" xMin="95" yMin="-6" xMax="440" yMax="761">
      <contour>
        <pt x="132" y="-6" on="1"/>
        <pt x="128" y="-6" on="1"/>
        <pt x="114" y="-6" on="0"/>
        <pt x="95" y="13" on="0"/>
        <pt x="95" y="27" on="1"/>
        <pt x="95" y="512" on="1"/>
        <pt x="95" y="526" on="0"/>
        <pt x="114" y="545" on="0"/>
        <pt x="128" y="545" on="1"/>
        <pt x="132" y="545" on="1"/>
        <pt x="136" y="545" on="1"/>
        <pt x="405" y="545" on="1"/>
        <pt x="419" y="545" on="0"/>
        <pt x="438" y="526" on="0"/>
        <pt x="438" y="512" on="1"/>
        <pt x="438" y="498" on="0"/>
        <pt x="419" y="479" on="0"/>
        <pt x="405" y="479" on="1"/>
        <pt x="161" y="479" on="1"/>
        <pt x="161" y="321" on="1"/>
        <pt x="362" y="321" on="1"/>
        <pt x="376" y="321" on="0"/>
        <pt x="395" y="302" on="0"/>
        <pt x="395" y="288" on="1"/>
        <pt x="395" y="274" on="0"/>
        <pt x="376" y="255" on="0"/>
        <pt x="362" y="255" on="1"/>
        <pt x="161" y="255" on="1"/>
        <pt x="161" y="60" on="1"/>
        <pt x="407" y="60" on="1"/>
        <pt x="421" y="60" on="0"/>
        <pt x="440" y="41" on="0"/>
        <pt x="440" y="27" on="1"/>
        <pt x="440" y="13" on="0"/>
        <pt x="421" y="-6" on="0"/>
        <pt x="407" y="-6" on="1"/>
        <pt x="136" y="-6" on="1"/>
      </contour>
      <contour>
        <pt x="280" y="631" on="1"/>
        <pt x="275" y="627" on="0"/>
        <pt x="264" y="625" on="0"/>
        <pt x="258" y="625" on="1"/>
        <pt x="252" y="625" on="0"/>
        <pt x="240" y="627" on="0"/>
        <pt x="235" y="631" on="1"/>
        <pt x="209" y="649" on="0"/>
        <pt x="159" y="684" on="0"/>
        <pt x="138" y="701" on="1"/>
        <pt x="127" y="709" on="0"/>
        <pt x="124" y="736" on="0"/>
        <pt x="132" y="747" on="1"/>
        <pt x="140" y="758" on="0"/>
        <pt x="167" y="761" on="0"/>
        <pt x="178" y="753" on="1"/>
        <pt x="196" y="740" on="0"/>
        <pt x="236" y="711" on="0"/>
        <pt x="257" y="696" on="1"/>
        <pt x="278" y="711" on="0"/>
        <pt x="319" y="739" on="0"/>
        <pt x="337" y="753" on="1"/>
        <pt x="348" y="761" on="0"/>
        <pt x="375" y="758" on="0"/>
        <pt x="383" y="747" on="1"/>
        <pt x="391" y="736" on="0"/>
        <pt x="388" y="709" on="0"/>
        <pt x="377" y="701" on="1"/>
        <pt x="356" y="685" on="0"/>
        <pt x="306" y="649" on="0"/>
      </contour>
    </TTGlyph>
    <TTGlyph name="Ecircumflex" xMin="95" yMin="-6" xMax="440" yMax="760">
      <contour>
        <pt x="132" y="-6" on="1"/>
        <pt x="128" y="-6" on="1"/>
        <pt x="114" y="-6" on="0"/>
        <pt x="95" y="13" on="0"/>
        <pt x="95" y="27" on="1"/>
        <pt x="95" y="512" on="1"/>
        <pt x="95" y="526" on="0"/>
        <pt x="114" y="545" on="0"/>
        <pt x="128" y="545" on="1"/>
        <pt x="132" y="545" on="1"/>
        <pt x="136" y="545" on="1"/>
        <pt x="405" y="545" on="1"/>
        <pt x="419" y="545" on="0"/>
        <pt x="438" y="526" on="0"/>
        <pt x="438" y="512" on="1"/>
        <pt x="438" y="498" on="0"/>
        <pt x="419" y="479" on="0"/>
        <pt x="405" y="479" on="1"/>
        <pt x="161" y="479" on="1"/>
        <pt x="161" y="321" on="1"/>
        <pt x="362" y="321" on="1"/>
        <pt x="376" y="321" on="0"/>
        <pt x="395" y="302" on="0"/>
        <pt x="395" y="288" on="1"/>
        <pt x="395" y="274" on="0"/>
        <pt x="376" y="255" on="0"/>
        <pt x="362" y="255" on="1"/>
        <pt x="161" y="255" on="1"/>
        <pt x="161" y="60" on="1"/>
        <pt x="407" y="60" on="1"/>
        <pt x="421" y="60" on="0"/>
        <pt x="440" y="41" on="0"/>
        <pt x="440" y="27" on="1"/>
        <pt x="440" y="13" on="0"/>
        <pt x="421" y="-6" on="0"/>
        <pt x="407" y="-6" on="1"/>
        <pt x="136" y="-6" on="1"/>
      </contour>
      <contour>
        <pt x="178" y="632" on="1"/>
        <pt x="167" y="624" on="0"/>
        <pt x="140" y="627" on="0"/>
        <pt x="132" y="638" on="1"/>
        <pt x="124" y="649" on="0"/>
        <pt x="127" y="676" on="0"/>
        <pt x="138" y="684" on="1"/>
        <pt x="159" y="700" on="0"/>
        <pt x="209" y="736" on="0"/>
        <pt x="235" y="754" on="1"/>
        <pt x="240" y="758" on="0"/>
        <pt x="251" y="760" on="0"/>
        <pt x="257" y="760" on="1"/>
        <pt x="263" y="760" on="0"/>
        <pt x="275" y="758" on="0"/>
        <pt x="280" y="754" on="1"/>
        <pt x="306" y="736" on="0"/>
        <pt x="356" y="701" on="0"/>
        <pt x="377" y="684" on="1"/>
        <pt x="388" y="676" on="0"/>
        <pt x="391" y="649" on="0"/>
        <pt x="383" y="638" on="1"/>
        <pt x="375" y="627" on="0"/>
        <pt x="348" y="624" on="0"/>
        <pt x="337" y="632" on="1"/>
        <pt x="319" y="645" on="0"/>
        <pt x="279" y="674" on="0"/>
        <pt x="258" y="689" on="1"/>
        <pt x="237" y="674" on="0"/>
        <pt x="196" y="646" on="0"/>
      </contour>
    </TTGlyph>
    <TTGlyph name="Edieresis" xMin="95" yMin="-6" xMax="440" yMax="743">
      <contour>
        <pt x="132" y="-6" on="1"/>
        <pt x="128" y="-6" on="1"/>
        <pt x="114" y="-6" on="0"/>
        <pt x="95" y="13" on="0"/>
        <pt x="95" y="27" on="1"/>
        <pt x="95" y="512" on="1"/>
        <pt x="95" y="526" on="0"/>
        <pt x="114" y="545" on="0"/>
        <pt x="128" y="545" on="1"/>
        <pt x="132" y="545" on="1"/>
        <pt x="136" y="545" on="1"/>
        <pt x="405" y="545" on="1"/>
        <pt x="419" y="545" on="0"/>
        <pt x="438" y="526" on="0"/>
        <pt x="438" y="512" on="1"/>
        <pt x="438" y="498" on="0"/>
        <pt x="419" y="479" on="0"/>
        <pt x="405" y="479" on="1"/>
        <pt x="161" y="479" on="1"/>
        <pt x="161" y="321" on="1"/>
        <pt x="362" y="321" on="1"/>
        <pt x="376" y="321" on="0"/>
        <pt x="395" y="302" on="0"/>
        <pt x="395" y="288" on="1"/>
        <pt x="395" y="274" on="0"/>
        <pt x="376" y="255" on="0"/>
        <pt x="362" y="255" on="1"/>
        <pt x="161" y="255" on="1"/>
        <pt x="161" y="60" on="1"/>
        <pt x="407" y="60" on="1"/>
        <pt x="421" y="60" on="0"/>
        <pt x="440" y="41" on="0"/>
        <pt x="440" y="27" on="1"/>
        <pt x="440" y="13" on="0"/>
        <pt x="421" y="-6" on="0"/>
        <pt x="407" y="-6" on="1"/>
        <pt x="136" y="-6" on="1"/>
      </contour>
      <contour>
        <pt x="147" y="683" on="1"/>
        <pt x="147" y="677" on="0"/>
        <pt x="152" y="674" on="0"/>
        <pt x="158" y="674" on="0"/>
        <pt x="164" y="677" on="0"/>
        <pt x="165" y="677" on="1"/>
        <pt x="167" y="677" on="0"/>
        <pt x="179" y="675" on="0"/>
        <pt x="179" y="683" on="1"/>
        <pt x="179" y="691" on="0"/>
        <pt x="174" y="691" on="1"/>
        <pt x="165" y="691" on="1"/>
        <pt x="164" y="691" on="0"/>
        <pt x="158" y="693" on="0"/>
        <pt x="152" y="693" on="0"/>
        <pt x="147" y="689" on="0"/>
      </contour>
      <contour>
        <pt x="340" y="683" on="1"/>
        <pt x="340" y="677" on="0"/>
        <pt x="345" y="674" on="0"/>
        <pt x="351" y="674" on="0"/>
        <pt x="357" y="677" on="0"/>
        <pt x="358" y="677" on="1"/>
        <pt x="360" y="677" on="0"/>
        <pt x="373" y="675" on="0"/>
        <pt x="373" y="683" on="1"/>
        <pt x="373" y="692" on="0"/>
        <pt x="361" y="691" on="0"/>
        <pt x="358" y="691" on="1"/>
        <pt x="357" y="691" on="0"/>
        <pt x="351" y="693" on="0"/>
        <pt x="345" y="693" on="0"/>
        <pt x="340" y="689" on="0"/>
      </contour>
      <contour>
        <pt x="113" y="683" on="1"/>
        <pt x="113" y="710" on="0"/>
        <pt x="147" y="743" on="0"/>
        <pt x="165" y="743" on="1"/>
        <pt x="182" y="743" on="0"/>
        <pt x="213" y="715" on="0"/>
        <pt x="213" y="683" on="1"/>
        <pt x="213" y="649" on="0"/>
        <pt x="182" y="625" on="0"/>
        <pt x="165" y="625" on="1"/>
        <pt x="145" y="625" on="0"/>
        <pt x="113" y="654" on="0"/>
      </contour>
      <contour>
        <pt x="307" y="683" on="1"/>
        <pt x="307" y="711" on="0"/>
        <pt x="340" y="743" on="0"/>
        <pt x="358" y="743" on="1"/>
        <pt x="375" y="743" on="0"/>
        <pt x="406" y="715" on="0"/>
        <pt x="406" y="683" on="1"/>
        <pt x="406" y="649" on="0"/>
        <pt x="375" y="625" on="0"/>
        <pt x="358" y="625" on="1"/>
        <pt x="338" y="625" on="0"/>
        <pt x="307" y="653" on="0"/>
      </contour>
    </TTGlyph>
    <TTGlyph name="Edotaccent" xMin="95" yMin="-6" xMax="440" yMax="752">
      <contour>
        <pt x="132" y="-6" on="1"/>
        <pt x="128" y="-6" on="1"/>
        <pt x="114" y="-6" on="0"/>
        <pt x="95" y="13" on="0"/>
        <pt x="95" y="27" on="1"/>
        <pt x="95" y="512" on="1"/>
        <pt x="95" y="526" on="0"/>
        <pt x="114" y="545" on="0"/>
        <pt x="128" y="545" on="1"/>
        <pt x="132" y="545" on="1"/>
        <pt x="136" y="545" on="1"/>
        <pt x="405" y="545" on="1"/>
        <pt x="419" y="545" on="0"/>
        <pt x="438" y="526" on="0"/>
        <pt x="438" y="512" on="1"/>
        <pt x="438" y="498" on="0"/>
        <pt x="419" y="479" on="0"/>
        <pt x="405" y="479" on="1"/>
        <pt x="161" y="479" on="1"/>
        <pt x="161" y="321" on="1"/>
        <pt x="362" y="321" on="1"/>
        <pt x="376" y="321" on="0"/>
        <pt x="395" y="302" on="0"/>
        <pt x="395" y="288" on="1"/>
        <pt x="395" y="274" on="0"/>
        <pt x="376" y="255" on="0"/>
        <pt x="362" y="255" on="1"/>
        <pt x="161" y="255" on="1"/>
        <pt x="161" y="60" on="1"/>
        <pt x="407" y="60" on="1"/>
        <pt x="421" y="60" on="0"/>
        <pt x="440" y="41" on="0"/>
        <pt x="440" y="27" on="1"/>
        <pt x="440" y="13" on="0"/>
        <pt x="421" y="-6" on="0"/>
        <pt x="407" y="-6" on="1"/>
        <pt x="136" y="-6" on="1"/>
      </contour>
      <contour>
        <pt x="249" y="691" on="1"/>
        <pt x="249" y="682" on="0"/>
        <pt x="262" y="686" on="0"/>
        <pt x="264" y="686" on="1"/>
        <pt x="266" y="686" on="0"/>
        <pt x="276" y="685" on="0"/>
        <pt x="276" y="691" on="1"/>
        <pt x="276" y="696" on="0"/>
        <pt x="267" y="699" on="0"/>
        <pt x="264" y="699" on="1"/>
        <pt x="264" y="699" on="0"/>
        <pt x="255" y="699" on="1"/>
        <pt x="249" y="699" on="0"/>
      </contour>
      <contour>
        <pt x="210" y="691" on="1"/>
        <pt x="210" y="718" on="0"/>
        <pt x="243" y="752" on="0"/>
        <pt x="264" y="752" on="1"/>
        <pt x="282" y="752" on="0"/>
        <pt x="315" y="721" on="0"/>
        <pt x="315" y="691" on="1"/>
        <pt x="315" y="663" on="0"/>
        <pt x="284" y="633" on="0"/>
        <pt x="264" y="633" on="1"/>
        <pt x="241" y="633" on="0"/>
        <pt x="210" y="666" on="0"/>
      </contour>
    </TTGlyph>
    <TTGlyph name="Egrave" xMin="95" yMin="-6" xMax="440" yMax="766">
      <contour>
        <pt x="132" y="-6" on="1"/>
        <pt x="128" y="-6" on="1"/>
        <pt x="114" y="-6" on="0"/>
        <pt x="95" y="13" on="0"/>
        <pt x="95" y="27" on="1"/>
        <pt x="95" y="512" on="1"/>
        <pt x="95" y="526" on="0"/>
        <pt x="114" y="545" on="0"/>
        <pt x="128" y="545" on="1"/>
        <pt x="132" y="545" on="1"/>
        <pt x="136" y="545" on="1"/>
        <pt x="405" y="545" on="1"/>
        <pt x="419" y="545" on="0"/>
        <pt x="438" y="526" on="0"/>
        <pt x="438" y="512" on="1"/>
        <pt x="438" y="498" on="0"/>
        <pt x="419" y="479" on="0"/>
        <pt x="405" y="479" on="1"/>
        <pt x="161" y="479" on="1"/>
        <pt x="161" y="321" on="1"/>
        <pt x="362" y="321" on="1"/>
        <pt x="376" y="321" on="0"/>
        <pt x="395" y="302" on="0"/>
        <pt x="395" y="288" on="1"/>
        <pt x="395" y="274" on="0"/>
        <pt x="376" y="255" on="0"/>
        <pt x="362" y="255" on="1"/>
        <pt x="161" y="255" on="1"/>
        <pt x="161" y="60" on="1"/>
        <pt x="407" y="60" on="1"/>
        <pt x="421" y="60" on="0"/>
        <pt x="440" y="41" on="0"/>
        <pt x="440" y="27" on="1"/>
        <pt x="440" y="13" on="0"/>
        <pt x="421" y="-6" on="0"/>
        <pt x="407" y="-6" on="1"/>
        <pt x="136" y="-6" on="1"/>
      </contour>
      <contour>
        <pt x="132" y="746" on="1"/>
        <pt x="139" y="758" on="0"/>
        <pt x="165" y="766" on="0"/>
        <pt x="177" y="759" on="1"/>
        <pt x="191" y="751" on="0"/>
        <pt x="224" y="729" on="0"/>
        <pt x="257" y="706" on="0"/>
        <pt x="286" y="683" on="0"/>
        <pt x="297" y="675" on="1"/>
        <pt x="308" y="667" on="0"/>
        <pt x="311" y="640" on="0"/>
        <pt x="303" y="629" on="1"/>
        <pt x="295" y="618" on="0"/>
        <pt x="268" y="615" on="0"/>
        <pt x="257" y="623" on="1"/>
        <pt x="247" y="630" on="0"/>
        <pt x="220" y="651" on="0"/>
        <pt x="189" y="673" on="0"/>
        <pt x="158" y="694" on="0"/>
        <pt x="145" y="701" on="1"/>
        <pt x="133" y="708" on="0"/>
        <pt x="125" y="734" on="0"/>
      </contour>
    </TTGlyph>
    <TTGlyph name="Emacron" xMin="95" yMin="-6" xMax="440" yMax="721">
      <contour>
        <pt x="132" y="-6" on="1"/>
        <pt x="128" y="-6" on="1"/>
        <pt x="114" y="-6" on="0"/>
        <pt x="95" y="13" on="0"/>
        <pt x="95" y="27" on="1"/>
        <pt x="95" y="512" on="1"/>
        <pt x="95" y="526" on="0"/>
        <pt x="114" y="545" on="0"/>
        <pt x="128" y="545" on="1"/>
        <pt x="132" y="545" on="1"/>
        <pt x="136" y="545" on="1"/>
        <pt x="405" y="545" on="1"/>
        <pt x="419" y="545" on="0"/>
        <pt x="438" y="526" on="0"/>
        <pt x="438" y="512" on="1"/>
        <pt x="438" y="498" on="0"/>
        <pt x="419" y="479" on="0"/>
        <pt x="405" y="479" on="1"/>
        <pt x="161" y="479" on="1"/>
        <pt x="161" y="321" on="1"/>
        <pt x="362" y="321" on="1"/>
        <pt x="376" y="321" on="0"/>
        <pt x="395" y="302" on="0"/>
        <pt x="395" y="288" on="1"/>
        <pt x="395" y="274" on="0"/>
        <pt x="376" y="255" on="0"/>
        <pt x="362" y="255" on="1"/>
        <pt x="161" y="255" on="1"/>
        <pt x="161" y="60" on="1"/>
        <pt x="407" y="60" on="1"/>
        <pt x="421" y="60" on="0"/>
        <pt x="440" y="41" on="0"/>
        <pt x="440" y="27" on="1"/>
        <pt x="440" y="13" on="0"/>
        <pt x="421" y="-6" on="0"/>
        <pt x="407" y="-6" on="1"/>
        <pt x="136" y="-6" on="1"/>
      </contour>
      <contour>
        <pt x="399" y="688" on="1"/>
        <pt x="399" y="674" on="0"/>
        <pt x="380" y="655" on="0"/>
        <pt x="366" y="655" on="1"/>
        <pt x="137" y="655" on="1"/>
        <pt x="123" y="655" on="0"/>
        <pt x="104" y="674" on="0"/>
        <pt x="104" y="688" on="1"/>
        <pt x="104" y="702" on="0"/>
        <pt x="123" y="721" on="0"/>
        <pt x="137" y="721" on="1"/>
        <pt x="366" y="721" on="1"/>
        <pt x="380" y="721" on="0"/>
        <pt x="399" y="702" on="0"/>
      </contour>
    </TTGlyph>
    <TTGlyph name="Eogonek" xMin="95" yMin="-188" xMax="506" yMax="545">
      <contour>
        <pt x="419" y="-188" on="1"/>
        <pt x="398" y="-188" on="0"/>
        <pt x="354" y="-173" on="0"/>
        <pt x="337" y="-156" on="1"/>
        <pt x="307" y="-126" on="0"/>
        <pt x="307" y="-85" on="1"/>
        <pt x="307" y="-68" on="0"/>
        <pt x="317" y="-29" on="0"/>
        <pt x="332" y="-6" on="1"/>
        <pt x="136" y="-6" on="1"/>
        <pt x="132" y="-6" on="1"/>
        <pt x="128" y="-6" on="1"/>
        <pt x="114" y="-6" on="0"/>
        <pt x="95" y="13" on="0"/>
        <pt x="95" y="27" on="1"/>
        <pt x="95" y="512" on="1"/>
        <pt x="95" y="526" on="0"/>
        <pt x="114" y="545" on="0"/>
        <pt x="128" y="545" on="1"/>
        <pt x="132" y="545" on="1"/>
        <pt x="136" y="545" on="1"/>
        <pt x="405" y="545" on="1"/>
        <pt x="419" y="545" on="0"/>
        <pt x="438" y="526" on="0"/>
        <pt x="438" y="512" on="1"/>
        <pt x="438" y="498" on="0"/>
        <pt x="419" y="479" on="0"/>
        <pt x="405" y="479" on="1"/>
        <pt x="161" y="479" on="1"/>
        <pt x="161" y="321" on="1"/>
        <pt x="362" y="321" on="1"/>
        <pt x="376" y="321" on="0"/>
        <pt x="395" y="302" on="0"/>
        <pt x="395" y="288" on="1"/>
        <pt x="395" y="274" on="0"/>
        <pt x="376" y="255" on="0"/>
        <pt x="362" y="255" on="1"/>
        <pt x="161" y="255" on="1"/>
        <pt x="161" y="60" on="1"/>
        <pt x="407" y="60" on="1"/>
        <pt x="421" y="60" on="0"/>
        <pt x="440" y="41" on="0"/>
        <pt x="440" y="27" on="1"/>
        <pt x="440" y="17" on="0"/>
        <pt x="429" y="1" on="0"/>
        <pt x="421" y="-3" on="1"/>
        <pt x="394" y="-29" on="0"/>
        <pt x="373" y="-68" on="0"/>
        <pt x="373" y="-85" on="1"/>
        <pt x="373" y="-98" on="0"/>
        <pt x="383" y="-110" on="1"/>
        <pt x="391" y="-117" on="0"/>
        <pt x="410" y="-122" on="0"/>
        <pt x="419" y="-122" on="1"/>
        <pt x="430" y="-122" on="0"/>
        <pt x="452" y="-117" on="0"/>
        <pt x="460" y="-114" on="1"/>
        <pt x="473" y="-110" on="0"/>
        <pt x="497" y="-123" on="0"/>
        <pt x="502" y="-136" on="1"/>
        <pt x="506" y="-149" on="0"/>
        <pt x="493" y="-173" on="0"/>
        <pt x="480" y="-178" on="1"/>
        <pt x="468" y="-181" on="0"/>
        <pt x="436" y="-188" on="0"/>
      </contour>
    </TTGlyph>
    <TTGlyph name="Eth" xMin="21" yMin="-6" xMax="564" yMax="545">
      <contour>
        <pt x="128" y="-6" on="1"/>
        <pt x="114" y="-6" on="0"/>
        <pt x="95" y="13" on="0"/>
        <pt x="95" y="27" on="1"/>
        <pt x="95" y="241" on="1"/>
        <pt x="54" y="241" on="1"/>
        <pt x="40" y="241" on="0"/>
        <pt x="21" y="260" on="0"/>
        <pt x="21" y="274" on="1"/>
        <pt x="21" y="288" on="0"/>
        <pt x="40" y="307" on="0"/>
        <pt x="54" y="307" on="1"/>
        <pt x="95" y="307" on="1"/>
        <pt x="95" y="512" on="1"/>
        <pt x="95" y="526" on="0"/>
        <pt x="114" y="545" on="0"/>
        <pt x="128" y="545" on="1"/>
        <pt x="304" y="545" on="1"/>
        <pt x="355" y="545" on="0"/>
        <pt x="449" y="505" on="0"/>
        <pt x="521" y="432" on="0"/>
        <pt x="564" y="331" on="0"/>
        <pt x="564" y="270" on="1"/>
        <pt x="564" y="212" on="0"/>
        <pt x="527" y="111" on="0"/>
        <pt x="459" y="37" on="0"/>
        <pt x="363" y="-6" on="0"/>
        <pt x="304" y="-6" on="1"/>
      </contour>
      <contour>
        <pt x="161" y="241" on="1"/>
        <pt x="161" y="60" on="1"/>
        <pt x="304" y="60" on="1"/>
        <pt x="349" y="60" on="0"/>
        <pt x="420" y="93" on="0"/>
        <pt x="471" y="150" on="0"/>
        <pt x="498" y="227" on="0"/>
        <pt x="498" y="270" on="1"/>
        <pt x="498" y="315" on="0"/>
        <pt x="467" y="392" on="0"/>
        <pt x="413" y="448" on="0"/>
        <pt x="343" y="479" on="0"/>
        <pt x="304" y="479" on="1"/>
        <pt x="161" y="479" on="1"/>
        <pt x="161" y="307" on="1"/>
        <pt x="300" y="307" on="1"/>
        <pt x="314" y="307" on="0"/>
        <pt x="333" y="288" on="0"/>
        <pt x="333" y="274" on="1"/>
        <pt x="333" y="260" on="0"/>
        <pt x="314" y="241" on="0"/>
        <pt x="300" y="241" on="1"/>
      </contour>
    </TTGlyph>
    <TTGlyph name="Euro" xMin="47" yMin="-15" xMax="553" yMax="554">
      <contour>
        <pt x="390" y="-15" on="1"/>
        <pt x="290" y="-15" on="0"/>
        <pt x="160" y="78" on="0"/>
        <pt x="134" y="159" on="1"/>
        <pt x="80" y="159" on="1"/>
        <pt x="66" y="159" on="0"/>
        <pt x="47" y="178" on="0"/>
        <pt x="47" y="206" on="0"/>
        <pt x="66" y="225" on="0"/>
        <pt x="80" y="225" on="1"/>
        <pt x="121" y="225" on="1"/>
        <pt x="119" y="251" on="0"/>
        <pt x="119" y="281" on="0"/>
        <pt x="121" y="309" on="1"/>
        <pt x="80" y="309" on="1"/>
        <pt x="66" y="309" on="0"/>
        <pt x="47" y="328" on="0"/>
        <pt x="47" y="356" on="0"/>
        <pt x="66" y="375" on="0"/>
        <pt x="80" y="375" on="1"/>
        <pt x="136" y="375" on="1"/>
        <pt x="164" y="458" on="0"/>
        <pt x="297" y="554" on="0"/>
        <pt x="385" y="554" on="1"/>
        <pt x="472" y="554" on="0"/>
        <pt x="530" y="521" on="1"/>
        <pt x="541" y="514" on="0"/>
        <pt x="548" y="487" on="0"/>
        <pt x="542" y="475" on="1"/>
        <pt x="535" y="464" on="0"/>
        <pt x="508" y="457" on="0"/>
        <pt x="496" y="463" on="1"/>
        <pt x="454" y="488" on="0"/>
        <pt x="385" y="488" on="1"/>
        <pt x="325" y="488" on="0"/>
        <pt x="231" y="428" on="0"/>
        <pt x="207" y="375" on="1"/>
        <pt x="428" y="375" on="1"/>
        <pt x="442" y="375" on="0"/>
        <pt x="461" y="356" on="0"/>
        <pt x="461" y="328" on="0"/>
        <pt x="442" y="309" on="0"/>
        <pt x="428" y="309" on="1"/>
        <pt x="188" y="309" on="1"/>
        <pt x="185" y="288" on="0"/>
        <pt x="185" y="266" on="1"/>
        <pt x="185" y="245" on="0"/>
        <pt x="188" y="225" on="1"/>
        <pt x="428" y="225" on="1"/>
        <pt x="442" y="225" on="0"/>
        <pt x="461" y="206" on="0"/>
        <pt x="461" y="178" on="0"/>
        <pt x="442" y="159" on="0"/>
        <pt x="428" y="159" on="1"/>
        <pt x="206" y="159" on="1"/>
        <pt x="254" y="51" on="0"/>
        <pt x="390" y="51" on="1"/>
        <pt x="455" y="51" on="0"/>
        <pt x="501" y="77" on="1"/>
        <pt x="512" y="84" on="0"/>
        <pt x="539" y="76" on="0"/>
        <pt x="546" y="64" on="1"/>
        <pt x="553" y="53" on="0"/>
        <pt x="545" y="26" on="0"/>
        <pt x="533" y="19" on="1"/>
        <pt x="471" y="-15" on="0"/>
      </contour>
    </TTGlyph>
    <TTGlyph name="F" xMin="54" yMin="-4" xMax="264" yMax="653">
      <contour>
        <pt x="122" y="636" on="1"/>
        <pt x="123" y="536" on="0"/>
        <pt x="126" y="381" on="0"/>
        <pt x="130" y="238" on="0"/>
        <pt x="136" y="91" on="0"/>
        <pt x="139" y="0" on="1"/>
        <pt x="69" y="-4" on="1"/>
        <pt x="69" y="88" on="0"/>
        <pt x="68" y="237" on="0"/>
        <pt x="65" y="383" on="0"/>
        <pt x="59" y="542" on="0"/>
        <pt x="54" y="645" on="1"/>
      </contour>
      <contour>
        <pt x="262" y="653" on="1"/>
        <pt x="264" y="595" on="1"/>
        <pt x="75" y="591" on="1"/>
        <pt x="54" y="645" on="1"/>
      </contour>
      <contour>
        <pt x="244" y="366" on="1"/>
        <pt x="246" y="309" on="1"/>
        <pt x="94" y="304" on="1"/>
        <pt x="92" y="357" on="1"/>
      </contour>
    </TTGlyph>
    <TTGlyph name="G" xMin="29" yMin="-11" xMax="304" yMax="658">
      <contour>
        <pt x="257" y="587" on="1"/>
        <pt x="246" y="591" on="0"/>
        <pt x="214" y="603" on="0"/>
        <pt x="198" y="603" on="1"/>
        <pt x="166" y="603" on="0"/>
        <pt x="126" y="574" on="0"/>
        <pt x="103" y="510" on="0"/>
        <pt x="94" y="409" on="0"/>
        <pt x="94" y="337" on="1"/>
        <pt x="94" y="264" on="0"/>
        <pt x="101" y="166" on="0"/>
        <pt x="114" y="105" on="0"/>
        <pt x="132" y="72" on="0"/>
        <pt x="144" y="64" on="1"/>
        <pt x="152" y="58" on="0"/>
        <pt x="178" y="54" on="0"/>
        <pt x="206" y="59" on="0"/>
        <pt x="232" y="74" on="0"/>
        <pt x="241" y="86" on="1"/>
        <pt x="248" y="37" on="1"/>
        <pt x="236" y="19" on="0"/>
        <pt x="193" y="-4" on="0"/>
        <pt x="175" y="-4" on="1"/>
        <pt x="137" y="-4" on="0"/>
        <pt x="82" y="23" on="0"/>
        <pt x="46" y="95" on="0"/>
        <pt x="29" y="221" on="0"/>
        <pt x="29" y="319" on="1"/>
        <pt x="29" y="415" on="0"/>
        <pt x="45" y="544" on="0"/>
        <pt x="86" y="624" on="0"/>
        <pt x="154" y="658" on="0"/>
        <pt x="206" y="658" on="1"/>
        <pt x="228" y="658" on="0"/>
        <pt x="265" y="647" on="0"/>
        <pt x="275" y="636" on="1"/>
      </contour>
      <contour>
        <pt x="292" y="358" on="1"/>
        <pt x="292" y="307" on="0"/>
        <pt x="294" y="207" on="0"/>
        <pt x="298" y="115" on="0"/>
        <pt x="302" y="33" on="0"/>
        <pt x="304" y="0" on="1"/>
        <pt x="239" y="-11" on="1"/>
        <pt x="239" y="25" on="0"/>
        <pt x="237" y="110" on="0"/>
        <pt x="234" y="203" on="0"/>
        <pt x="230" y="297" on="0"/>
        <pt x="227" y="342" on="1"/>
      </contour>
      <contour>
        <pt x="292" y="358" on="1"/>
        <pt x="275" y="304" on="1"/>
        <pt x="181" y="295" on="1"/>
        <pt x="180" y="352" on="1"/>
      </contour>
    </TTGlyph>
    <TTGlyph name="Gbreve" xMin="53" yMin="-15" xMax="546" yMax="768">
      <contour>
        <pt x="529" y="39" on="1"/>
        <pt x="491" y="15" on="0"/>
        <pt x="396" y="-15" on="0"/>
        <pt x="332" y="-15" on="1"/>
        <pt x="266" y="-15" on="0"/>
        <pt x="162" y="29" on="0"/>
        <pt x="90" y="105" on="0"/>
        <pt x="53" y="207" on="0"/>
        <pt x="53" y="266" on="1"/>
        <pt x="53" y="331" on="0"/>
        <pt x="95" y="437" on="0"/>
        <pt x="170" y="513" on="0"/>
        <pt x="274" y="554" on="0"/>
        <pt x="335" y="554" on="1"/>
        <pt x="381" y="554" on="0"/>
        <pt x="458" y="539" on="0"/>
        <pt x="493" y="525" on="1"/>
        <pt x="505" y="520" on="0"/>
        <pt x="517" y="495" on="0"/>
        <pt x="512" y="482" on="1"/>
        <pt x="507" y="470" on="0"/>
        <pt x="482" y="458" on="0"/>
        <pt x="469" y="463" on="1"/>
        <pt x="440" y="474" on="0"/>
        <pt x="373" y="488" on="0"/>
        <pt x="335" y="488" on="1"/>
        <pt x="288" y="488" on="0"/>
        <pt x="209" y="456" on="0"/>
        <pt x="151" y="398" on="0"/>
        <pt x="119" y="316" on="0"/>
        <pt x="119" y="266" on="1"/>
        <pt x="119" y="221" on="0"/>
        <pt x="148" y="143" on="0"/>
        <pt x="202" y="85" on="0"/>
        <pt x="281" y="51" on="0"/>
        <pt x="332" y="51" on="1"/>
        <pt x="378" y="51" on="0"/>
        <pt x="450" y="70" on="0"/>
        <pt x="479" y="87" on="1"/>
        <pt x="479" y="218" on="1"/>
        <pt x="348" y="218" on="1"/>
        <pt x="334" y="218" on="0"/>
        <pt x="315" y="237" on="0"/>
        <pt x="315" y="251" on="1"/>
        <pt x="315" y="265" on="0"/>
        <pt x="334" y="284" on="0"/>
        <pt x="348" y="284" on="1"/>
        <pt x="501" y="284" on="1"/>
        <pt x="505" y="284" on="0"/>
        <pt x="507" y="283" on="1"/>
        <pt x="508" y="284" on="0"/>
        <pt x="512" y="284" on="1"/>
        <pt x="526" y="284" on="0"/>
        <pt x="545" y="265" on="0"/>
        <pt x="545" y="251" on="1"/>
        <pt x="545" y="77" on="1"/>
        <pt x="545" y="71" on="0"/>
        <pt x="544" y="68" on="1"/>
        <pt x="546" y="51" on="0"/>
      </contour>
      <contour>
        <pt x="177" y="759" on="1"/>
        <pt x="188" y="767" on="0"/>
        <pt x="215" y="764" on="0"/>
        <pt x="223" y="753" on="1"/>
        <pt x="240" y="731" on="0"/>
        <pt x="288" y="703" on="0"/>
        <pt x="316" y="703" on="1"/>
        <pt x="347" y="703" on="0"/>
        <pt x="390" y="730" on="0"/>
        <pt x="405" y="752" on="1"/>
        <pt x="413" y="763" on="0"/>
        <pt x="440" y="768" on="0"/>
        <pt x="451" y="760" on="1"/>
        <pt x="462" y="752" on="0"/>
        <pt x="467" y="725" on="0"/>
        <pt x="459" y="714" on="1"/>
        <pt x="435" y="679" on="0"/>
        <pt x="365" y="637" on="0"/>
        <pt x="316" y="637" on="1"/>
        <pt x="273" y="637" on="0"/>
        <pt x="197" y="679" on="0"/>
        <pt x="171" y="713" on="1"/>
        <pt x="163" y="724" on="0"/>
        <pt x="166" y="751" on="0"/>
      </contour>
    </TTGlyph>
    <TTGlyph name="H" xMin="40" yMin="-4" xMax="305" yMax="651">
      <contour>
        <pt x="107" y="651" on="1"/>
        <pt x="108" y="551" on="0"/>
        <pt x="110" y="391" on="0"/>
        <pt x="113" y="243" on="0"/>
        <pt x="117" y="91" on="0"/>
        <pt x="120" y="0" on="1"/>
        <pt x="51" y="-4" on="1"/>
        <pt x="51" y="-4" on="0"/>
        <pt x="51" y="162" on="1"/>
        <pt x="51" y="236" on="0"/>
        <pt x="49" y="382" on="0"/>
        <pt x="45" y="541" on="0"/>
        <pt x="40" y="644" on="1"/>
      </contour>
      <contour>
        <pt x="245" y="366" on="1"/>
        <pt x="247" y="309" on="1"/>
        <pt x="77" y="304" on="1"/>
        <pt x="75" y="357" on="1"/>
      </contour>
      <contour>
        <pt x="290" y="650" on="1"/>
        <pt x="290" y="550" on="0"/>
        <pt x="292" y="390" on="0"/>
        <pt x="296" y="242" on="0"/>
        <pt x="302" y="91" on="0"/>
        <pt x="305" y="0" on="1"/>
        <pt x="236" y="-4" on="1"/>
        <pt x="236" y="88" on="0"/>
        <pt x="234" y="237" on="0"/>
        <pt x="231" y="384" on="0"/>
        <pt x="226" y="544" on="0"/>
        <pt x="222" y="647" on="1"/>
      </contour>
    </TTGlyph>
    <TTGlyph name="I" xMin="40" yMin="-4" xMax="124" yMax="652">
      <contour>
        <pt x="107" y="652" on="1"/>
        <pt x="108" y="575" on="0"/>
        <pt x="110" y="452" on="0"/>
        <pt x="112" y="348" on="0"/>
        <pt x="115" y="257" on="0"/>
        <pt x="118" y="164" on="0"/>
        <pt x="122" y="63" on="0"/>
        <pt x="124" y="2" on="1"/>
        <pt x="55" y="-4" on="1"/>
        <pt x="55" y="88" on="0"/>
        <pt x="54" y="237" on="0"/>
        <pt x="51" y="383" on="0"/>
        <pt x="45" y="542" on="0"/>
        <pt x="40" y="645" on="1"/>
      </contour>
    </TTGlyph>
    <TTGlyph name="Iacute" xMin="90" yMin="-6" xMax="283" yMax="764">
      <contour>
        <pt x="133" y="545" on="1"/>
        <pt x="147" y="545" on="0"/>
        <pt x="166" y="526" on="0"/>
        <pt x="166" y="512" on="1"/>
        <pt x="166" y="27" on="1"/>
        <pt x="166" y="13" on="0"/>
        <pt x="147" y="-6" on="0"/>
        <pt x="133" y="-6" on="1"/>
        <pt x="119" y="-6" on="0"/>
        <pt x="100" y="13" on="0"/>
        <pt x="100" y="27" on="1"/>
        <pt x="100" y="512" on="1"/>
        <pt x="100" y="526" on="0"/>
        <pt x="119" y="545" on="0"/>
      </contour>
      <contour>
        <pt x="276" y="746" on="1"/>
        <pt x="283" y="734" on="0"/>
        <pt x="276" y="708" on="0"/>
        <pt x="265" y="701" on="1"/>
        <pt x="231" y="681" on="0"/>
        <pt x="166" y="639" on="0"/>
        <pt x="144" y="623" on="1"/>
        <pt x="133" y="615" on="0"/>
        <pt x="106" y="620" on="0"/>
        <pt x="98" y="631" on="1"/>
        <pt x="90" y="642" on="0"/>
        <pt x="95" y="669" on="0"/>
        <pt x="106" y="677" on="1"/>
        <pt x="128" y="693" on="0"/>
        <pt x="196" y="737" on="0"/>
        <pt x="231" y="757" on="1"/>
        <pt x="243" y="764" on="0"/>
        <pt x="269" y="757" on="0"/>
      </contour>
    </TTGlyph>
    <TTGlyph name="Icircumflex" xMin="-3" yMin="-6" xMax="264" yMax="760">
      <contour>
        <pt x="133" y="545" on="1"/>
        <pt x="147" y="545" on="0"/>
        <pt x="166" y="526" on="0"/>
        <pt x="166" y="512" on="1"/>
        <pt x="166" y="27" on="1"/>
        <pt x="166" y="13" on="0"/>
        <pt x="147" y="-6" on="0"/>
        <pt x="133" y="-6" on="1"/>
        <pt x="119" y="-6" on="0"/>
        <pt x="100" y="13" on="0"/>
        <pt x="100" y="27" on="1"/>
        <pt x="100" y="512" on="1"/>
        <pt x="100" y="526" on="0"/>
        <pt x="119" y="545" on="0"/>
      </contour>
      <contour>
        <pt x="51" y="632" on="1"/>
        <pt x="40" y="624" on="0"/>
        <pt x="13" y="627" on="0"/>
        <pt x="5" y="638" on="1"/>
        <pt x="-3" y="649" on="0"/>
        <pt x="0" y="676" on="0"/>
        <pt x="11" y="684" on="1"/>
        <pt x="32" y="700" on="0"/>
        <pt x="82" y="736" on="0"/>
        <pt x="108" y="754" on="1"/>
        <pt x="113" y="758" on="0"/>
        <pt x="124" y="760" on="0"/>
        <pt x="130" y="760" on="1"/>
        <pt x="136" y="760" on="0"/>
        <pt x="148" y="758" on="0"/>
        <pt x="153" y="754" on="1"/>
        <pt x="179" y="736" on="0"/>
        <pt x="229" y="701" on="0"/>
        <pt x="250" y="684" on="1"/>
        <pt x="261" y="676" on="0"/>
        <pt x="264" y="649" on="0"/>
        <pt x="256" y="638" on="1"/>
        <pt x="248" y="627" on="0"/>
        <pt x="221" y="624" on="0"/>
        <pt x="210" y="632" on="1"/>
        <pt x="192" y="645" on="0"/>
        <pt x="152" y="674" on="0"/>
        <pt x="131" y="689" on="1"/>
        <pt x="110" y="674" on="0"/>
        <pt x="69" y="646" on="0"/>
      </contour>
    </TTGlyph>
    <TTGlyph name="Idieresis" xMin="-11" yMin="-6" xMax="282" yMax="743">
      <contour>
        <pt x="133" y="545" on="1"/>
        <pt x="147" y="545" on="0"/>
        <pt x="166" y="526" on="0"/>
        <pt x="166" y="512" on="1"/>
        <pt x="166" y="27" on="1"/>
        <pt x="166" y="13" on="0"/>
        <pt x="147" y="-6" on="0"/>
        <pt x="133" y="-6" on="1"/>
        <pt x="119" y="-6" on="0"/>
        <pt x="100" y="13" on="0"/>
        <pt x="100" y="27" on="1"/>
        <pt x="100" y="512" on="1"/>
        <pt x="100" y="526" on="0"/>
        <pt x="119" y="545" on="0"/>
      </contour>
      <contour>
        <pt x="23" y="683" on="1"/>
        <pt x="23" y="677" on="0"/>
        <pt x="28" y="674" on="0"/>
        <pt x="34" y="674" on="0"/>
        <pt x="40" y="677" on="0"/>
        <pt x="41" y="677" on="1"/>
        <pt x="43" y="677" on="0"/>
        <pt x="55" y="675" on="0"/>
        <pt x="55" y="683" on="1"/>
        <pt x="55" y="691" on="0"/>
        <pt x="50" y="691" on="1"/>
        <pt x="41" y="691" on="1"/>
        <pt x="40" y="691" on="0"/>
        <pt x="34" y="693" on="0"/>
        <pt x="28" y="693" on="0"/>
        <pt x="23" y="689" on="0"/>
      </contour>
      <contour>
        <pt x="216" y="683" on="1"/>
        <pt x="216" y="677" on="0"/>
        <pt x="221" y="674" on="0"/>
        <pt x="227" y="674" on="0"/>
        <pt x="233" y="677" on="0"/>
        <pt x="234" y="677" on="1"/>
        <pt x="236" y="677" on="0"/>
        <pt x="249" y="675" on="0"/>
        <pt x="249" y="683" on="1"/>
        <pt x="249" y="692" on="0"/>
        <pt x="237" y="691" on="0"/>
        <pt x="234" y="691" on="1"/>
        <pt x="233" y="691" on="0"/>
        <pt x="227" y="693" on="0"/>
        <pt x="221" y="693" on="0"/>
        <pt x="216" y="689" on="0"/>
      </contour>
      <contour>
        <pt x="-11" y="683" on="1"/>
        <pt x="-11" y="710" on="0"/>
        <pt x="23" y="743" on="0"/>
        <pt x="41" y="743" on="1"/>
        <pt x="58" y="743" on="0"/>
        <pt x="89" y="715" on="0"/>
        <pt x="89" y="683" on="1"/>
        <pt x="89" y="649" on="0"/>
        <pt x="58" y="625" on="0"/>
        <pt x="41" y="625" on="1"/>
        <pt x="21" y="625" on="0"/>
        <pt x="-11" y="654" on="0"/>
      </contour>
      <contour>
        <pt x="183" y="683" on="1"/>
        <pt x="183" y="711" on="0"/>
        <pt x="216" y="743" on="0"/>
        <pt x="234" y="743" on="1"/>
        <pt x="251" y="743" on="0"/>
        <pt x="282" y="715" on="0"/>
        <pt x="282" y="683" on="1"/>
        <pt x="282" y="649" on="0"/>
        <pt x="251" y="625" on="0"/>
        <pt x="234" y="625" on="1"/>
        <pt x="214" y="625" on="0"/>
        <pt x="183" y="653" on="0"/>
      </contour>
    </TTGlyph>
    <TTGlyph name="Idotaccent" xMin="80" yMin="-6" xMax="185" yMax="752">
      <contour>
        <pt x="133" y="545" on="1"/>
        <pt x="147" y="545" on="0"/>
        <pt x="166" y="526" on="0"/>
        <pt x="166" y="512" on="1"/>
        <pt x="166" y="27" on="1"/>
        <pt x="166" y="13" on="0"/>
        <pt x="147" y="-6" on="0"/>
        <pt x="133" y="-6" on="1"/>
        <pt x="119" y="-6" on="0"/>
        <pt x="100" y="13" on="0"/>
        <pt x="100" y="27" on="1"/>
        <pt x="100" y="512" on="1"/>
        <pt x="100" y="526" on="0"/>
        <pt x="119" y="545" on="0"/>
      </contour>
      <contour>
        <pt x="119" y="691" on="1"/>
        <pt x="119" y="682" on="0"/>
        <pt x="132" y="686" on="0"/>
        <pt x="134" y="686" on="1"/>
        <pt x="136" y="686" on="0"/>
        <pt x="146" y="685" on="0"/>
        <pt x="146" y="691" on="1"/>
        <pt x="146" y="696" on="0"/>
        <pt x="137" y="699" on="0"/>
        <pt x="134" y="699" on="1"/>
        <pt x="134" y="699" on="0"/>
        <pt x="125" y="699" on="1"/>
        <pt x="119" y="699" on="0"/>
      </contour>
      <contour>
        <pt x="80" y="691" on="1"/>
        <pt x="80" y="718" on="0"/>
        <pt x="113" y="752" on="0"/>
        <pt x="134" y="752" on="1"/>
        <pt x="152" y="752" on="0"/>
        <pt x="185" y="721" on="0"/>
        <pt x="185" y="691" on="1"/>
        <pt x="185" y="663" on="0"/>
        <pt x="154" y="633" on="0"/>
        <pt x="134" y="633" on="1"/>
        <pt x="111" y="633" on="0"/>
        <pt x="80" y="666" on="0"/>
      </contour>
    </TTGlyph>
    <TTGlyph name="Igrave" xMin="-14" yMin="-6" xMax="172" yMax="766">
      <contour>
        <pt x="133" y="545" on="1"/>
        <pt x="147" y="545" on="0"/>
        <pt x="166" y="526" on="0"/>
        <pt x="166" y="512" on="1"/>
        <pt x="166" y="27" on="1"/>
        <pt x="166" y="13" on="0"/>
        <pt x="147" y="-6" on="0"/>
        <pt x="133" y="-6" on="1"/>
        <pt x="119" y="-6" on="0"/>
        <pt x="100" y="13" on="0"/>
        <pt x="100" y="27" on="1"/>
        <pt x="100" y="512" on="1"/>
        <pt x="100" y="526" on="0"/>
        <pt x="119" y="545" on="0"/>
      </contour>
      <contour>
        <pt x="-7" y="746" on="1"/>
        <pt x="0" y="758" on="0"/>
        <pt x="26" y="766" on="0"/>
        <pt x="38" y="759" on="1"/>
        <pt x="52" y="751" on="0"/>
        <pt x="85" y="729" on="0"/>
        <pt x="118" y="706" on="0"/>
        <pt x="147" y="683" on="0"/>
        <pt x="158" y="675" on="1"/>
        <pt x="169" y="667" on="0"/>
        <pt x="172" y="640" on="0"/>
        <pt x="164" y="629" on="1"/>
        <pt x="156" y="618" on="0"/>
        <pt x="129" y="615" on="0"/>
        <pt x="118" y="623" on="1"/>
        <pt x="108" y="630" on="0"/>
        <pt x="81" y="651" on="0"/>
        <pt x="50" y="673" on="0"/>
        <pt x="19" y="694" on="0"/>
        <pt x="6" y="701" on="1"/>
        <pt x="-6" y="708" on="0"/>
        <pt x="-14" y="734" on="0"/>
      </contour>
    </TTGlyph>
    <TTGlyph name="Imacron" xMin="14" yMin="-6" xMax="251" yMax="721">
      <contour>
        <pt x="133" y="545" on="1"/>
        <pt x="147" y="545" on="0"/>
        <pt x="166" y="526" on="0"/>
        <pt x="166" y="512" on="1"/>
        <pt x="166" y="27" on="1"/>
        <pt x="166" y="13" on="0"/>
        <pt x="147" y="-6" on="0"/>
        <pt x="133" y="-6" on="1"/>
        <pt x="119" y="-6" on="0"/>
        <pt x="100" y="13" on="0"/>
        <pt x="100" y="27" on="1"/>
        <pt x="100" y="512" on="1"/>
        <pt x="100" y="526" on="0"/>
        <pt x="119" y="545" on="0"/>
      </contour>
      <contour>
        <pt x="251" y="688" on="1"/>
        <pt x="251" y="674" on="0"/>
        <pt x="236" y="655" on="0"/>
        <pt x="225" y="655" on="1"/>
        <pt x="40" y="655" on="1"/>
        <pt x="29" y="655" on="0"/>
        <pt x="14" y="674" on="0"/>
        <pt x="14" y="688" on="1"/>
        <pt x="14" y="702" on="0"/>
        <pt x="29" y="721" on="0"/>
        <pt x="40" y="721" on="1"/>
        <pt x="225" y="721" on="1"/>
        <pt x="236" y="721" on="0"/>
        <pt x="251" y="702" on="0"/>
      </contour>
    </TTGlyph>
    <TTGlyph name="Iogonek" xMin="33" yMin="-188" xMax="232" yMax="545">
      <contour>
        <pt x="145" y="-188" on="1"/>
        <pt x="124" y="-188" on="0"/>
        <pt x="80" y="-173" on="0"/>
        <pt x="63" y="-156" on="1"/>
        <pt x="33" y="-126" on="0"/>
        <pt x="33" y="-85" on="1"/>
        <pt x="33" y="-60" on="0"/>
        <pt x="59" y="3" on="0"/>
        <pt x="100" y="43" on="1"/>
        <pt x="100" y="512" on="1"/>
        <pt x="100" y="526" on="0"/>
        <pt x="119" y="545" on="0"/>
        <pt x="133" y="545" on="1"/>
        <pt x="147" y="545" on="0"/>
        <pt x="166" y="526" on="0"/>
        <pt x="166" y="512" on="1"/>
        <pt x="166" y="27" on="1"/>
        <pt x="166" y="17" on="0"/>
        <pt x="155" y="1" on="0"/>
        <pt x="147" y="-3" on="1"/>
        <pt x="120" y="-29" on="0"/>
        <pt x="99" y="-68" on="0"/>
        <pt x="99" y="-85" on="1"/>
        <pt x="99" y="-98" on="0"/>
        <pt x="109" y="-110" on="1"/>
        <pt x="117" y="-117" on="0"/>
        <pt x="136" y="-122" on="0"/>
        <pt x="145" y="-122" on="1"/>
        <pt x="156" y="-122" on="0"/>
        <pt x="178" y="-117" on="0"/>
        <pt x="186" y="-114" on="1"/>
        <pt x="199" y="-110" on="0"/>
        <pt x="223" y="-123" on="0"/>
        <pt x="228" y="-136" on="1"/>
        <pt x="232" y="-149" on="0"/>
        <pt x="219" y="-173" on="0"/>
        <pt x="206" y="-178" on="1"/>
        <pt x="194" y="-181" on="0"/>
        <pt x="162" y="-188" on="0"/>
      </contour>
    </TTGlyph>
    <TTGlyph name="J" xMin="16" yMin="-4" xMax="220" yMax="653">
      <contour>
        <pt x="220" y="128" on="1"/>
        <pt x="220" y="88" on="0"/>
        <pt x="207" y="37" on="0"/>
        <pt x="182" y="7" on="0"/>
        <pt x="142" y="-4" on="0"/>
        <pt x="115" y="-4" on="1"/>
        <pt x="83" y="-4" on="0"/>
        <pt x="36" y="2" on="0"/>
        <pt x="16" y="7" on="1"/>
        <pt x="25" y="71" on="1"/>
        <pt x="51" y="65" on="0"/>
        <pt x="101" y="56" on="0"/>
        <pt x="119" y="56" on="1"/>
        <pt x="139" y="56" on="0"/>
        <pt x="158" y="85" on="0"/>
        <pt x="158" y="127" on="1"/>
        <pt x="158" y="165" on="0"/>
        <pt x="157" y="271" on="0"/>
        <pt x="154" y="403" on="0"/>
        <pt x="147" y="557" on="0"/>
        <pt x="142" y="643" on="1"/>
        <pt x="209" y="653" on="1"/>
        <pt x="210" y="581" on="0"/>
        <pt x="214" y="425" on="0"/>
        <pt x="218" y="281" on="0"/>
        <pt x="220" y="162" on="0"/>
      </contour>
    </TTGlyph>
    <TTGlyph name="K" xMin="51" yMin="-13" xMax="341" yMax="651">
      <contour>
        <pt x="117" y="649" on="1"/>
        <pt x="118" y="572" on="0"/>
        <pt x="120" y="450" on="0"/>
        <pt x="123" y="347" on="0"/>
        <pt x="126" y="257" on="0"/>
        <pt x="130" y="165" on="0"/>
        <pt x="134" y="65" on="0"/>
        <pt x="136" y="4" on="1"/>
        <pt x="68" y="-7" on="1"/>
        <pt x="68" y="85" on="0"/>
        <pt x="66" y="235" on="0"/>
        <pt x="63" y="382" on="0"/>
        <pt x="56" y="542" on="0"/>
        <pt x="51" y="645" on="1"/>
      </contour>
      <contour>
        <pt x="116" y="314" on="1"/>
        <pt x="129" y="336" on="0"/>
        <pt x="163" y="427" on="0"/>
        <pt x="197" y="529" on="0"/>
        <pt x="224" y="624" on="0"/>
        <pt x="230" y="651" on="1"/>
        <pt x="299" y="632" on="1"/>
        <pt x="285" y="599" on="0"/>
        <pt x="253" y="518" on="0"/>
        <pt x="220" y="435" on="0"/>
        <pt x="189" y="358" on="0"/>
        <pt x="177" y="330" on="1"/>
        <pt x="192" y="300" on="0"/>
        <pt x="234" y="217" on="0"/>
        <pt x="279" y="131" on="0"/>
        <pt x="324" y="50" on="0"/>
        <pt x="341" y="22" on="1"/>
        <pt x="280" y="-13" on="1"/>
        <pt x="269" y="8" on="0"/>
        <pt x="228" y="94" on="0"/>
        <pt x="180" y="191" on="0"/>
        <pt x="132" y="285" on="0"/>
      </contour>
    </TTGlyph>
    <TTGlyph name="L" xMin="54" yMin="-6" xMax="288" yMax="653">
      <contour>
        <pt x="122" y="653" on="1"/>
        <pt x="123" y="553" on="0"/>
        <pt x="125" y="396" on="0"/>
        <pt x="127" y="250" on="0"/>
        <pt x="130" y="101" on="0"/>
        <pt x="133" y="10" on="1"/>
        <pt x="68" y="-6" on="1"/>
        <pt x="68" y="86" on="0"/>
        <pt x="67" y="234" on="0"/>
        <pt x="65" y="380" on="0"/>
        <pt x="59" y="539" on="0"/>
        <pt x="54" y="642" on="1"/>
      </contour>
      <contour>
        <pt x="287" y="64" on="1"/>
        <pt x="288" y="0" on="1"/>
        <pt x="68" y="-6" on="1"/>
        <pt x="84" y="49" on="1"/>
      </contour>
    </TTGlyph>
    <TTGlyph name="Lacute" xMin="95" yMin="-6" xMax="442" yMax="754">
      <contour>
        <pt x="132" y="-6" on="1"/>
        <pt x="128" y="-6" on="1"/>
        <pt x="114" y="-6" on="0"/>
        <pt x="95" y="13" on="0"/>
        <pt x="95" y="27" on="1"/>
        <pt x="95" y="512" on="1"/>
        <pt x="95" y="526" on="0"/>
        <pt x="114" y="545" on="0"/>
        <pt x="128" y="545" on="1"/>
        <pt x="142" y="545" on="0"/>
        <pt x="161" y="526" on="0"/>
        <pt x="161" y="512" on="1"/>
        <pt x="161" y="60" on="1"/>
        <pt x="409" y="60" on="1"/>
        <pt x="423" y="60" on="0"/>
        <pt x="442" y="41" on="0"/>
        <pt x="442" y="27" on="1"/>
        <pt x="442" y="13" on="0"/>
        <pt x="423" y="-6" on="0"/>
        <pt x="409" y="-6" on="1"/>
        <pt x="136" y="-6" on="1"/>
      </contour>
      <contour>
        <pt x="382" y="736" on="1"/>
        <pt x="389" y="724" on="0"/>
        <pt x="382" y="698" on="0"/>
        <pt x="371" y="691" on="1"/>
        <pt x="337" y="671" on="0"/>
        <pt x="272" y="629" on="0"/>
        <pt x="250" y="613" on="1"/>
        <pt x="239" y="605" on="0"/>
        <pt x="212" y="610" on="0"/>
        <pt x="204" y="621" on="1"/>
        <pt x="196" y="632" on="0"/>
        <pt x="201" y="659" on="0"/>
        <pt x="212" y="667" on="1"/>
        <pt x="234" y="683" on="0"/>
        <pt x="302" y="727" on="0"/>
        <pt x="337" y="747" on="1"/>
        <pt x="349" y="754" on="0"/>
        <pt x="375" y="747" on="0"/>
      </contour>
    </TTGlyph>
    <TTGlyph name="Lcaron" xMin="95" yMin="-6" xMax="442" yMax="616">
      <contour>
        <pt x="132" y="-6" on="1"/>
        <pt x="128" y="-6" on="1"/>
        <pt x="114" y="-6" on="0"/>
        <pt x="95" y="13" on="0"/>
        <pt x="95" y="27" on="1"/>
        <pt x="95" y="512" on="1"/>
        <pt x="95" y="526" on="0"/>
        <pt x="114" y="545" on="0"/>
        <pt x="128" y="545" on="1"/>
        <pt x="142" y="545" on="0"/>
        <pt x="161" y="526" on="0"/>
        <pt x="161" y="512" on="1"/>
        <pt x="161" y="60" on="1"/>
        <pt x="409" y="60" on="1"/>
        <pt x="423" y="60" on="0"/>
        <pt x="442" y="41" on="0"/>
        <pt x="442" y="27" on="1"/>
        <pt x="442" y="13" on="0"/>
        <pt x="423" y="-6" on="0"/>
        <pt x="409" y="-6" on="1"/>
        <pt x="136" y="-6" on="1"/>
      </contour>
      <contour>
        <pt x="334" y="612" on="1"/>
        <pt x="346" y="616" on="0"/>
        <pt x="371" y="604" on="0"/>
        <pt x="375" y="591" on="1"/>
        <pt x="383" y="569" on="0"/>
        <pt x="383" y="532" on="1"/>
        <pt x="383" y="492" on="0"/>
        <pt x="357" y="416" on="0"/>
        <pt x="334" y="385" on="1"/>
        <pt x="326" y="374" on="0"/>
        <pt x="299" y="371" on="0"/>
        <pt x="288" y="379" on="1"/>
        <pt x="277" y="387" on="0"/>
        <pt x="274" y="414" on="0"/>
        <pt x="282" y="425" on="1"/>
        <pt x="298" y="447" on="0"/>
        <pt x="317" y="503" on="0"/>
        <pt x="317" y="532" on="1"/>
        <pt x="317" y="543" on="0"/>
        <pt x="315" y="563" on="0"/>
        <pt x="313" y="571" on="1"/>
        <pt x="308" y="583" on="0"/>
        <pt x="321" y="607" on="0"/>
      </contour>
    </TTGlyph>
    <TTGlyph name="Lslash" xMin="17" yMin="-6" xMax="442" yMax="545">
      <contour>
        <pt x="132" y="-6" on="1"/>
        <pt x="128" y="-6" on="1"/>
        <pt x="114" y="-6" on="0"/>
        <pt x="95" y="13" on="0"/>
        <pt x="95" y="27" on="1"/>
        <pt x="95" y="196" on="1"/>
        <pt x="70" y="179" on="1"/>
        <pt x="59" y="171" on="0"/>
        <pt x="32" y="178" on="0"/>
        <pt x="24" y="189" on="1"/>
        <pt x="17" y="200" on="0"/>
        <pt x="23" y="227" on="0"/>
        <pt x="34" y="235" on="1"/>
        <pt x="95" y="275" on="1"/>
        <pt x="95" y="512" on="1"/>
        <pt x="95" y="526" on="0"/>
        <pt x="114" y="545" on="0"/>
        <pt x="128" y="545" on="1"/>
        <pt x="142" y="545" on="0"/>
        <pt x="161" y="526" on="0"/>
        <pt x="161" y="512" on="1"/>
        <pt x="161" y="319" on="1"/>
        <pt x="249" y="377" on="1"/>
        <pt x="260" y="385" on="0"/>
        <pt x="287" y="378" on="0"/>
        <pt x="295" y="367" on="1"/>
        <pt x="302" y="356" on="0"/>
        <pt x="296" y="329" on="0"/>
        <pt x="285" y="321" on="1"/>
        <pt x="161" y="239" on="1"/>
        <pt x="161" y="60" on="1"/>
        <pt x="409" y="60" on="1"/>
        <pt x="423" y="60" on="0"/>
        <pt x="442" y="41" on="0"/>
        <pt x="442" y="27" on="1"/>
        <pt x="442" y="13" on="0"/>
        <pt x="423" y="-6" on="0"/>
        <pt x="409" y="-6" on="1"/>
        <pt x="136" y="-6" on="1"/>
      </contour>
    </TTGlyph>
    <TTGlyph name="M" xMin="30" yMin="-7" xMax="420" yMax="655">
      <contour>
        <pt x="333" y="510" on="1"/>
        <pt x="325" y="462" on="0"/>
        <pt x="304" y="339" on="0"/>
        <pt x="281" y="208" on="0"/>
        <pt x="260" y="80" on="0"/>
        <pt x="252" y="27" on="1"/>
        <pt x="191" y="24" on="1"/>
        <pt x="183" y="72" on="0"/>
        <pt x="156" y="200" on="0"/>
        <pt x="124" y="335" on="0"/>
        <pt x="94" y="463" on="0"/>
        <pt x="84" y="511" on="1"/>
        <pt x="85" y="469" on="0"/>
        <pt x="88" y="339" on="0"/>
        <pt x="91" y="196" on="0"/>
        <pt x="94" y="55" on="0"/>
        <pt x="97" y="2" on="1"/>
        <pt x="30" y="-3" on="1"/>
        <pt x="31" y="29" on="0"/>
        <pt x="34" y="129" on="0"/>
        <pt x="35" y="248" on="0"/>
        <pt x="35" y="312" on="1"/>
        <pt x="35" y="438" on="1"/>
        <pt x="35" y="500" on="0"/>
        <pt x="34" y="607" on="0"/>
        <pt x="33" y="644" on="1"/>
        <pt x="51" y="647" on="0"/>
        <pt x="101" y="653" on="0"/>
        <pt x="119" y="655" on="1"/>
        <pt x="122" y="632" on="0"/>
        <pt x="137" y="558" on="0"/>
        <pt x="156" y="468" on="0"/>
        <pt x="177" y="369" on="0"/>
        <pt x="198" y="274" on="0"/>
        <pt x="218" y="190" on="0"/>
        <pt x="225" y="159" on="1"/>
        <pt x="231" y="191" on="0"/>
        <pt x="247" y="282" on="0"/>
        <pt x="264" y="382" on="0"/>
        <pt x="280" y="483" on="0"/>
        <pt x="293" y="570" on="0"/>
        <pt x="303" y="634" on="0"/>
        <pt x="305" y="647" on="1"/>
        <pt x="384" y="653" on="1"/>
        <pt x="386" y="621" on="0"/>
        <pt x="391" y="523" on="0"/>
        <pt x="396" y="406" on="0"/>
        <pt x="402" y="278" on="0"/>
        <pt x="409" y="154" on="0"/>
        <pt x="416" y="44" on="0"/>
        <pt x="420" y="3" on="1"/>
        <pt x="349" y="-7" on="1"/>
        <pt x="349" y="41" on="0"/>
        <pt x="345" y="179" on="0"/>
        <pt x="339" y="324" on="0"/>
        <pt x="334" y="462" on="0"/>
      </contour>
    </TTGlyph>
    <TTGlyph name="N" xMin="40" yMin="-7" xMax="324" yMax="657">
      <contour>
        <pt x="233" y="-7" on="1"/>
        <pt x="226" y="25" on="0"/>
        <pt x="205" y="111" on="0"/>
        <pt x="181" y="207" on="0"/>
        <pt x="155" y="308" on="0"/>
        <pt x="129" y="404" on="0"/>
        <pt x="106" y="490" on="0"/>
        <pt x="97" y="522" on="1"/>
        <pt x="98" y="480" on="0"/>
        <pt x="103" y="347" on="0"/>
        <pt x="109" y="200" on="0"/>
        <pt x="114" y="55" on="0"/>
        <pt x="117" y="2" on="1"/>
        <pt x="49" y="-3" on="1"/>
        <pt x="50" y="29" on="0"/>
        <pt x="50" y="126" on="0"/>
        <pt x="49" y="242" on="0"/>
        <pt x="48" y="369" on="0"/>
        <pt x="45" y="491" on="0"/>
        <pt x="42" y="602" on="0"/>
        <pt x="40" y="644" on="1"/>
        <pt x="58" y="647" on="0"/>
        <pt x="113" y="653" on="0"/>
        <pt x="131" y="655" on="1"/>
        <pt x="136" y="632" on="0"/>
        <pt x="154" y="553" on="0"/>
        <pt x="178" y="457" on="0"/>
        <pt x="205" y="350" on="0"/>
        <pt x="231" y="249" on="0"/>
        <pt x="254" y="160" on="0"/>
        <pt x="262" y="129" on="1"/>
        <pt x="262" y="177" on="0"/>
        <pt x="258" y="287" on="0"/>
        <pt x="253" y="413" on="0"/>
        <pt x="245" y="559" on="0"/>
        <pt x="241" y="644" on="1"/>
        <pt x="312" y="657" on="1"/>
        <pt x="312" y="580" on="0"/>
        <pt x="313" y="457" on="0"/>
        <pt x="314" y="352" on="0"/>
        <pt x="316" y="260" on="0"/>
        <pt x="318" y="166" on="0"/>
        <pt x="322" y="65" on="0"/>
        <pt x="324" y="4" on="1"/>
      </contour>
    </TTGlyph>
    <TTGlyph name="Nacute" xMin="95" yMin="-6" xMax="550" yMax="744">
      <contour>
        <pt x="512" y="-6" on="1"/>
        <pt x="504" y="-6" on="0"/>
        <pt x="490" y="0" on="0"/>
        <pt x="485" y="7" on="1"/>
        <pt x="452" y="50" on="0"/>
        <pt x="369" y="158" on="0"/>
        <pt x="281" y="270" on="0"/>
        <pt x="195" y="379" on="0"/>
        <pt x="161" y="423" on="1"/>
        <pt x="161" y="27" on="1"/>
        <pt x="161" y="13" on="0"/>
        <pt x="142" y="-6" on="0"/>
        <pt x="128" y="-6" on="1"/>
        <pt x="114" y="-6" on="0"/>
        <pt x="95" y="13" on="0"/>
        <pt x="95" y="27" on="1"/>
        <pt x="95" y="512" on="1"/>
        <pt x="95" y="526" on="0"/>
        <pt x="114" y="545" on="0"/>
        <pt x="128" y="545" on="1"/>
        <pt x="133" y="545" on="1"/>
        <pt x="141" y="545" on="0"/>
        <pt x="155" y="539" on="0"/>
        <pt x="160" y="532" on="1"/>
        <pt x="184" y="500" on="0"/>
        <pt x="261" y="402" on="0"/>
        <pt x="350" y="289" on="0"/>
        <pt x="443" y="170" on="0"/>
        <pt x="484" y="117" on="1"/>
        <pt x="484" y="512" on="1"/>
        <pt x="484" y="526" on="0"/>
        <pt x="503" y="545" on="0"/>
        <pt x="517" y="545" on="1"/>
        <pt x="531" y="545" on="0"/>
        <pt x="550" y="526" on="0"/>
        <pt x="550" y="512" on="1"/>
        <pt x="550" y="27" on="1"/>
        <pt x="550" y="13" on="0"/>
        <pt x="531" y="-6" on="0"/>
        <pt x="517" y="-6" on="1"/>
      </contour>
      <contour>
        <pt x="481" y="726" on="1"/>
        <pt x="488" y="714" on="0"/>
        <pt x="481" y="688" on="0"/>
        <pt x="470" y="681" on="1"/>
        <pt x="436" y="661" on="0"/>
        <pt x="371" y="619" on="0"/>
        <pt x="349" y="603" on="1"/>
        <pt x="338" y="595" on="0"/>
        <pt x="311" y="600" on="0"/>
        <pt x="303" y="611" on="1"/>
        <pt x="295" y="622" on="0"/>
        <pt x="300" y="649" on="0"/>
        <pt x="311" y="657" on="1"/>
        <pt x="333" y="673" on="0"/>
        <pt x="401" y="717" on="0"/>
        <pt x="436" y="737" on="1"/>
        <pt x="448" y="744" on="0"/>
        <pt x="474" y="737" on="0"/>
      </contour>
    </TTGlyph>
    <TTGlyph name="Ncaron" xMin="95" yMin="-6" xMax="550" yMax="741">
      <contour>
        <pt x="512" y="-6" on="1"/>
        <pt x="504" y="-6" on="0"/>
        <pt x="490" y="0" on="0"/>
        <pt x="485" y="7" on="1"/>
        <pt x="452" y="50" on="0"/>
        <pt x="369" y="158" on="0"/>
        <pt x="281" y="270" on="0"/>
        <pt x="195" y="379" on="0"/>
        <pt x="161" y="423" on="1"/>
        <pt x="161" y="27" on="1"/>
        <pt x="161" y="13" on="0"/>
        <pt x="142" y="-6" on="0"/>
        <pt x="128" y="-6" on="1"/>
        <pt x="114" y="-6" on="0"/>
        <pt x="95" y="13" on="0"/>
        <pt x="95" y="27" on="1"/>
        <pt x="95" y="512" on="1"/>
        <pt x="95" y="526" on="0"/>
        <pt x="114" y="545" on="0"/>
        <pt x="128" y="545" on="1"/>
        <pt x="133" y="545" on="1"/>
        <pt x="141" y="545" on="0"/>
        <pt x="155" y="539" on="0"/>
        <pt x="160" y="532" on="1"/>
        <pt x="184" y="500" on="0"/>
        <pt x="261" y="402" on="0"/>
        <pt x="350" y="289" on="0"/>
        <pt x="443" y="170" on="0"/>
        <pt x="484" y="117" on="1"/>
        <pt x="484" y="512" on="1"/>
        <pt x="484" y="526" on="0"/>
        <pt x="503" y="545" on="0"/>
        <pt x="517" y="545" on="1"/>
        <pt x="531" y="545" on="0"/>
        <pt x="550" y="526" on="0"/>
        <pt x="550" y="512" on="1"/>
        <pt x="550" y="27" on="1"/>
        <pt x="550" y="13" on="0"/>
        <pt x="531" y="-6" on="0"/>
        <pt x="517" y="-6" on="1"/>
      </contour>
      <contour>
        <pt x="342" y="611" on="1"/>
        <pt x="337" y="607" on="0"/>
        <pt x="326" y="605" on="0"/>
        <pt x="320" y="605" on="1"/>
        <pt x="314" y="605" on="0"/>
        <pt x="302" y="607" on="0"/>
        <pt x="297" y="611" on="1"/>
        <pt x="271" y="629" on="0"/>
        <pt x="221" y="664" on="0"/>
        <pt x="200" y="681" on="1"/>
        <pt x="189" y="689" on="0"/>
        <pt x="186" y="716" on="0"/>
        <pt x="194" y="727" on="1"/>
        <pt x="202" y="738" on="0"/>
        <pt x="229" y="741" on="0"/>
        <pt x="240" y="733" on="1"/>
        <pt x="258" y="720" on="0"/>
        <pt x="298" y="691" on="0"/>
        <pt x="319" y="676" on="1"/>
        <pt x="340" y="691" on="0"/>
        <pt x="381" y="719" on="0"/>
        <pt x="399" y="733" on="1"/>
        <pt x="410" y="741" on="0"/>
        <pt x="437" y="738" on="0"/>
        <pt x="445" y="727" on="1"/>
        <pt x="453" y="716" on="0"/>
        <pt x="450" y="689" on="0"/>
        <pt x="439" y="681" on="1"/>
        <pt x="418" y="665" on="0"/>
        <pt x="368" y="629" on="0"/>
      </contour>
    </TTGlyph>
    <TTGlyph name="Ntilde" xMin="95" yMin="-6" xMax="550" yMax="732">
      <contour>
        <pt x="512" y="-6" on="1"/>
        <pt x="504" y="-6" on="0"/>
        <pt x="490" y="0" on="0"/>
        <pt x="485" y="7" on="1"/>
        <pt x="452" y="50" on="0"/>
        <pt x="369" y="158" on="0"/>
        <pt x="281" y="270" on="0"/>
        <pt x="195" y="379" on="0"/>
        <pt x="161" y="423" on="1"/>
        <pt x="161" y="27" on="1"/>
        <pt x="161" y="13" on="0"/>
        <pt x="142" y="-6" on="0"/>
        <pt x="128" y="-6" on="1"/>
        <pt x="114" y="-6" on="0"/>
        <pt x="95" y="13" on="0"/>
        <pt x="95" y="27" on="1"/>
        <pt x="95" y="512" on="1"/>
        <pt x="95" y="526" on="0"/>
        <pt x="114" y="545" on="0"/>
        <pt x="128" y="545" on="1"/>
        <pt x="133" y="545" on="1"/>
        <pt x="141" y="545" on="0"/>
        <pt x="155" y="539" on="0"/>
        <pt x="160" y="532" on="1"/>
        <pt x="184" y="500" on="0"/>
        <pt x="261" y="402" on="0"/>
        <pt x="350" y="289" on="0"/>
        <pt x="443" y="170" on="0"/>
        <pt x="484" y="117" on="1"/>
        <pt x="484" y="512" on="1"/>
        <pt x="484" y="526" on="0"/>
        <pt x="503" y="545" on="0"/>
        <pt x="517" y="545" on="1"/>
        <pt x="531" y="545" on="0"/>
        <pt x="550" y="526" on="0"/>
        <pt x="550" y="512" on="1"/>
        <pt x="550" y="27" on="1"/>
        <pt x="550" y="13" on="0"/>
        <pt x="531" y="-6" on="0"/>
        <pt x="517" y="-6" on="1"/>
      </contour>
      <contour>
        <pt x="167" y="626" on="1"/>
        <pt x="157" y="634" on="0"/>
        <pt x="154" y="662" on="0"/>
        <pt x="162" y="673" on="1"/>
        <pt x="186" y="702" on="0"/>
        <pt x="232" y="729" on="0"/>
        <pt x="257" y="729" on="1"/>
        <pt x="281" y="729" on="0"/>
        <pt x="315" y="712" on="0"/>
        <pt x="334" y="697" on="1"/>
        <pt x="344" y="691" on="0"/>
        <pt x="362" y="681" on="0"/>
        <pt x="373" y="681" on="1"/>
        <pt x="389" y="681" on="0"/>
        <pt x="409" y="701" on="0"/>
        <pt x="422" y="718" on="1"/>
        <pt x="430" y="729" on="0"/>
        <pt x="457" y="732" on="0"/>
        <pt x="468" y="724" on="1"/>
        <pt x="479" y="716" on="0"/>
        <pt x="482" y="689" on="0"/>
        <pt x="474" y="678" on="1"/>
        <pt x="448" y="643" on="0"/>
        <pt x="404" y="615" on="0"/>
        <pt x="373" y="615" on="1"/>
        <pt x="351" y="615" on="0"/>
        <pt x="314" y="630" on="0"/>
        <pt x="294" y="645" on="1"/>
        <pt x="284" y="653" on="0"/>
        <pt x="269" y="663" on="0"/>
        <pt x="257" y="663" on="1"/>
        <pt x="244" y="663" on="0"/>
        <pt x="225" y="645" on="0"/>
        <pt x="214" y="631" on="1"/>
        <pt x="206" y="621" on="0"/>
        <pt x="178" y="618" on="0"/>
      </contour>
    </TTGlyph>
    <TTGlyph name="O" xMin="35" yMin="-10" xMax="320" yMax="658">
      <contour>
        <pt x="179" y="658" on="1"/>
        <pt x="225" y="658" on="0"/>
        <pt x="280" y="607" on="0"/>
        <pt x="310" y="512" on="0"/>
        <pt x="320" y="375" on="0"/>
        <pt x="320" y="289" on="1"/>
        <pt x="320" y="227" on="0"/>
        <pt x="310" y="118" on="0"/>
        <pt x="279" y="37" on="0"/>
        <pt x="221" y="-10" on="0"/>
        <pt x="173" y="-10" on="1"/>
        <pt x="136" y="-10" on="0"/>
        <pt x="83" y="25" on="0"/>
        <pt x="50" y="102" on="0"/>
        <pt x="35" y="224" on="0"/>
        <pt x="35" y="310" on="1"/>
        <pt x="35" y="400" on="0"/>
        <pt x="48" y="531" on="0"/>
        <pt x="81" y="617" on="0"/>
        <pt x="136" y="658" on="0"/>
      </contour>
      <contour>
        <pt x="253" y="319" on="1"/>
        <pt x="253" y="404" on="0"/>
        <pt x="243" y="513" on="0"/>
        <pt x="223" y="576" on="0"/>
        <pt x="194" y="600" on="0"/>
        <pt x="175" y="600" on="1"/>
        <pt x="130" y="600" on="0"/>
        <pt x="100" y="461" on="0"/>
        <pt x="100" y="321" on="1"/>
        <pt x="100" y="244" on="0"/>
        <pt x="109" y="140" on="0"/>
        <pt x="130" y="77" on="0"/>
        <pt x="162" y="49" on="0"/>
        <pt x="186" y="49" on="1"/>
        <pt x="204" y="49" on="0"/>
        <pt x="230" y="79" on="0"/>
        <pt x="246" y="143" on="0"/>
        <pt x="253" y="246" on="0"/>
      </contour>
    </TTGlyph>
    <TTGlyph name="OE" xMin="53" yMin="-6" xMax="729" yMax="545">
      <contour>
        <pt x="384" y="60" on="1"/>
        <pt x="384" y="479" on="1"/>
        <pt x="322" y="479" on="1"/>
        <pt x="276" y="479" on="0"/>
        <pt x="201" y="448" on="0"/>
        <pt x="148" y="392" on="0"/>
        <pt x="119" y="314" on="0"/>
        <pt x="119" y="267" on="1"/>
        <pt x="119" y="224" on="0"/>
        <pt x="149" y="148" on="0"/>
        <pt x="202" y="92" on="0"/>
        <pt x="277" y="60" on="0"/>
        <pt x="322" y="60" on="1"/>
      </contour>
      <contour>
        <pt x="322" y="-6" on="1"/>
        <pt x="263" y="-6" on="0"/>
        <pt x="164" y="36" on="0"/>
        <pt x="93" y="110" on="0"/>
        <pt x="53" y="210" on="0"/>
        <pt x="53" y="267" on="1"/>
        <pt x="53" y="329" on="0"/>
        <pt x="92" y="431" on="0"/>
        <pt x="163" y="505" on="0"/>
        <pt x="262" y="545" on="0"/>
        <pt x="322" y="545" on="1"/>
        <pt x="694" y="545" on="1"/>
        <pt x="708" y="545" on="0"/>
        <pt x="727" y="526" on="0"/>
        <pt x="727" y="512" on="1"/>
        <pt x="727" y="498" on="0"/>
        <pt x="708" y="479" on="0"/>
        <pt x="694" y="479" on="1"/>
        <pt x="450" y="479" on="1"/>
        <pt x="450" y="321" on="1"/>
        <pt x="651" y="321" on="1"/>
        <pt x="665" y="321" on="0"/>
        <pt x="684" y="302" on="0"/>
        <pt x="684" y="288" on="1"/>
        <pt x="684" y="274" on="0"/>
        <pt x="665" y="255" on="0"/>
        <pt x="651" y="255" on="1"/>
        <pt x="450" y="255" on="1"/>
        <pt x="450" y="60" on="1"/>
        <pt x="696" y="60" on="1"/>
        <pt x="710" y="60" on="0"/>
        <pt x="729" y="41" on="0"/>
        <pt x="729" y="27" on="1"/>
        <pt x="729" y="13" on="0"/>
        <pt x="710" y="-6" on="0"/>
        <pt x="696" y="-6" on="1"/>
      </contour>
    </TTGlyph>
    <TTGlyph name="Oacute" xMin="53" yMin="-15" xMax="587" yMax="764">
      <contour>
        <pt x="521" y="269" on="1"/>
        <pt x="521" y="317" on="0"/>
        <pt x="490" y="397" on="0"/>
        <pt x="437" y="455" on="0"/>
        <pt x="364" y="488" on="0"/>
        <pt x="322" y="488" on="1"/>
        <pt x="276" y="488" on="0"/>
        <pt x="201" y="455" on="0"/>
        <pt x="148" y="396" on="0"/>
        <pt x="119" y="315" on="0"/>
        <pt x="119" y="266" on="1"/>
        <pt x="119" y="221" on="0"/>
        <pt x="148" y="143" on="0"/>
        <pt x="202" y="85" on="0"/>
        <pt x="277" y="51" on="0"/>
        <pt x="322" y="51" on="1"/>
        <pt x="370" y="51" on="0"/>
        <pt x="444" y="85" on="0"/>
        <pt x="495" y="144" on="0"/>
        <pt x="521" y="224" on="0"/>
      </contour>
      <contour>
        <pt x="53" y="266" on="1"/>
        <pt x="53" y="330" on="0"/>
        <pt x="92" y="437" on="0"/>
        <pt x="163" y="512" on="0"/>
        <pt x="262" y="554" on="0"/>
        <pt x="322" y="554" on="1"/>
        <pt x="377" y="554" on="0"/>
        <pt x="473" y="512" on="0"/>
        <pt x="545" y="437" on="0"/>
        <pt x="587" y="332" on="0"/>
        <pt x="587" y="269" on="1"/>
        <pt x="587" y="209" on="0"/>
        <pt x="551" y="105" on="0"/>
        <pt x="483" y="28" on="0"/>
        <pt x="384" y="-15" on="0"/>
        <pt x="322" y="-15" on="1"/>
        <pt x="263" y="-15" on="0"/>
        <pt x="164" y="29" on="0"/>
        <pt x="93" y="105" on="0"/>
        <pt x="53" y="207" on="0"/>
      </contour>
      <contour>
        <pt x="463" y="746" on="1"/>
        <pt x="470" y="734" on="0"/>
        <pt x="463" y="708" on="0"/>
        <pt x="452" y="701" on="1"/>
        <pt x="418" y="681" on="0"/>
        <pt x="353" y="639" on="0"/>
        <pt x="331" y="623" on="1"/>
        <pt x="320" y="615" on="0"/>
        <pt x="293" y="620" on="0"/>
        <pt x="285" y="631" on="1"/>
        <pt x="277" y="642" on="0"/>
        <pt x="282" y="669" on="0"/>
        <pt x="293" y="677" on="1"/>
        <pt x="315" y="693" on="0"/>
        <pt x="383" y="737" on="0"/>
        <pt x="418" y="757" on="1"/>
        <pt x="430" y="764" on="0"/>
        <pt x="456" y="757" on="0"/>
      </contour>
    </TTGlyph>
    <TTGlyph name="Ocircumflex" xMin="53" yMin="-15" xMax="587" yMax="750">
      <contour>
        <pt x="521" y="269" on="1"/>
        <pt x="521" y="317" on="0"/>
        <pt x="490" y="397" on="0"/>
        <pt x="437" y="455" on="0"/>
        <pt x="364" y="488" on="0"/>
        <pt x="322" y="488" on="1"/>
        <pt x="276" y="488" on="0"/>
        <pt x="201" y="455" on="0"/>
        <pt x="148" y="396" on="0"/>
        <pt x="119" y="315" on="0"/>
        <pt x="119" y="266" on="1"/>
        <pt x="119" y="221" on="0"/>
        <pt x="148" y="143" on="0"/>
        <pt x="202" y="85" on="0"/>
        <pt x="277" y="51" on="0"/>
        <pt x="322" y="51" on="1"/>
        <pt x="370" y="51" on="0"/>
        <pt x="444" y="85" on="0"/>
        <pt x="495" y="144" on="0"/>
        <pt x="521" y="224" on="0"/>
      </contour>
      <contour>
        <pt x="53" y="266" on="1"/>
        <pt x="53" y="330" on="0"/>
        <pt x="92" y="437" on="0"/>
        <pt x="163" y="512" on="0"/>
        <pt x="262" y="554" on="0"/>
        <pt x="322" y="554" on="1"/>
        <pt x="377" y="554" on="0"/>
        <pt x="473" y="512" on="0"/>
        <pt x="545" y="437" on="0"/>
        <pt x="587" y="332" on="0"/>
        <pt x="587" y="269" on="1"/>
        <pt x="587" y="209" on="0"/>
        <pt x="551" y="105" on="0"/>
        <pt x="483" y="28" on="0"/>
        <pt x="384" y="-15" on="0"/>
        <pt x="322" y="-15" on="1"/>
        <pt x="263" y="-15" on="0"/>
        <pt x="164" y="29" on="0"/>
        <pt x="93" y="105" on="0"/>
        <pt x="53" y="207" on="0"/>
      </contour>
      <contour>
        <pt x="239" y="622" on="1"/>
        <pt x="228" y="614" on="0"/>
        <pt x="201" y="617" on="0"/>
        <pt x="193" y="628" on="1"/>
        <pt x="185" y="639" on="0"/>
        <pt x="188" y="666" on="0"/>
        <pt x="199" y="674" on="1"/>
        <pt x="220" y="690" on="0"/>
        <pt x="270" y="726" on="0"/>
        <pt x="296" y="744" on="1"/>
        <pt x="301" y="748" on="0"/>
        <pt x="312" y="750" on="0"/>
        <pt x="318" y="750" on="1"/>
        <pt x="324" y="750" on="0"/>
        <pt x="336" y="748" on="0"/>
        <pt x="341" y="744" on="1"/>
        <pt x="367" y="726" on="0"/>
        <pt x="417" y="691" on="0"/>
        <pt x="438" y="674" on="1"/>
        <pt x="449" y="666" on="0"/>
        <pt x="452" y="639" on="0"/>
        <pt x="444" y="628" on="1"/>
        <pt x="436" y="617" on="0"/>
        <pt x="409" y="614" on="0"/>
        <pt x="398" y="622" on="1"/>
        <pt x="380" y="635" on="0"/>
        <pt x="340" y="664" on="0"/>
        <pt x="319" y="679" on="1"/>
        <pt x="298" y="664" on="0"/>
        <pt x="257" y="636" on="0"/>
      </contour>
    </TTGlyph>
    <TTGlyph name="Odieresis" xMin="53" yMin="-15" xMax="587" yMax="743">
      <contour>
        <pt x="521" y="269" on="1"/>
        <pt x="521" y="317" on="0"/>
        <pt x="490" y="397" on="0"/>
        <pt x="437" y="455" on="0"/>
        <pt x="364" y="488" on="0"/>
        <pt x="322" y="488" on="1"/>
        <pt x="276" y="488" on="0"/>
        <pt x="201" y="455" on="0"/>
        <pt x="148" y="396" on="0"/>
        <pt x="119" y="315" on="0"/>
        <pt x="119" y="266" on="1"/>
        <pt x="119" y="221" on="0"/>
        <pt x="148" y="143" on="0"/>
        <pt x="202" y="85" on="0"/>
        <pt x="277" y="51" on="0"/>
        <pt x="322" y="51" on="1"/>
        <pt x="370" y="51" on="0"/>
        <pt x="444" y="85" on="0"/>
        <pt x="495" y="144" on="0"/>
        <pt x="521" y="224" on="0"/>
      </contour>
      <contour>
        <pt x="53" y="266" on="1"/>
        <pt x="53" y="330" on="0"/>
        <pt x="92" y="437" on="0"/>
        <pt x="163" y="512" on="0"/>
        <pt x="262" y="554" on="0"/>
        <pt x="322" y="554" on="1"/>
        <pt x="377" y="554" on="0"/>
        <pt x="473" y="512" on="0"/>
        <pt x="545" y="437" on="0"/>
        <pt x="587" y="332" on="0"/>
        <pt x="587" y="269" on="1"/>
        <pt x="587" y="209" on="0"/>
        <pt x="551" y="105" on="0"/>
        <pt x="483" y="28" on="0"/>
        <pt x="384" y="-15" on="0"/>
        <pt x="322" y="-15" on="1"/>
        <pt x="263" y="-15" on="0"/>
        <pt x="164" y="29" on="0"/>
        <pt x="93" y="105" on="0"/>
        <pt x="53" y="207" on="0"/>
      </contour>
      <contour>
        <pt x="208" y="683" on="1"/>
        <pt x="208" y="677" on="0"/>
        <pt x="213" y="674" on="0"/>
        <pt x="219" y="674" on="0"/>
        <pt x="225" y="677" on="0"/>
        <pt x="226" y="677" on="1"/>
        <pt x="228" y="677" on="0"/>
        <pt x="240" y="675" on="0"/>
        <pt x="240" y="683" on="1"/>
        <pt x="240" y="691" on="0"/>
        <pt x="234" y="691" on="1"/>
        <pt x="226" y="691" on="1"/>
        <pt x="225" y="691" on="0"/>
        <pt x="219" y="693" on="0"/>
        <pt x="213" y="693" on="0"/>
        <pt x="208" y="689" on="0"/>
      </contour>
      <contour>
        <pt x="401" y="683" on="1"/>
        <pt x="401" y="677" on="0"/>
        <pt x="406" y="674" on="0"/>
        <pt x="412" y="674" on="0"/>
        <pt x="418" y="677" on="0"/>
        <pt x="419" y="677" on="1"/>
        <pt x="421" y="677" on="0"/>
        <pt x="434" y="675" on="0"/>
        <pt x="434" y="683" on="1"/>
        <pt x="434" y="692" on="0"/>
        <pt x="422" y="691" on="0"/>
        <pt x="419" y="691" on="1"/>
        <pt x="418" y="691" on="0"/>
        <pt x="412" y="693" on="0"/>
        <pt x="406" y="693" on="0"/>
        <pt x="401" y="689" on="0"/>
      </contour>
      <contour>
        <pt x="174" y="683" on="1"/>
        <pt x="174" y="710" on="0"/>
        <pt x="208" y="743" on="0"/>
        <pt x="226" y="743" on="1"/>
        <pt x="243" y="743" on="0"/>
        <pt x="274" y="715" on="0"/>
        <pt x="274" y="683" on="1"/>
        <pt x="274" y="649" on="0"/>
        <pt x="243" y="625" on="0"/>
        <pt x="226" y="625" on="1"/>
        <pt x="206" y="625" on="0"/>
        <pt x="174" y="654" on="0"/>
      </contour>
      <contour>
        <pt x="368" y="683" on="1"/>
        <pt x="368" y="711" on="0"/>
        <pt x="401" y="743" on="0"/>
        <pt x="419" y="743" on="1"/>
        <pt x="436" y="743" on="0"/>
        <pt x="467" y="715" on="0"/>
        <pt x="467" y="683" on="1"/>
        <pt x="467" y="649" on="0"/>
        <pt x="436" y="625" on="0"/>
        <pt x="419" y="625" on="1"/>
        <pt x="399" y="625" on="0"/>
        <pt x="368" y="653" on="0"/>
      </contour>
    </TTGlyph>
    <TTGlyph name="Ograve" xMin="53" yMin="-15" xMax="587" yMax="766">
      <contour>
        <pt x="521" y="269" on="1"/>
        <pt x="521" y="317" on="0"/>
        <pt x="490" y="397" on="0"/>
        <pt x="437" y="455" on="0"/>
        <pt x="364" y="488" on="0"/>
        <pt x="322" y="488" on="1"/>
        <pt x="276" y="488" on="0"/>
        <pt x="201" y="455" on="0"/>
        <pt x="148" y="396" on="0"/>
        <pt x="119" y="315" on="0"/>
        <pt x="119" y="266" on="1"/>
        <pt x="119" y="221" on="0"/>
        <pt x="148" y="143" on="0"/>
        <pt x="202" y="85" on="0"/>
        <pt x="277" y="51" on="0"/>
        <pt x="322" y="51" on="1"/>
        <pt x="370" y="51" on="0"/>
        <pt x="444" y="85" on="0"/>
        <pt x="495" y="144" on="0"/>
        <pt x="521" y="224" on="0"/>
      </contour>
      <contour>
        <pt x="53" y="266" on="1"/>
        <pt x="53" y="330" on="0"/>
        <pt x="92" y="437" on="0"/>
        <pt x="163" y="512" on="0"/>
        <pt x="262" y="554" on="0"/>
        <pt x="322" y="554" on="1"/>
        <pt x="377" y="554" on="0"/>
        <pt x="473" y="512" on="0"/>
        <pt x="545" y="437" on="0"/>
        <pt x="587" y="332" on="0"/>
        <pt x="587" y="269" on="1"/>
        <pt x="587" y="209" on="0"/>
        <pt x="551" y="105" on="0"/>
        <pt x="483" y="28" on="0"/>
        <pt x="384" y="-15" on="0"/>
        <pt x="322" y="-15" on="1"/>
        <pt x="263" y="-15" on="0"/>
        <pt x="164" y="29" on="0"/>
        <pt x="93" y="105" on="0"/>
        <pt x="53" y="207" on="0"/>
      </contour>
      <contour>
        <pt x="171" y="746" on="1"/>
        <pt x="178" y="758" on="0"/>
        <pt x="204" y="766" on="0"/>
        <pt x="216" y="759" on="1"/>
        <pt x="230" y="751" on="0"/>
        <pt x="263" y="729" on="0"/>
        <pt x="296" y="706" on="0"/>
        <pt x="325" y="683" on="0"/>
        <pt x="336" y="675" on="1"/>
        <pt x="347" y="667" on="0"/>
        <pt x="350" y="640" on="0"/>
        <pt x="342" y="629" on="1"/>
        <pt x="334" y="618" on="0"/>
        <pt x="307" y="615" on="0"/>
        <pt x="296" y="623" on="1"/>
        <pt x="286" y="630" on="0"/>
        <pt x="259" y="651" on="0"/>
        <pt x="228" y="673" on="0"/>
        <pt x="197" y="694" on="0"/>
        <pt x="184" y="701" on="1"/>
        <pt x="172" y="708" on="0"/>
        <pt x="164" y="734" on="0"/>
      </contour>
    </TTGlyph>
    <TTGlyph name="Ohungarumlaut" xMin="53" yMin="-15" xMax="587" yMax="779">
      <contour>
        <pt x="521" y="269" on="1"/>
        <pt x="521" y="317" on="0"/>
        <pt x="490" y="397" on="0"/>
        <pt x="437" y="455" on="0"/>
        <pt x="364" y="488" on="0"/>
        <pt x="322" y="488" on="1"/>
        <pt x="276" y="488" on="0"/>
        <pt x="201" y="455" on="0"/>
        <pt x="148" y="396" on="0"/>
        <pt x="119" y="315" on="0"/>
        <pt x="119" y="266" on="1"/>
        <pt x="119" y="221" on="0"/>
        <pt x="148" y="143" on="0"/>
        <pt x="202" y="85" on="0"/>
        <pt x="277" y="51" on="0"/>
        <pt x="322" y="51" on="1"/>
        <pt x="370" y="51" on="0"/>
        <pt x="444" y="85" on="0"/>
        <pt x="495" y="144" on="0"/>
        <pt x="521" y="224" on="0"/>
      </contour>
      <contour>
        <pt x="53" y="266" on="1"/>
        <pt x="53" y="330" on="0"/>
        <pt x="92" y="437" on="0"/>
        <pt x="163" y="512" on="0"/>
        <pt x="262" y="554" on="0"/>
        <pt x="322" y="554" on="1"/>
        <pt x="377" y="554" on="0"/>
        <pt x="473" y="512" on="0"/>
        <pt x="545" y="437" on="0"/>
        <pt x="587" y="332" on="0"/>
        <pt x="587" y="269" on="1"/>
        <pt x="587" y="209" on="0"/>
        <pt x="551" y="105" on="0"/>
        <pt x="483" y="28" on="0"/>
        <pt x="384" y="-15" on="0"/>
        <pt x="322" y="-15" on="1"/>
        <pt x="263" y="-15" on="0"/>
        <pt x="164" y="29" on="0"/>
        <pt x="93" y="105" on="0"/>
        <pt x="53" y="207" on="0"/>
      </contour>
      <contour>
        <pt x="283" y="771" on="1"/>
        <pt x="294" y="764" on="0"/>
        <pt x="301" y="737" on="0"/>
        <pt x="293" y="725" on="1"/>
        <pt x="278" y="700" on="0"/>
        <pt x="255" y="657" on="0"/>
        <pt x="247" y="636" on="1"/>
        <pt x="242" y="623" on="0"/>
        <pt x="216" y="612" on="0"/>
        <pt x="204" y="617" on="1"/>
        <pt x="191" y="622" on="0"/>
        <pt x="180" y="648" on="0"/>
        <pt x="185" y="660" on="1"/>
        <pt x="195" y="684" on="0"/>
        <pt x="220" y="733" on="0"/>
        <pt x="237" y="761" on="1"/>
        <pt x="245" y="772" on="0"/>
        <pt x="271" y="779" on="0"/>
      </contour>
      <contour>
        <pt x="488" y="771" on="1"/>
        <pt x="499" y="764" on="0"/>
        <pt x="506" y="737" on="0"/>
        <pt x="498" y="725" on="1"/>
        <pt x="483" y="700" on="0"/>
        <pt x="460" y="657" on="0"/>
        <pt x="452" y="636" on="1"/>
        <pt x="447" y="623" on="0"/>
        <pt x="421" y="612" on="0"/>
        <pt x="409" y="617" on="1"/>
        <pt x="396" y="622" on="0"/>
        <pt x="385" y="648" on="0"/>
        <pt x="390" y="660" on="1"/>
        <pt x="400" y="684" on="0"/>
        <pt x="425" y="733" on="0"/>
        <pt x="442" y="761" on="1"/>
        <pt x="450" y="772" on="0"/>
        <pt x="476" y="779" on="0"/>
      </contour>
    </TTGlyph>
    <TTGlyph name="Omacron" xMin="53" yMin="-15" xMax="587" yMax="721">
      <contour>
        <pt x="521" y="269" on="1"/>
        <pt x="521" y="317" on="0"/>
        <pt x="490" y="397" on="0"/>
        <pt x="437" y="455" on="0"/>
        <pt x="364" y="488" on="0"/>
        <pt x="322" y="488" on="1"/>
        <pt x="276" y="488" on="0"/>
        <pt x="201" y="455" on="0"/>
        <pt x="148" y="396" on="0"/>
        <pt x="119" y="315" on="0"/>
        <pt x="119" y="266" on="1"/>
        <pt x="119" y="221" on="0"/>
        <pt x="148" y="143" on="0"/>
        <pt x="202" y="85" on="0"/>
        <pt x="277" y="51" on="0"/>
        <pt x="322" y="51" on="1"/>
        <pt x="370" y="51" on="0"/>
        <pt x="444" y="85" on="0"/>
        <pt x="495" y="144" on="0"/>
        <pt x="521" y="224" on="0"/>
      </contour>
      <contour>
        <pt x="53" y="266" on="1"/>
        <pt x="53" y="330" on="0"/>
        <pt x="92" y="437" on="0"/>
        <pt x="163" y="512" on="0"/>
        <pt x="262" y="554" on="0"/>
        <pt x="322" y="554" on="1"/>
        <pt x="377" y="554" on="0"/>
        <pt x="473" y="512" on="0"/>
        <pt x="545" y="437" on="0"/>
        <pt x="587" y="332" on="0"/>
        <pt x="587" y="269" on="1"/>
        <pt x="587" y="209" on="0"/>
        <pt x="551" y="105" on="0"/>
        <pt x="483" y="28" on="0"/>
        <pt x="384" y="-15" on="0"/>
        <pt x="322" y="-15" on="1"/>
        <pt x="263" y="-15" on="0"/>
        <pt x="164" y="29" on="0"/>
        <pt x="93" y="105" on="0"/>
        <pt x="53" y="207" on="0"/>
      </contour>
      <contour>
        <pt x="492" y="688" on="1"/>
        <pt x="492" y="674" on="0"/>
        <pt x="469" y="655" on="0"/>
        <pt x="452" y="655" on="1"/>
        <pt x="174" y="655" on="1"/>
        <pt x="157" y="655" on="0"/>
        <pt x="133" y="674" on="0"/>
        <pt x="133" y="688" on="1"/>
        <pt x="133" y="702" on="0"/>
        <pt x="157" y="721" on="0"/>
        <pt x="174" y="721" on="1"/>
        <pt x="452" y="721" on="1"/>
        <pt x="469" y="721" on="0"/>
        <pt x="492" y="702" on="0"/>
      </contour>
    </TTGlyph>
    <TTGlyph name="Oslash" xMin="53" yMin="-26" xMax="587" yMax="554">
      <contour>
        <pt x="142" y="-13" on="1"/>
        <pt x="133" y="-24" on="0"/>
        <pt x="106" y="-26" on="0"/>
        <pt x="95" y="-18" on="1"/>
        <pt x="84" y="-9" on="0"/>
        <pt x="82" y="18" on="0"/>
        <pt x="90" y="29" on="1"/>
        <pt x="124" y="71" on="1"/>
        <pt x="90" y="109" on="0"/>
        <pt x="53" y="209" on="0"/>
        <pt x="53" y="266" on="1"/>
        <pt x="53" y="330" on="0"/>
        <pt x="92" y="437" on="0"/>
        <pt x="163" y="512" on="0"/>
        <pt x="262" y="554" on="0"/>
        <pt x="322" y="554" on="1"/>
        <pt x="365" y="554" on="0"/>
        <pt x="444" y="528" on="0"/>
        <pt x="476" y="504" on="1"/>
        <pt x="500" y="533" on="1"/>
        <pt x="509" y="544" on="0"/>
        <pt x="536" y="546" on="0"/>
        <pt x="547" y="538" on="1"/>
        <pt x="558" y="529" on="0"/>
        <pt x="560" y="502" on="0"/>
        <pt x="552" y="491" on="1"/>
        <pt x="525" y="457" on="1"/>
        <pt x="554" y="421" on="0"/>
        <pt x="587" y="326" on="0"/>
        <pt x="587" y="269" on="1"/>
        <pt x="587" y="209" on="0"/>
        <pt x="551" y="105" on="0"/>
        <pt x="483" y="28" on="0"/>
        <pt x="384" y="-15" on="0"/>
        <pt x="322" y="-15" on="1"/>
        <pt x="280" y="-15" on="0"/>
        <pt x="206" y="8" on="0"/>
        <pt x="175" y="28" on="1"/>
      </contour>
      <contour>
        <pt x="322" y="51" on="1"/>
        <pt x="370" y="51" on="0"/>
        <pt x="444" y="85" on="0"/>
        <pt x="495" y="144" on="0"/>
        <pt x="521" y="224" on="0"/>
        <pt x="521" y="269" on="1"/>
        <pt x="521" y="308" on="0"/>
        <pt x="500" y="377" on="0"/>
        <pt x="481" y="404" on="1"/>
        <pt x="217" y="79" on="1"/>
        <pt x="264" y="51" on="0"/>
      </contour>
      <contour>
        <pt x="119" y="266" on="1"/>
        <pt x="119" y="181" on="0"/>
        <pt x="167" y="124" on="1"/>
        <pt x="434" y="452" on="1"/>
        <pt x="411" y="469" on="0"/>
        <pt x="354" y="488" on="0"/>
        <pt x="322" y="488" on="1"/>
        <pt x="276" y="488" on="0"/>
        <pt x="201" y="455" on="0"/>
        <pt x="148" y="396" on="0"/>
        <pt x="119" y="315" on="0"/>
      </contour>
    </TTGlyph>
    <TTGlyph name="Otilde" xMin="53" yMin="-15" xMax="587" yMax="742">
      <contour>
        <pt x="521" y="269" on="1"/>
        <pt x="521" y="317" on="0"/>
        <pt x="490" y="397" on="0"/>
        <pt x="437" y="455" on="0"/>
        <pt x="364" y="488" on="0"/>
        <pt x="322" y="488" on="1"/>
        <pt x="276" y="488" on="0"/>
        <pt x="201" y="455" on="0"/>
        <pt x="148" y="396" on="0"/>
        <pt x="119" y="315" on="0"/>
        <pt x="119" y="266" on="1"/>
        <pt x="119" y="221" on="0"/>
        <pt x="148" y="143" on="0"/>
        <pt x="202" y="85" on="0"/>
        <pt x="277" y="51" on="0"/>
        <pt x="322" y="51" on="1"/>
        <pt x="370" y="51" on="0"/>
        <pt x="444" y="85" on="0"/>
        <pt x="495" y="144" on="0"/>
        <pt x="521" y="224" on="0"/>
      </contour>
      <contour>
        <pt x="53" y="266" on="1"/>
        <pt x="53" y="330" on="0"/>
        <pt x="92" y="437" on="0"/>
        <pt x="163" y="512" on="0"/>
        <pt x="262" y="554" on="0"/>
        <pt x="322" y="554" on="1"/>
        <pt x="377" y="554" on="0"/>
        <pt x="473" y="512" on="0"/>
        <pt x="545" y="437" on="0"/>
        <pt x="587" y="332" on="0"/>
        <pt x="587" y="269" on="1"/>
        <pt x="587" y="209" on="0"/>
        <pt x="551" y="105" on="0"/>
        <pt x="483" y="28" on="0"/>
        <pt x="384" y="-15" on="0"/>
        <pt x="322" y="-15" on="1"/>
        <pt x="263" y="-15" on="0"/>
        <pt x="164" y="29" on="0"/>
        <pt x="93" y="105" on="0"/>
        <pt x="53" y="207" on="0"/>
      </contour>
      <contour>
        <pt x="179" y="636" on="1"/>
        <pt x="169" y="644" on="0"/>
        <pt x="166" y="672" on="0"/>
        <pt x="174" y="683" on="1"/>
        <pt x="198" y="712" on="0"/>
        <pt x="244" y="739" on="0"/>
        <pt x="269" y="739" on="1"/>
        <pt x="293" y="739" on="0"/>
        <pt x="327" y="722" on="0"/>
        <pt x="346" y="707" on="1"/>
        <pt x="356" y="701" on="0"/>
        <pt x="374" y="691" on="0"/>
        <pt x="385" y="691" on="1"/>
        <pt x="401" y="691" on="0"/>
        <pt x="421" y="711" on="0"/>
        <pt x="434" y="728" on="1"/>
        <pt x="442" y="739" on="0"/>
        <pt x="469" y="742" on="0"/>
        <pt x="480" y="734" on="1"/>
        <pt x="491" y="726" on="0"/>
        <pt x="494" y="699" on="0"/>
        <pt x="486" y="688" on="1"/>
        <pt x="460" y="653" on="0"/>
        <pt x="416" y="625" on="0"/>
        <pt x="385" y="625" on="1"/>
        <pt x="363" y="625" on="0"/>
        <pt x="326" y="640" on="0"/>
        <pt x="306" y="655" on="1"/>
        <pt x="296" y="663" on="0"/>
        <pt x="281" y="673" on="0"/>
        <pt x="269" y="673" on="1"/>
        <pt x="256" y="673" on="0"/>
        <pt x="237" y="655" on="0"/>
        <pt x="226" y="641" on="1"/>
        <pt x="218" y="631" on="0"/>
        <pt x="190" y="628" on="0"/>
      </contour>
    </TTGlyph>
    <TTGlyph name="P" xMin="10" yMin="-3" xMax="317" yMax="654">
      <contour>
        <pt x="60" y="-3" on="1"/>
        <pt x="65" y="143" on="0"/>
        <pt x="65" y="439" on="0"/>
        <pt x="58" y="585" on="1"/>
        <pt x="17" y="578" on="1"/>
        <pt x="10" y="632" on="1"/>
        <pt x="34" y="639" on="0"/>
        <pt x="120" y="654" on="0"/>
        <pt x="173" y="654" on="1"/>
        <pt x="246" y="654" on="0"/>
        <pt x="317" y="574" on="0"/>
        <pt x="317" y="472" on="1"/>
        <pt x="317" y="379" on="0"/>
        <pt x="215" y="276" on="0"/>
        <pt x="124" y="271" on="1"/>
        <pt x="124" y="319" on="1"/>
        <pt x="162" y="325" on="0"/>
        <pt x="211" y="349" on="0"/>
        <pt x="239" y="388" on="0"/>
        <pt x="249" y="441" on="0"/>
        <pt x="249" y="476" on="1"/>
        <pt x="249" y="507" on="0"/>
        <pt x="238" y="557" on="0"/>
        <pt x="209" y="589" on="0"/>
        <pt x="159" y="600" on="0"/>
        <pt x="120" y="593" on="1"/>
        <pt x="124" y="447" on="0"/>
        <pt x="126" y="149" on="0"/>
        <pt x="126" y="3" on="1"/>
      </contour>
    </TTGlyph>
    <TTGlyph name="Q" xMin="40" yMin="-123" xMax="325" yMax="658">
      <contour>
        <pt x="184" y="658" on="1"/>
        <pt x="230" y="658" on="0"/>
        <pt x="285" y="606" on="0"/>
        <pt x="315" y="508" on="0"/>
        <pt x="325" y="370" on="0"/>
        <pt x="325" y="284" on="1"/>
        <pt x="325" y="222" on="0"/>
        <pt x="315" y="115" on="0"/>
        <pt x="284" y="35" on="0"/>
        <pt x="226" y="-10" on="0"/>
        <pt x="178" y="-10" on="1"/>
        <pt x="141" y="-10" on="0"/>
        <pt x="88" y="27" on="0"/>
        <pt x="55" y="106" on="0"/>
        <pt x="40" y="229" on="0"/>
        <pt x="40" y="315" on="1"/>
        <pt x="40" y="405" on="0"/>
        <pt x="53" y="535" on="0"/>
        <pt x="86" y="618" on="0"/>
        <pt x="141" y="658" on="0"/>
      </contour>
      <contour>
        <pt x="258" y="314" on="1"/>
        <pt x="258" y="399" on="0"/>
        <pt x="246" y="510" on="0"/>
        <pt x="225" y="574" on="0"/>
        <pt x="195" y="600" on="0"/>
        <pt x="176" y="600" on="1"/>
        <pt x="131" y="600" on="0"/>
        <pt x="105" y="466" on="0"/>
        <pt x="105" y="326" on="1"/>
        <pt x="105" y="249" on="0"/>
        <pt x="115" y="143" on="0"/>
        <pt x="136" y="75" on="0"/>
        <pt x="169" y="45" on="0"/>
        <pt x="193" y="45" on="1"/>
        <pt x="211" y="45" on="0"/>
        <pt x="236" y="74" on="0"/>
        <pt x="251" y="139" on="0"/>
        <pt x="258" y="241" on="0"/>
      </contour>
      <contour>
        <pt x="207" y="0" on="1"/>
        <pt x="240" y="-110" on="1"/>
        <pt x="157" y="-123" on="1"/>
        <pt x="157" y="0" on="1"/>
      </contour>
    </TTGlyph>
    <TTGlyph name="R" xMin="10" yMin="-8" xMax="320" yMax="654">
      <contour>
        <pt x="60" y="-6" on="1"/>
        <pt x="65" y="140" on="0"/>
        <pt x="65" y="443" on="0"/>
        <pt x="58" y="589" on="1"/>
        <pt x="17" y="583" on="1"/>
        <pt x="10" y="639" on="1"/>
        <pt x="48" y="646" on="0"/>
        <pt x="123" y="654" on="0"/>
        <pt x="157" y="654" on="1"/>
        <pt x="227" y="654" on="0"/>
        <pt x="293" y="586" on="0"/>
        <pt x="293" y="501" on="1"/>
        <pt x="293" y="445" on="0"/>
        <pt x="255" y="376" on="0"/>
        <pt x="222" y="353" on="1"/>
        <pt x="242" y="345" on="0"/>
        <pt x="259" y="316" on="0"/>
        <pt x="264" y="298" on="1"/>
        <pt x="272" y="266" on="0"/>
        <pt x="291" y="129" on="0"/>
        <pt x="320" y="10" on="1"/>
        <pt x="245" y="-8" on="1"/>
        <pt x="238" y="41" on="0"/>
        <pt x="226" y="134" on="0"/>
        <pt x="215" y="213" on="0"/>
        <pt x="204" y="271" on="0"/>
        <pt x="199" y="285" on="1"/>
        <pt x="192" y="304" on="0"/>
        <pt x="161" y="327" on="0"/>
        <pt x="122" y="317" on="1"/>
        <pt x="121" y="360" on="1"/>
        <pt x="155" y="366" on="0"/>
        <pt x="196" y="389" on="0"/>
        <pt x="218" y="423" on="0"/>
        <pt x="225" y="467" on="0"/>
        <pt x="225" y="493" on="1"/>
        <pt x="225" y="520" on="0"/>
        <pt x="216" y="562" on="0"/>
        <pt x="192" y="588" on="0"/>
        <pt x="151" y="598" on="0"/>
        <pt x="119" y="594" on="1"/>
        <pt x="123" y="448" on="0"/>
        <pt x="126" y="151" on="0"/>
        <pt x="128" y="5" on="1"/>
      </contour>
    </TTGlyph>
    <TTGlyph name="Racute" xMin="95" yMin="-6" xMax="502" yMax="764">
      <contour>
        <pt x="161" y="27" on="1"/>
        <pt x="161" y="13" on="0"/>
        <pt x="142" y="-6" on="0"/>
        <pt x="128" y="-6" on="1"/>
        <pt x="114" y="-6" on="0"/>
        <pt x="95" y="13" on="0"/>
        <pt x="95" y="27" on="1"/>
        <pt x="95" y="512" on="1"/>
        <pt x="95" y="526" on="0"/>
        <pt x="114" y="545" on="0"/>
        <pt x="128" y="545" on="1"/>
        <pt x="275" y="545" on="1"/>
        <pt x="321" y="545" on="0"/>
        <pt x="395" y="518" on="0"/>
        <pt x="446" y="471" on="0"/>
        <pt x="474" y="407" on="0"/>
        <pt x="474" y="369" on="1"/>
        <pt x="474" y="315" on="0"/>
        <pt x="419" y="226" on="0"/>
        <pt x="359" y="206" on="1"/>
        <pt x="494" y="48" on="1"/>
        <pt x="502" y="38" on="0"/>
        <pt x="501" y="11" on="0"/>
        <pt x="490" y="2" on="1"/>
        <pt x="480" y="-6" on="0"/>
        <pt x="453" y="-5" on="0"/>
        <pt x="444" y="6" on="1"/>
        <pt x="285" y="192" on="1"/>
        <pt x="284" y="193" on="1"/>
        <pt x="275" y="193" on="1"/>
        <pt x="161" y="193" on="1"/>
      </contour>
      <contour>
        <pt x="161" y="479" on="1"/>
        <pt x="161" y="259" on="1"/>
        <pt x="275" y="259" on="1"/>
        <pt x="339" y="259" on="0"/>
        <pt x="408" y="322" on="0"/>
        <pt x="408" y="369" on="1"/>
        <pt x="408" y="420" on="0"/>
        <pt x="333" y="479" on="0"/>
        <pt x="275" y="479" on="1"/>
      </contour>
      <contour>
        <pt x="402" y="746" on="1"/>
        <pt x="409" y="734" on="0"/>
        <pt x="402" y="708" on="0"/>
        <pt x="391" y="701" on="1"/>
        <pt x="357" y="681" on="0"/>
        <pt x="292" y="639" on="0"/>
        <pt x="270" y="623" on="1"/>
        <pt x="259" y="615" on="0"/>
        <pt x="232" y="620" on="0"/>
        <pt x="224" y="631" on="1"/>
        <pt x="216" y="642" on="0"/>
        <pt x="221" y="669" on="0"/>
        <pt x="232" y="677" on="1"/>
        <pt x="254" y="693" on="0"/>
        <pt x="322" y="737" on="0"/>
        <pt x="357" y="757" on="1"/>
        <pt x="369" y="764" on="0"/>
        <pt x="395" y="757" on="0"/>
      </contour>
    </TTGlyph>
    <TTGlyph name="Rcaron" xMin="95" yMin="-6" xMax="502" yMax="761">
      <contour>
        <pt x="161" y="27" on="1"/>
        <pt x="161" y="13" on="0"/>
        <pt x="142" y="-6" on="0"/>
        <pt x="128" y="-6" on="1"/>
        <pt x="114" y="-6" on="0"/>
        <pt x="95" y="13" on="0"/>
        <pt x="95" y="27" on="1"/>
        <pt x="95" y="512" on="1"/>
        <pt x="95" y="526" on="0"/>
        <pt x="114" y="545" on="0"/>
        <pt x="128" y="545" on="1"/>
        <pt x="275" y="545" on="1"/>
        <pt x="321" y="545" on="0"/>
        <pt x="395" y="518" on="0"/>
        <pt x="446" y="471" on="0"/>
        <pt x="474" y="407" on="0"/>
        <pt x="474" y="369" on="1"/>
        <pt x="474" y="315" on="0"/>
        <pt x="419" y="226" on="0"/>
        <pt x="359" y="206" on="1"/>
        <pt x="494" y="48" on="1"/>
        <pt x="502" y="38" on="0"/>
        <pt x="501" y="11" on="0"/>
        <pt x="490" y="2" on="1"/>
        <pt x="480" y="-6" on="0"/>
        <pt x="453" y="-5" on="0"/>
        <pt x="444" y="6" on="1"/>
        <pt x="285" y="192" on="1"/>
        <pt x="284" y="193" on="1"/>
        <pt x="275" y="193" on="1"/>
        <pt x="161" y="193" on="1"/>
      </contour>
      <contour>
        <pt x="161" y="479" on="1"/>
        <pt x="161" y="259" on="1"/>
        <pt x="275" y="259" on="1"/>
        <pt x="339" y="259" on="0"/>
        <pt x="408" y="322" on="0"/>
        <pt x="408" y="369" on="1"/>
        <pt x="408" y="420" on="0"/>
        <pt x="333" y="479" on="0"/>
        <pt x="275" y="479" on="1"/>
      </contour>
      <contour>
        <pt x="281" y="631" on="1"/>
        <pt x="276" y="627" on="0"/>
        <pt x="265" y="625" on="0"/>
        <pt x="259" y="625" on="1"/>
        <pt x="253" y="625" on="0"/>
        <pt x="241" y="627" on="0"/>
        <pt x="236" y="631" on="1"/>
        <pt x="210" y="649" on="0"/>
        <pt x="160" y="684" on="0"/>
        <pt x="139" y="701" on="1"/>
        <pt x="128" y="709" on="0"/>
        <pt x="125" y="736" on="0"/>
        <pt x="133" y="747" on="1"/>
        <pt x="141" y="758" on="0"/>
        <pt x="168" y="761" on="0"/>
        <pt x="179" y="753" on="1"/>
        <pt x="197" y="740" on="0"/>
        <pt x="237" y="711" on="0"/>
        <pt x="258" y="696" on="1"/>
        <pt x="279" y="711" on="0"/>
        <pt x="320" y="739" on="0"/>
        <pt x="338" y="753" on="1"/>
        <pt x="349" y="761" on="0"/>
        <pt x="376" y="758" on="0"/>
        <pt x="384" y="747" on="1"/>
        <pt x="392" y="736" on="0"/>
        <pt x="389" y="709" on="0"/>
        <pt x="378" y="701" on="1"/>
        <pt x="357" y="685" on="0"/>
        <pt x="307" y="649" on="0"/>
      </contour>
    </TTGlyph>
    <TTGlyph name="S" xMin="20" yMin="-8" xMax="255" yMax="658">
      <contour>
        <pt x="214" y="595" on="1"/>
        <pt x="193" y="598" on="0"/>
        <pt x="160" y="604" on="0"/>
        <pt x="145" y="604" on="1"/>
        <pt x="116" y="604" on="0"/>
        <pt x="83" y="574" on="0"/>
        <pt x="83" y="545" on="1"/>
        <pt x="83" y="504" on="0"/>
        <pt x="123" y="413" on="0"/>
        <pt x="156" y="362" on="1"/>
        <pt x="204" y="288" on="0"/>
        <pt x="255" y="173" on="0"/>
        <pt x="255" y="128" on="1"/>
        <pt x="255" y="51" on="0"/>
        <pt x="176" y="-8" on="0"/>
        <pt x="101" y="-8" on="1"/>
        <pt x="81" y="-8" on="0"/>
        <pt x="42" y="-3" on="0"/>
        <pt x="22" y="5" on="1"/>
        <pt x="30" y="55" on="1"/>
        <pt x="50" y="51" on="0"/>
        <pt x="90" y="47" on="0"/>
        <pt x="111" y="47" on="1"/>
        <pt x="159" y="47" on="0"/>
        <pt x="193" y="76" on="0"/>
        <pt x="193" y="114" on="1"/>
        <pt x="193" y="156" on="0"/>
        <pt x="151" y="247" on="0"/>
        <pt x="116" y="304" on="1"/>
        <pt x="101" y="329" on="0"/>
        <pt x="67" y="385" on="0"/>
        <pt x="38" y="447" on="0"/>
        <pt x="20" y="511" on="0"/>
        <pt x="20" y="544" on="1"/>
        <pt x="20" y="601" on="0"/>
        <pt x="88" y="658" on="0"/>
        <pt x="150" y="658" on="1"/>
        <pt x="173" y="658" on="0"/>
        <pt x="206" y="653" on="0"/>
        <pt x="223" y="648" on="1"/>
      </contour>
    </TTGlyph>
    <TTGlyph name="Sacute" xMin="63" yMin="-15" xMax="465" yMax="764">
      <contour>
        <pt x="429" y="476" on="1"/>
        <pt x="424" y="463" on="0"/>
        <pt x="398" y="452" on="0"/>
        <pt x="386" y="457" on="1"/>
        <pt x="354" y="470" on="0"/>
        <pt x="295" y="485" on="0"/>
        <pt x="248" y="485" on="1"/>
        <pt x="204" y="485" on="0"/>
        <pt x="145" y="444" on="0"/>
        <pt x="145" y="414" on="1"/>
        <pt x="145" y="399" on="0"/>
        <pt x="157" y="369" on="0"/>
        <pt x="187" y="344" on="0"/>
        <pt x="237" y="322" on="0"/>
        <pt x="275" y="314" on="1"/>
        <pt x="332" y="302" on="0"/>
        <pt x="405" y="266" on="0"/>
        <pt x="448" y="221" on="0"/>
        <pt x="465" y="168" on="0"/>
        <pt x="465" y="140" on="1"/>
        <pt x="465" y="111" on="0"/>
        <pt x="444" y="55" on="0"/>
        <pt x="398" y="12" on="0"/>
        <pt x="322" y="-15" on="0"/>
        <pt x="268" y="-15" on="1"/>
        <pt x="167" y="-15" on="0"/>
        <pt x="83" y="32" on="1"/>
        <pt x="71" y="39" on="0"/>
        <pt x="63" y="66" on="0"/>
        <pt x="70" y="77" on="1"/>
        <pt x="77" y="89" on="0"/>
        <pt x="104" y="97" on="0"/>
        <pt x="115" y="90" on="1"/>
        <pt x="185" y="51" on="0"/>
        <pt x="268" y="51" on="1"/>
        <pt x="331" y="51" on="0"/>
        <pt x="399" y="102" on="0"/>
        <pt x="399" y="140" on="1"/>
        <pt x="399" y="180" on="0"/>
        <pt x="333" y="236" on="0"/>
        <pt x="263" y="250" on="1"/>
        <pt x="200" y="263" on="0"/>
        <pt x="127" y="301" on="0"/>
        <pt x="90" y="345" on="0"/>
        <pt x="79" y="392" on="0"/>
        <pt x="79" y="414" on="1"/>
        <pt x="79" y="439" on="0"/>
        <pt x="100" y="488" on="0"/>
        <pt x="143" y="527" on="0"/>
        <pt x="206" y="551" on="0"/>
        <pt x="248" y="551" on="1"/>
        <pt x="276" y="551" on="0"/>
        <pt x="319" y="547" on="0"/>
        <pt x="357" y="538" on="0"/>
        <pt x="391" y="526" on="0"/>
        <pt x="410" y="519" on="1"/>
        <pt x="423" y="514" on="0"/>
        <pt x="434" y="488" on="0"/>
      </contour>
      <contour>
        <pt x="411" y="746" on="1"/>
        <pt x="418" y="734" on="0"/>
        <pt x="411" y="708" on="0"/>
        <pt x="400" y="701" on="1"/>
        <pt x="366" y="681" on="0"/>
        <pt x="301" y="639" on="0"/>
        <pt x="279" y="623" on="1"/>
        <pt x="268" y="615" on="0"/>
        <pt x="241" y="620" on="0"/>
        <pt x="233" y="631" on="1"/>
        <pt x="225" y="642" on="0"/>
        <pt x="230" y="669" on="0"/>
        <pt x="241" y="677" on="1"/>
        <pt x="263" y="693" on="0"/>
        <pt x="331" y="737" on="0"/>
        <pt x="366" y="757" on="1"/>
        <pt x="378" y="764" on="0"/>
        <pt x="404" y="757" on="0"/>
      </contour>
    </TTGlyph>
    <TTGlyph name="Scaron" xMin="63" yMin="-15" xMax="465" yMax="761">
      <contour>
        <pt x="429" y="476" on="1"/>
        <pt x="424" y="463" on="0"/>
        <pt x="398" y="452" on="0"/>
        <pt x="386" y="457" on="1"/>
        <pt x="354" y="470" on="0"/>
        <pt x="295" y="485" on="0"/>
        <pt x="248" y="485" on="1"/>
        <pt x="204" y="485" on="0"/>
        <pt x="145" y="444" on="0"/>
        <pt x="145" y="414" on="1"/>
        <pt x="145" y="399" on="0"/>
        <pt x="157" y="369" on="0"/>
        <pt x="187" y="344" on="0"/>
        <pt x="237" y="322" on="0"/>
        <pt x="275" y="314" on="1"/>
        <pt x="332" y="302" on="0"/>
        <pt x="405" y="266" on="0"/>
        <pt x="448" y="221" on="0"/>
        <pt x="465" y="168" on="0"/>
        <pt x="465" y="140" on="1"/>
        <pt x="465" y="111" on="0"/>
        <pt x="444" y="55" on="0"/>
        <pt x="398" y="12" on="0"/>
        <pt x="322" y="-15" on="0"/>
        <pt x="268" y="-15" on="1"/>
        <pt x="167" y="-15" on="0"/>
        <pt x="83" y="32" on="1"/>
        <pt x="71" y="39" on="0"/>
        <pt x="63" y="66" on="0"/>
        <pt x="70" y="77" on="1"/>
        <pt x="77" y="89" on="0"/>
        <pt x="104" y="97" on="0"/>
        <pt x="115" y="90" on="1"/>
        <pt x="185" y="51" on="0"/>
        <pt x="268" y="51" on="1"/>
        <pt x="331" y="51" on="0"/>
        <pt x="399" y="102" on="0"/>
        <pt x="399" y="140" on="1"/>
        <pt x="399" y="180" on="0"/>
        <pt x="333" y="236" on="0"/>
        <pt x="263" y="250" on="1"/>
        <pt x="200" y="263" on="0"/>
        <pt x="127" y="301" on="0"/>
        <pt x="90" y="345" on="0"/>
        <pt x="79" y="392" on="0"/>
        <pt x="79" y="414" on="1"/>
        <pt x="79" y="439" on="0"/>
        <pt x="100" y="488" on="0"/>
        <pt x="143" y="527" on="0"/>
        <pt x="206" y="551" on="0"/>
        <pt x="248" y="551" on="1"/>
        <pt x="276" y="551" on="0"/>
        <pt x="319" y="547" on="0"/>
        <pt x="357" y="538" on="0"/>
        <pt x="391" y="526" on="0"/>
        <pt x="410" y="519" on="1"/>
        <pt x="423" y="514" on="0"/>
        <pt x="434" y="488" on="0"/>
      </contour>
      <contour>
        <pt x="282" y="631" on="1"/>
        <pt x="277" y="627" on="0"/>
        <pt x="266" y="625" on="0"/>
        <pt x="260" y="625" on="1"/>
        <pt x="254" y="625" on="0"/>
        <pt x="242" y="627" on="0"/>
        <pt x="237" y="631" on="1"/>
        <pt x="211" y="649" on="0"/>
        <pt x="161" y="684" on="0"/>
        <pt x="140" y="701" on="1"/>
        <pt x="129" y="709" on="0"/>
        <pt x="126" y="736" on="0"/>
        <pt x="134" y="747" on="1"/>
        <pt x="142" y="758" on="0"/>
        <pt x="169" y="761" on="0"/>
        <pt x="180" y="753" on="1"/>
        <pt x="198" y="740" on="0"/>
        <pt x="238" y="711" on="0"/>
        <pt x="259" y="696" on="1"/>
        <pt x="280" y="711" on="0"/>
        <pt x="321" y="739" on="0"/>
        <pt x="339" y="753" on="1"/>
        <pt x="350" y="761" on="0"/>
        <pt x="377" y="758" on="0"/>
        <pt x="385" y="747" on="1"/>
        <pt x="393" y="736" on="0"/>
        <pt x="390" y="709" on="0"/>
        <pt x="379" y="701" on="1"/>
        <pt x="358" y="685" on="0"/>
        <pt x="308" y="649" on="0"/>
      </contour>
    </TTGlyph>
    <TTGlyph name="T" xMin="-10" yMin="-7" xMax="282" yMax="654">
      <contour>
        <pt x="170" y="623" on="1"/>
        <pt x="171" y="544" on="0"/>
        <pt x="174" y="399" on="0"/>
        <pt x="179" y="252" on="0"/>
        <pt x="185" y="95" on="0"/>
        <pt x="188" y="4" on="1"/>
        <pt x="117" y="-7" on="1"/>
        <pt x="117" y="85" on="0"/>
        <pt x="116" y="241" on="0"/>
        <pt x="114" y="388" on="0"/>
        <pt x="110" y="534" on="0"/>
        <pt x="106" y="616" on="1"/>
      </contour>
      <contour>
        <pt x="280" y="654" on="1"/>
        <pt x="282" y="597" on="1"/>
        <pt x="152" y="594" on="1"/>
        <pt x="-9" y="585" on="1"/>
        <pt x="-10" y="642" on="1"/>
      </contour>
    </TTGlyph>
    <TTGlyph name="Tcaron" xMin="32" yMin="-6" xMax="526" yMax="761">
      <contour>
        <pt x="277" y="-6" on="1"/>
        <pt x="263" y="-6" on="0"/>
        <pt x="244" y="13" on="0"/>
        <pt x="244" y="27" on="1"/>
        <pt x="244" y="479" on="1"/>
        <pt x="65" y="479" on="1"/>
        <pt x="51" y="479" on="0"/>
        <pt x="32" y="498" on="0"/>
        <pt x="32" y="512" on="1"/>
        <pt x="32" y="526" on="0"/>
        <pt x="51" y="545" on="0"/>
        <pt x="65" y="545" on="1"/>
        <pt x="493" y="545" on="1"/>
        <pt x="507" y="545" on="0"/>
        <pt x="526" y="526" on="0"/>
        <pt x="526" y="512" on="1"/>
        <pt x="526" y="498" on="0"/>
        <pt x="507" y="479" on="0"/>
        <pt x="493" y="479" on="1"/>
        <pt x="310" y="479" on="1"/>
        <pt x="310" y="27" on="1"/>
        <pt x="310" y="13" on="0"/>
        <pt x="291" y="-6" on="0"/>
      </contour>
      <contour>
        <pt x="300" y="631" on="1"/>
        <pt x="295" y="627" on="0"/>
        <pt x="284" y="625" on="0"/>
        <pt x="278" y="625" on="1"/>
        <pt x="272" y="625" on="0"/>
        <pt x="260" y="627" on="0"/>
        <pt x="255" y="631" on="1"/>
        <pt x="229" y="649" on="0"/>
        <pt x="179" y="684" on="0"/>
        <pt x="158" y="701" on="1"/>
        <pt x="147" y="709" on="0"/>
        <pt x="144" y="736" on="0"/>
        <pt x="152" y="747" on="1"/>
        <pt x="160" y="758" on="0"/>
        <pt x="187" y="761" on="0"/>
        <pt x="198" y="753" on="1"/>
        <pt x="216" y="740" on="0"/>
        <pt x="256" y="711" on="0"/>
        <pt x="277" y="696" on="1"/>
        <pt x="298" y="711" on="0"/>
        <pt x="339" y="739" on="0"/>
        <pt x="357" y="753" on="1"/>
        <pt x="368" y="761" on="0"/>
        <pt x="395" y="758" on="0"/>
        <pt x="403" y="747" on="1"/>
        <pt x="411" y="736" on="0"/>
        <pt x="408" y="709" on="0"/>
        <pt x="397" y="701" on="1"/>
        <pt x="376" y="685" on="0"/>
        <pt x="326" y="649" on="0"/>
      </contour>
    </TTGlyph>
    <TTGlyph name="Thorn" xMin="95" yMin="-6" xMax="466" yMax="545">
      <contour>
        <pt x="161" y="385" on="1"/>
        <pt x="161" y="161" on="1"/>
        <pt x="265" y="161" on="1"/>
        <pt x="331" y="161" on="0"/>
        <pt x="400" y="223" on="0"/>
        <pt x="400" y="271" on="1"/>
        <pt x="400" y="323" on="0"/>
        <pt x="324" y="385" on="0"/>
        <pt x="265" y="385" on="1"/>
      </contour>
      <contour>
        <pt x="128" y="-6" on="1"/>
        <pt x="114" y="-6" on="0"/>
        <pt x="95" y="13" on="0"/>
        <pt x="95" y="27" on="1"/>
        <pt x="95" y="512" on="1"/>
        <pt x="95" y="526" on="0"/>
        <pt x="114" y="545" on="0"/>
        <pt x="128" y="545" on="1"/>
        <pt x="142" y="545" on="0"/>
        <pt x="161" y="526" on="0"/>
        <pt x="161" y="512" on="1"/>
        <pt x="161" y="451" on="1"/>
        <pt x="265" y="451" on="1"/>
        <pt x="311" y="451" on="0"/>
        <pt x="386" y="424" on="0"/>
        <pt x="438" y="376" on="0"/>
        <pt x="466" y="310" on="0"/>
        <pt x="466" y="271" on="1"/>
        <pt x="466" y="236" on="0"/>
        <pt x="442" y="172" on="0"/>
        <pt x="393" y="124" on="0"/>
        <pt x="317" y="95" on="0"/>
        <pt x="265" y="95" on="1"/>
        <pt x="161" y="95" on="1"/>
        <pt x="161" y="27" on="1"/>
        <pt x="161" y="13" on="0"/>
        <pt x="142" y="-6" on="0"/>
      </contour>
    </TTGlyph>
    <TTGlyph name="U" xMin="38" yMin="-8" xMax="309" yMax="652">
      <contour>
        <pt x="307" y="652" on="1"/>
        <pt x="307" y="560" on="0"/>
        <pt x="308" y="414" on="0"/>
        <pt x="309" y="297" on="0"/>
        <pt x="309" y="252" on="1"/>
        <pt x="309" y="171" on="1"/>
        <pt x="309" y="120" on="0"/>
        <pt x="289" y="52" on="0"/>
        <pt x="256" y="10" on="0"/>
        <pt x="212" y="-8" on="0"/>
        <pt x="189" y="-8" on="1"/>
        <pt x="159" y="-8" on="0"/>
        <pt x="114" y="8" on="0"/>
        <pt x="83" y="46" on="0"/>
        <pt x="64" y="108" on="0"/>
        <pt x="61" y="154" on="1"/>
        <pt x="56" y="226" on="0"/>
        <pt x="46" y="474" on="0"/>
        <pt x="38" y="644" on="1"/>
        <pt x="108" y="650" on="1"/>
        <pt x="110" y="471" on="0"/>
        <pt x="120" y="228" on="0"/>
        <pt x="125" y="164" on="1"/>
        <pt x="129" y="105" on="0"/>
        <pt x="154" y="50" on="0"/>
        <pt x="187" y="50" on="1"/>
        <pt x="204" y="50" on="0"/>
        <pt x="227" y="61" on="0"/>
        <pt x="242" y="90" on="0"/>
        <pt x="248" y="137" on="0"/>
        <pt x="248" y="173" on="1"/>
        <pt x="248" y="205" on="0"/>
        <pt x="246" y="313" on="0"/>
        <pt x="243" y="442" on="0"/>
        <pt x="239" y="582" on="0"/>
        <pt x="236" y="645" on="1"/>
      </contour>
    </TTGlyph>
    <TTGlyph name="Uacute" xMin="83" yMin="-15" xMax="543" yMax="734">
      <contour>
        <pt x="116" y="545" on="1"/>
        <pt x="130" y="545" on="0"/>
        <pt x="149" y="526" on="0"/>
        <pt x="149" y="512" on="1"/>
        <pt x="149" y="216" on="1"/>
        <pt x="149" y="136" on="0"/>
        <pt x="239" y="51" on="0"/>
        <pt x="311" y="51" on="1"/>
        <pt x="391" y="51" on="0"/>
        <pt x="477" y="138" on="0"/>
        <pt x="477" y="219" on="1"/>
        <pt x="477" y="512" on="1"/>
        <pt x="477" y="526" on="0"/>
        <pt x="496" y="545" on="0"/>
        <pt x="510" y="545" on="1"/>
        <pt x="524" y="545" on="0"/>
        <pt x="543" y="526" on="0"/>
        <pt x="543" y="512" on="1"/>
        <pt x="543" y="219" on="1"/>
        <pt x="543" y="104" on="0"/>
        <pt x="423" y="-15" on="0"/>
        <pt x="311" y="-15" on="1"/>
        <pt x="261" y="-15" on="0"/>
        <pt x="177" y="16" on="0"/>
        <pt x="117" y="74" on="0"/>
        <pt x="83" y="160" on="0"/>
        <pt x="83" y="216" on="1"/>
        <pt x="83" y="512" on="1"/>
        <pt x="83" y="526" on="0"/>
        <pt x="102" y="545" on="0"/>
      </contour>
      <contour>
        <pt x="461" y="716" on="1"/>
        <pt x="468" y="704" on="0"/>
        <pt x="461" y="678" on="0"/>
        <pt x="450" y="671" on="1"/>
        <pt x="416" y="651" on="0"/>
        <pt x="351" y="609" on="0"/>
        <pt x="329" y="593" on="1"/>
        <pt x="318" y="585" on="0"/>
        <pt x="291" y="590" on="0"/>
        <pt x="283" y="601" on="1"/>
        <pt x="275" y="612" on="0"/>
        <pt x="280" y="639" on="0"/>
        <pt x="291" y="647" on="1"/>
        <pt x="313" y="663" on="0"/>
        <pt x="381" y="707" on="0"/>
        <pt x="416" y="727" on="1"/>
        <pt x="428" y="734" on="0"/>
        <pt x="454" y="727" on="0"/>
      </contour>
    </TTGlyph>
    <TTGlyph name="Ucircumflex" xMin="83" yMin="-15" xMax="543" yMax="730">
      <contour>
        <pt x="116" y="545" on="1"/>
        <pt x="130" y="545" on="0"/>
        <pt x="149" y="526" on="0"/>
        <pt x="149" y="512" on="1"/>
        <pt x="149" y="216" on="1"/>
        <pt x="149" y="136" on="0"/>
        <pt x="239" y="51" on="0"/>
        <pt x="311" y="51" on="1"/>
        <pt x="391" y="51" on="0"/>
        <pt x="477" y="138" on="0"/>
        <pt x="477" y="219" on="1"/>
        <pt x="477" y="512" on="1"/>
        <pt x="477" y="526" on="0"/>
        <pt x="496" y="545" on="0"/>
        <pt x="510" y="545" on="1"/>
        <pt x="524" y="545" on="0"/>
        <pt x="543" y="526" on="0"/>
        <pt x="543" y="512" on="1"/>
        <pt x="543" y="219" on="1"/>
        <pt x="543" y="104" on="0"/>
        <pt x="423" y="-15" on="0"/>
        <pt x="311" y="-15" on="1"/>
        <pt x="261" y="-15" on="0"/>
        <pt x="177" y="16" on="0"/>
        <pt x="117" y="74" on="0"/>
        <pt x="83" y="160" on="0"/>
        <pt x="83" y="216" on="1"/>
        <pt x="83" y="512" on="1"/>
        <pt x="83" y="526" on="0"/>
        <pt x="102" y="545" on="0"/>
      </contour>
      <contour>
        <pt x="226" y="602" on="1"/>
        <pt x="215" y="594" on="0"/>
        <pt x="188" y="597" on="0"/>
        <pt x="180" y="608" on="1"/>
        <pt x="172" y="619" on="0"/>
        <pt x="175" y="646" on="0"/>
        <pt x="186" y="654" on="1"/>
        <pt x="207" y="670" on="0"/>
        <pt x="257" y="706" on="0"/>
        <pt x="283" y="724" on="1"/>
        <pt x="288" y="728" on="0"/>
        <pt x="299" y="730" on="0"/>
        <pt x="305" y="730" on="1"/>
        <pt x="311" y="730" on="0"/>
        <pt x="323" y="728" on="0"/>
        <pt x="328" y="724" on="1"/>
        <pt x="354" y="706" on="0"/>
        <pt x="404" y="671" on="0"/>
        <pt x="425" y="654" on="1"/>
        <pt x="436" y="646" on="0"/>
        <pt x="439" y="619" on="0"/>
        <pt x="431" y="608" on="1"/>
        <pt x="423" y="597" on="0"/>
        <pt x="396" y="594" on="0"/>
        <pt x="385" y="602" on="1"/>
        <pt x="367" y="615" on="0"/>
        <pt x="327" y="644" on="0"/>
        <pt x="306" y="659" on="1"/>
        <pt x="285" y="644" on="0"/>
        <pt x="244" y="616" on="0"/>
      </contour>
    </TTGlyph>
    <TTGlyph name="Udieresis" xMin="83" yMin="-15" xMax="543" yMax="713">
      <contour>
        <pt x="116" y="545" on="1"/>
        <pt x="130" y="545" on="0"/>
        <pt x="149" y="526" on="0"/>
        <pt x="149" y="512" on="1"/>
        <pt x="149" y="216" on="1"/>
        <pt x="149" y="136" on="0"/>
        <pt x="239" y="51" on="0"/>
        <pt x="311" y="51" on="1"/>
        <pt x="391" y="51" on="0"/>
        <pt x="477" y="138" on="0"/>
        <pt x="477" y="219" on="1"/>
        <pt x="477" y="512" on="1"/>
        <pt x="477" y="526" on="0"/>
        <pt x="496" y="545" on="0"/>
        <pt x="510" y="545" on="1"/>
        <pt x="524" y="545" on="0"/>
        <pt x="543" y="526" on="0"/>
        <pt x="543" y="512" on="1"/>
        <pt x="543" y="219" on="1"/>
        <pt x="543" y="104" on="0"/>
        <pt x="423" y="-15" on="0"/>
        <pt x="311" y="-15" on="1"/>
        <pt x="261" y="-15" on="0"/>
        <pt x="177" y="16" on="0"/>
        <pt x="117" y="74" on="0"/>
        <pt x="83" y="160" on="0"/>
        <pt x="83" y="216" on="1"/>
        <pt x="83" y="512" on="1"/>
        <pt x="83" y="526" on="0"/>
        <pt x="102" y="545" on="0"/>
      </contour>
      <contour>
        <pt x="198" y="653" on="1"/>
        <pt x="198" y="647" on="0"/>
        <pt x="203" y="644" on="0"/>
        <pt x="209" y="644" on="0"/>
        <pt x="215" y="647" on="0"/>
        <pt x="216" y="647" on="1"/>
        <pt x="218" y="647" on="0"/>
        <pt x="230" y="645" on="0"/>
        <pt x="230" y="653" on="1"/>
        <pt x="230" y="661" on="0"/>
        <pt x="224" y="661" on="1"/>
        <pt x="216" y="661" on="1"/>
        <pt x="215" y="661" on="0"/>
        <pt x="209" y="663" on="0"/>
        <pt x="203" y="663" on="0"/>
        <pt x="198" y="659" on="0"/>
      </contour>
      <contour>
        <pt x="391" y="653" on="1"/>
        <pt x="391" y="647" on="0"/>
        <pt x="396" y="644" on="0"/>
        <pt x="402" y="644" on="0"/>
        <pt x="408" y="647" on="0"/>
        <pt x="409" y="647" on="1"/>
        <pt x="411" y="647" on="0"/>
        <pt x="424" y="645" on="0"/>
        <pt x="424" y="653" on="1"/>
        <pt x="424" y="662" on="0"/>
        <pt x="412" y="661" on="0"/>
        <pt x="409" y="661" on="1"/>
        <pt x="408" y="661" on="0"/>
        <pt x="402" y="663" on="0"/>
        <pt x="396" y="663" on="0"/>
        <pt x="391" y="659" on="0"/>
      </contour>
      <contour>
        <pt x="164" y="653" on="1"/>
        <pt x="164" y="680" on="0"/>
        <pt x="198" y="713" on="0"/>
        <pt x="216" y="713" on="1"/>
        <pt x="233" y="713" on="0"/>
        <pt x="264" y="685" on="0"/>
        <pt x="264" y="653" on="1"/>
        <pt x="264" y="619" on="0"/>
        <pt x="233" y="595" on="0"/>
        <pt x="216" y="595" on="1"/>
        <pt x="196" y="595" on="0"/>
        <pt x="164" y="624" on="0"/>
      </contour>
      <contour>
        <pt x="358" y="653" on="1"/>
        <pt x="358" y="681" on="0"/>
        <pt x="391" y="713" on="0"/>
        <pt x="409" y="713" on="1"/>
        <pt x="426" y="713" on="0"/>
        <pt x="457" y="685" on="0"/>
        <pt x="457" y="653" on="1"/>
        <pt x="457" y="619" on="0"/>
        <pt x="426" y="595" on="0"/>
        <pt x="409" y="595" on="1"/>
        <pt x="389" y="595" on="0"/>
        <pt x="358" y="623" on="0"/>
      </contour>
    </TTGlyph>
    <TTGlyph name="Ugrave" xMin="83" yMin="-15" xMax="543" yMax="736">
      <contour>
        <pt x="116" y="545" on="1"/>
        <pt x="130" y="545" on="0"/>
        <pt x="149" y="526" on="0"/>
        <pt x="149" y="512" on="1"/>
        <pt x="149" y="216" on="1"/>
        <pt x="149" y="136" on="0"/>
        <pt x="239" y="51" on="0"/>
        <pt x="311" y="51" on="1"/>
        <pt x="391" y="51" on="0"/>
        <pt x="477" y="138" on="0"/>
        <pt x="477" y="219" on="1"/>
        <pt x="477" y="512" on="1"/>
        <pt x="477" y="526" on="0"/>
        <pt x="496" y="545" on="0"/>
        <pt x="510" y="545" on="1"/>
        <pt x="524" y="545" on="0"/>
        <pt x="543" y="526" on="0"/>
        <pt x="543" y="512" on="1"/>
        <pt x="543" y="219" on="1"/>
        <pt x="543" y="104" on="0"/>
        <pt x="423" y="-15" on="0"/>
        <pt x="311" y="-15" on="1"/>
        <pt x="261" y="-15" on="0"/>
        <pt x="177" y="16" on="0"/>
        <pt x="117" y="74" on="0"/>
        <pt x="83" y="160" on="0"/>
        <pt x="83" y="216" on="1"/>
        <pt x="83" y="512" on="1"/>
        <pt x="83" y="526" on="0"/>
        <pt x="102" y="545" on="0"/>
      </contour>
      <contour>
        <pt x="177" y="716" on="1"/>
        <pt x="184" y="728" on="0"/>
        <pt x="210" y="736" on="0"/>
        <pt x="222" y="729" on="1"/>
        <pt x="236" y="721" on="0"/>
        <pt x="269" y="699" on="0"/>
        <pt x="302" y="676" on="0"/>
        <pt x="331" y="653" on="0"/>
        <pt x="342" y="645" on="1"/>
        <pt x="353" y="637" on="0"/>
        <pt x="356" y="610" on="0"/>
        <pt x="348" y="599" on="1"/>
        <pt x="340" y="588" on="0"/>
        <pt x="313" y="585" on="0"/>
        <pt x="302" y="593" on="1"/>
        <pt x="292" y="600" on="0"/>
        <pt x="265" y="621" on="0"/>
        <pt x="234" y="643" on="0"/>
        <pt x="203" y="664" on="0"/>
        <pt x="190" y="671" on="1"/>
        <pt x="178" y="678" on="0"/>
        <pt x="170" y="704" on="0"/>
      </contour>
    </TTGlyph>
    <TTGlyph name="Uhungarumlaut" xMin="83" yMin="-15" xMax="543" yMax="779">
      <contour>
        <pt x="116" y="545" on="1"/>
        <pt x="130" y="545" on="0"/>
        <pt x="149" y="526" on="0"/>
        <pt x="149" y="512" on="1"/>
        <pt x="149" y="216" on="1"/>
        <pt x="149" y="136" on="0"/>
        <pt x="239" y="51" on="0"/>
        <pt x="311" y="51" on="1"/>
        <pt x="391" y="51" on="0"/>
        <pt x="477" y="138" on="0"/>
        <pt x="477" y="219" on="1"/>
        <pt x="477" y="512" on="1"/>
        <pt x="477" y="526" on="0"/>
        <pt x="496" y="545" on="0"/>
        <pt x="510" y="545" on="1"/>
        <pt x="524" y="545" on="0"/>
        <pt x="543" y="526" on="0"/>
        <pt x="543" y="512" on="1"/>
        <pt x="543" y="219" on="1"/>
        <pt x="543" y="104" on="0"/>
        <pt x="423" y="-15" on="0"/>
        <pt x="311" y="-15" on="1"/>
        <pt x="261" y="-15" on="0"/>
        <pt x="177" y="16" on="0"/>
        <pt x="117" y="74" on="0"/>
        <pt x="83" y="160" on="0"/>
        <pt x="83" y="216" on="1"/>
        <pt x="83" y="512" on="1"/>
        <pt x="83" y="526" on="0"/>
        <pt x="102" y="545" on="0"/>
      </contour>
      <contour>
        <pt x="277" y="771" on="1"/>
        <pt x="288" y="764" on="0"/>
        <pt x="295" y="737" on="0"/>
        <pt x="287" y="725" on="1"/>
        <pt x="272" y="700" on="0"/>
        <pt x="249" y="657" on="0"/>
        <pt x="241" y="636" on="1"/>
        <pt x="236" y="623" on="0"/>
        <pt x="210" y="612" on="0"/>
        <pt x="198" y="617" on="1"/>
        <pt x="185" y="622" on="0"/>
        <pt x="174" y="648" on="0"/>
        <pt x="179" y="660" on="1"/>
        <pt x="189" y="684" on="0"/>
        <pt x="214" y="733" on="0"/>
        <pt x="231" y="761" on="1"/>
        <pt x="239" y="772" on="0"/>
        <pt x="265" y="779" on="0"/>
      </contour>
      <contour>
        <pt x="482" y="771" on="1"/>
        <pt x="493" y="764" on="0"/>
        <pt x="500" y="737" on="0"/>
        <pt x="492" y="725" on="1"/>
        <pt x="477" y="700" on="0"/>
        <pt x="454" y="657" on="0"/>
        <pt x="446" y="636" on="1"/>
        <pt x="441" y="623" on="0"/>
        <pt x="415" y="612" on="0"/>
        <pt x="403" y="617" on="1"/>
        <pt x="390" y="622" on="0"/>
        <pt x="379" y="648" on="0"/>
        <pt x="384" y="660" on="1"/>
        <pt x="394" y="684" on="0"/>
        <pt x="419" y="733" on="0"/>
        <pt x="436" y="761" on="1"/>
        <pt x="444" y="772" on="0"/>
        <pt x="470" y="779" on="0"/>
      </contour>
    </TTGlyph>
    <TTGlyph name="Umacron" xMin="83" yMin="-15" xMax="543" yMax="721">
      <contour>
        <pt x="116" y="545" on="1"/>
        <pt x="130" y="545" on="0"/>
        <pt x="149" y="526" on="0"/>
        <pt x="149" y="512" on="1"/>
        <pt x="149" y="216" on="1"/>
        <pt x="149" y="136" on="0"/>
        <pt x="239" y="51" on="0"/>
        <pt x="311" y="51" on="1"/>
        <pt x="391" y="51" on="0"/>
        <pt x="477" y="138" on="0"/>
        <pt x="477" y="219" on="1"/>
        <pt x="477" y="512" on="1"/>
        <pt x="477" y="526" on="0"/>
        <pt x="496" y="545" on="0"/>
        <pt x="510" y="545" on="1"/>
        <pt x="524" y="545" on="0"/>
        <pt x="543" y="526" on="0"/>
        <pt x="543" y="512" on="1"/>
        <pt x="543" y="219" on="1"/>
        <pt x="543" y="104" on="0"/>
        <pt x="423" y="-15" on="0"/>
        <pt x="311" y="-15" on="1"/>
        <pt x="261" y="-15" on="0"/>
        <pt x="177" y="16" on="0"/>
        <pt x="117" y="74" on="0"/>
        <pt x="83" y="160" on="0"/>
        <pt x="83" y="216" on="1"/>
        <pt x="83" y="512" on="1"/>
        <pt x="83" y="526" on="0"/>
        <pt x="102" y="545" on="0"/>
      </contour>
      <contour>
        <pt x="456" y="688" on="1"/>
        <pt x="456" y="674" on="0"/>
        <pt x="437" y="655" on="0"/>
        <pt x="423" y="655" on="1"/>
        <pt x="194" y="655" on="1"/>
        <pt x="180" y="655" on="0"/>
        <pt x="161" y="674" on="0"/>
        <pt x="161" y="688" on="1"/>
        <pt x="161" y="702" on="0"/>
        <pt x="180" y="721" on="0"/>
        <pt x="194" y="721" on="1"/>
        <pt x="423" y="721" on="1"/>
        <pt x="437" y="721" on="0"/>
        <pt x="456" y="702" on="0"/>
      </contour>
    </TTGlyph>
    <TTGlyph name="Uogonek" xMin="83" yMin="-197" xMax="543" yMax="545">
      <contour>
        <pt x="346" y="-197" on="1"/>
        <pt x="325" y="-197" on="0"/>
        <pt x="281" y="-182" on="0"/>
        <pt x="264" y="-165" on="1"/>
        <pt x="234" y="-135" on="0"/>
        <pt x="234" y="-94" on="1"/>
        <pt x="234" y="-77" on="0"/>
        <pt x="245" y="-35" on="0"/>
        <pt x="262" y="-11" on="1"/>
        <pt x="181" y="3" on="0"/>
        <pt x="83" y="119" on="0"/>
        <pt x="83" y="216" on="1"/>
        <pt x="83" y="512" on="1"/>
        <pt x="83" y="526" on="0"/>
        <pt x="102" y="545" on="0"/>
        <pt x="116" y="545" on="1"/>
        <pt x="130" y="545" on="0"/>
        <pt x="149" y="526" on="0"/>
        <pt x="149" y="512" on="1"/>
        <pt x="149" y="216" on="1"/>
        <pt x="149" y="136" on="0"/>
        <pt x="239" y="51" on="0"/>
        <pt x="311" y="51" on="1"/>
        <pt x="391" y="51" on="0"/>
        <pt x="477" y="138" on="0"/>
        <pt x="477" y="219" on="1"/>
        <pt x="477" y="512" on="1"/>
        <pt x="477" y="526" on="0"/>
        <pt x="496" y="545" on="0"/>
        <pt x="510" y="545" on="1"/>
        <pt x="524" y="545" on="0"/>
        <pt x="543" y="526" on="0"/>
        <pt x="543" y="512" on="1"/>
        <pt x="543" y="219" on="1"/>
        <pt x="543" y="113" on="0"/>
        <pt x="441" y="-4" on="0"/>
        <pt x="346" y="-13" on="1"/>
        <pt x="320" y="-39" on="0"/>
        <pt x="300" y="-78" on="0"/>
        <pt x="300" y="-94" on="1"/>
        <pt x="300" y="-107" on="0"/>
        <pt x="310" y="-119" on="1"/>
        <pt x="318" y="-126" on="0"/>
        <pt x="337" y="-131" on="0"/>
        <pt x="346" y="-131" on="1"/>
        <pt x="357" y="-131" on="0"/>
        <pt x="379" y="-126" on="0"/>
        <pt x="387" y="-123" on="1"/>
        <pt x="400" y="-119" on="0"/>
        <pt x="424" y="-132" on="0"/>
        <pt x="429" y="-145" on="1"/>
        <pt x="433" y="-158" on="0"/>
        <pt x="420" y="-182" on="0"/>
        <pt x="407" y="-187" on="1"/>
        <pt x="395" y="-190" on="0"/>
        <pt x="363" y="-197" on="0"/>
      </contour>
    </TTGlyph>
    <TTGlyph name="Uring" xMin="83" yMin="-15" xMax="543" yMax="811">
      <contour>
        <pt x="116" y="545" on="1"/>
        <pt x="130" y="545" on="0"/>
        <pt x="149" y="526" on="0"/>
        <pt x="149" y="512" on="1"/>
        <pt x="149" y="216" on="1"/>
        <pt x="149" y="136" on="0"/>
        <pt x="239" y="51" on="0"/>
        <pt x="311" y="51" on="1"/>
        <pt x="391" y="51" on="0"/>
        <pt x="477" y="138" on="0"/>
        <pt x="477" y="219" on="1"/>
        <pt x="477" y="512" on="1"/>
        <pt x="477" y="526" on="0"/>
        <pt x="496" y="545" on="0"/>
        <pt x="510" y="545" on="1"/>
        <pt x="524" y="545" on="0"/>
        <pt x="543" y="526" on="0"/>
        <pt x="543" y="512" on="1"/>
        <pt x="543" y="219" on="1"/>
        <pt x="543" y="104" on="0"/>
        <pt x="423" y="-15" on="0"/>
        <pt x="311" y="-15" on="1"/>
        <pt x="261" y="-15" on="0"/>
        <pt x="177" y="16" on="0"/>
        <pt x="117" y="74" on="0"/>
        <pt x="83" y="160" on="0"/>
        <pt x="83" y="216" on="1"/>
        <pt x="83" y="512" on="1"/>
        <pt x="83" y="526" on="0"/>
        <pt x="102" y="545" on="0"/>
      </contour>
      <contour>
        <pt x="312" y="655" on="1"/>
        <pt x="335" y="655" on="0"/>
        <pt x="366" y="681" on="0"/>
        <pt x="366" y="700" on="1"/>
        <pt x="366" y="719" on="0"/>
        <pt x="335" y="745" on="0"/>
        <pt x="312" y="745" on="1"/>
        <pt x="289" y="745" on="0"/>
        <pt x="261" y="717" on="0"/>
        <pt x="261" y="700" on="1"/>
        <pt x="261" y="683" on="0"/>
        <pt x="289" y="655" on="0"/>
      </contour>
      <contour>
        <pt x="312" y="811" on="1"/>
        <pt x="341" y="811" on="0"/>
        <pt x="386" y="792" on="0"/>
        <pt x="416" y="761" on="0"/>
        <pt x="432" y="721" on="0"/>
        <pt x="432" y="700" on="1"/>
        <pt x="432" y="679" on="0"/>
        <pt x="416" y="639" on="0"/>
        <pt x="386" y="608" on="0"/>
        <pt x="341" y="589" on="0"/>
        <pt x="312" y="589" on="1"/>
        <pt x="284" y="589" on="0"/>
        <pt x="241" y="609" on="0"/>
        <pt x="211" y="640" on="0"/>
        <pt x="195" y="680" on="0"/>
        <pt x="195" y="700" on="1"/>
        <pt x="195" y="720" on="0"/>
        <pt x="211" y="760" on="0"/>
        <pt x="241" y="791" on="0"/>
        <pt x="284" y="811" on="0"/>
      </contour>
    </TTGlyph>
    <TTGlyph name="V" xMin="-2" yMin="-3" xMax="304" yMax="653">
      <contour>
        <pt x="164" y="115" on="1"/>
        <pt x="172" y="163" on="0"/>
        <pt x="190" y="288" on="0"/>
        <pt x="208" y="429" on="0"/>
        <pt x="224" y="578" on="0"/>
        <pt x="231" y="650" on="1"/>
        <pt x="304" y="647" on="1"/>
        <pt x="295" y="599" on="0"/>
        <pt x="274" y="477" on="0"/>
        <pt x="254" y="346" on="0"/>
        <pt x="233" y="217" on="0"/>
        <pt x="217" y="106" on="0"/>
        <pt x="204" y="22" on="0"/>
        <pt x="201" y="3" on="1"/>
        <pt x="125" y="-3" on="1"/>
        <pt x="121" y="28" on="0"/>
        <pt x="104" y="126" on="0"/>
        <pt x="81" y="242" on="0"/>
        <pt x="56" y="369" on="0"/>
        <pt x="30" y="492" on="0"/>
        <pt x="7" y="601" on="0"/>
        <pt x="-2" y="642" on="1"/>
        <pt x="70" y="653" on="1"/>
        <pt x="75" y="621" on="0"/>
        <pt x="89" y="534" on="0"/>
        <pt x="105" y="436" on="0"/>
        <pt x="124" y="332" on="0"/>
        <pt x="142" y="234" on="0"/>
        <pt x="158" y="147" on="0"/>
      </contour>
    </TTGlyph>
    <TTGlyph name="W" xMin="-2" yMin="-5" xMax="472" yMax="654">
      <contour>
        <pt x="145" y="112" on="1"/>
        <pt x="152" y="160" on="0"/>
        <pt x="168" y="287" on="0"/>
        <pt x="184" y="422" on="0"/>
        <pt x="201" y="555" on="0"/>
        <pt x="209" y="608" on="1"/>
        <pt x="275" y="611" on="1"/>
        <pt x="282" y="563" on="0"/>
        <pt x="300" y="432" on="0"/>
        <pt x="320" y="294" on="0"/>
        <pt x="341" y="163" on="0"/>
        <pt x="350" y="115" on="1"/>
        <pt x="356" y="162" on="0"/>
        <pt x="369" y="301" on="0"/>
        <pt x="382" y="451" on="0"/>
        <pt x="392" y="597" on="0"/>
        <pt x="395" y="650" on="1"/>
        <pt x="472" y="647" on="1"/>
        <pt x="466" y="615" on="0"/>
        <pt x="450" y="506" on="0"/>
        <pt x="432" y="376" on="0"/>
        <pt x="413" y="239" on="0"/>
        <pt x="396" y="117" on="0"/>
        <pt x="383" y="25" on="0"/>
        <pt x="380" y="6" on="1"/>
        <pt x="362" y="3" on="0"/>
        <pt x="323" y="-3" on="0"/>
        <pt x="305" y="-5" on="1"/>
        <pt x="305" y="-5" on="0"/>
        <pt x="298" y="52" on="1"/>
        <pt x="293" y="87" on="0"/>
        <pt x="281" y="170" on="0"/>
        <pt x="269" y="260" on="0"/>
        <pt x="257" y="348" on="0"/>
        <pt x="244" y="427" on="0"/>
        <pt x="239" y="458" on="1"/>
        <pt x="234" y="426" on="0"/>
        <pt x="222" y="340" on="0"/>
        <pt x="210" y="248" on="0"/>
        <pt x="198" y="155" on="0"/>
        <pt x="189" y="75" on="0"/>
        <pt x="181" y="16" on="0"/>
        <pt x="179" y="3" on="1"/>
        <pt x="104" y="-3" on="1"/>
        <pt x="100" y="28" on="0"/>
        <pt x="85" y="126" on="0"/>
        <pt x="67" y="243" on="0"/>
        <pt x="46" y="370" on="0"/>
        <pt x="26" y="493" on="0"/>
        <pt x="6" y="603" on="0"/>
        <pt x="-2" y="644" on="1"/>
        <pt x="71" y="654" on="1"/>
        <pt x="75" y="622" on="0"/>
        <pt x="87" y="534" on="0"/>
        <pt x="99" y="435" on="0"/>
        <pt x="112" y="331" on="0"/>
        <pt x="126" y="232" on="0"/>
        <pt x="139" y="144" on="0"/>
      </contour>
    </TTGlyph>
    <TTGlyph name="X" xMin="0" yMin="-13" xMax="310" yMax="660">
      <contour>
        <pt x="152" y="391" on="1"/>
        <pt x="159" y="417" on="0"/>
        <pt x="177" y="481" on="0"/>
        <pt x="194" y="550" on="0"/>
        <pt x="210" y="620" on="0"/>
        <pt x="216" y="652" on="1"/>
        <pt x="281" y="646" on="1"/>
        <pt x="252" y="551" on="0"/>
        <pt x="208" y="402" on="0"/>
        <pt x="188" y="336" on="1"/>
        <pt x="202" y="295" on="0"/>
        <pt x="230" y="219" on="0"/>
        <pt x="260" y="142" on="0"/>
        <pt x="292" y="60" on="0"/>
        <pt x="310" y="15" on="1"/>
        <pt x="246" y="-13" on="1"/>
        <pt x="236" y="20" on="0"/>
        <pt x="211" y="97" on="0"/>
        <pt x="184" y="175" on="0"/>
        <pt x="159" y="248" on="0"/>
        <pt x="149" y="278" on="1"/>
        <pt x="134" y="218" on="0"/>
        <pt x="92" y="65" on="0"/>
        <pt x="75" y="-6" on="1"/>
        <pt x="8" y="0" on="1"/>
        <pt x="35" y="92" on="0"/>
        <pt x="92" y="259" on="0"/>
        <pt x="113" y="341" on="1"/>
        <pt x="90" y="409" on="0"/>
        <pt x="32" y="546" on="0"/>
        <pt x="0" y="630" on="1"/>
        <pt x="65" y="660" on="1"/>
        <pt x="75" y="627" on="0"/>
        <pt x="98" y="553" on="0"/>
        <pt x="122" y="481" on="0"/>
        <pt x="143" y="416" on="0"/>
      </contour>
    </TTGlyph>
    <TTGlyph name="Y" xMin="0" yMin="-4" xMax="278" yMax="654">
      <contour>
        <pt x="147" y="336" on="1"/>
        <pt x="155" y="372" on="0"/>
        <pt x="170" y="439" on="0"/>
        <pt x="186" y="512" on="0"/>
        <pt x="202" y="597" on="0"/>
        <pt x="210" y="650" on="1"/>
        <pt x="278" y="647" on="1"/>
        <pt x="266" y="599" on="0"/>
        <pt x="238" y="491" on="0"/>
        <pt x="209" y="387" on="0"/>
        <pt x="184" y="298" on="0"/>
        <pt x="175" y="269" on="1"/>
        <pt x="176" y="190" on="0"/>
        <pt x="180" y="59" on="0"/>
        <pt x="183" y="2" on="1"/>
        <pt x="114" y="-4" on="1"/>
        <pt x="113" y="53" on="0"/>
        <pt x="113" y="199" on="0"/>
        <pt x="110" y="269" on="1"/>
        <pt x="100" y="314" on="0"/>
        <pt x="76" y="396" on="0"/>
        <pt x="49" y="483" on="0"/>
        <pt x="17" y="582" on="0"/>
        <pt x="0" y="643" on="1"/>
        <pt x="65" y="654" on="1"/>
        <pt x="75" y="606" on="0"/>
        <pt x="94" y="530" on="0"/>
        <pt x="113" y="460" on="0"/>
        <pt x="135" y="384" on="0"/>
      </contour>
    </TTGlyph>
    <TTGlyph name="Yacute" xMin="44" yMin="-6" xMax="526" yMax="734">
      <contour>
        <pt x="287" y="-6" on="1"/>
        <pt x="273" y="-6" on="0"/>
        <pt x="254" y="13" on="0"/>
        <pt x="254" y="27" on="1"/>
        <pt x="254" y="192" on="1"/>
        <pt x="236" y="216" on="0"/>
        <pt x="180" y="297" on="0"/>
        <pt x="120" y="386" on="0"/>
        <pt x="66" y="469" on="0"/>
        <pt x="51" y="495" on="1"/>
        <pt x="44" y="506" on="0"/>
        <pt x="51" y="533" on="0"/>
        <pt x="62" y="540" on="1"/>
        <pt x="73" y="547" on="0"/>
        <pt x="100" y="540" on="0"/>
        <pt x="107" y="529" on="1"/>
        <pt x="120" y="507" on="0"/>
        <pt x="165" y="437" on="0"/>
        <pt x="216" y="361" on="0"/>
        <pt x="267" y="286" on="0"/>
        <pt x="287" y="258" on="1"/>
        <pt x="308" y="288" on="0"/>
        <pt x="358" y="363" on="0"/>
        <pt x="407" y="439" on="0"/>
        <pt x="450" y="507" on="0"/>
        <pt x="463" y="529" on="1"/>
        <pt x="470" y="540" on="0"/>
        <pt x="497" y="547" on="0"/>
        <pt x="508" y="540" on="1"/>
        <pt x="519" y="533" on="0"/>
        <pt x="526" y="506" on="0"/>
        <pt x="519" y="495" on="1"/>
        <pt x="504" y="470" on="0"/>
        <pt x="453" y="390" on="0"/>
        <pt x="396" y="302" on="0"/>
        <pt x="340" y="218" on="0"/>
        <pt x="320" y="191" on="1"/>
        <pt x="320" y="27" on="1"/>
        <pt x="320" y="13" on="0"/>
        <pt x="301" y="-6" on="0"/>
      </contour>
      <contour>
        <pt x="439" y="716" on="1"/>
        <pt x="446" y="704" on="0"/>
        <pt x="439" y="678" on="0"/>
        <pt x="428" y="671" on="1"/>
        <pt x="394" y="651" on="0"/>
        <pt x="329" y="609" on="0"/>
        <pt x="307" y="593" on="1"/>
        <pt x="296" y="585" on="0"/>
        <pt x="269" y="590" on="0"/>
        <pt x="261" y="601" on="1"/>
        <pt x="253" y="612" on="0"/>
        <pt x="258" y="639" on="0"/>
        <pt x="269" y="647" on="1"/>
        <pt x="291" y="663" on="0"/>
        <pt x="359" y="707" on="0"/>
        <pt x="394" y="727" on="1"/>
        <pt x="406" y="734" on="0"/>
        <pt x="432" y="727" on="0"/>
      </contour>
    </TTGlyph>
    <TTGlyph name="Ydieresis" xMin="44" yMin="-6" xMax="526" yMax="733">
      <contour>
        <pt x="287" y="-6" on="1"/>
        <pt x="273" y="-6" on="0"/>
        <pt x="254" y="13" on="0"/>
        <pt x="254" y="27" on="1"/>
        <pt x="254" y="192" on="1"/>
        <pt x="236" y="216" on="0"/>
        <pt x="180" y="297" on="0"/>
        <pt x="120" y="386" on="0"/>
        <pt x="66" y="469" on="0"/>
        <pt x="51" y="495" on="1"/>
        <pt x="44" y="506" on="0"/>
        <pt x="51" y="533" on="0"/>
        <pt x="62" y="540" on="1"/>
        <pt x="73" y="547" on="0"/>
        <pt x="100" y="540" on="0"/>
        <pt x="107" y="529" on="1"/>
        <pt x="120" y="507" on="0"/>
        <pt x="165" y="437" on="0"/>
        <pt x="216" y="361" on="0"/>
        <pt x="267" y="286" on="0"/>
        <pt x="287" y="258" on="1"/>
        <pt x="308" y="288" on="0"/>
        <pt x="358" y="363" on="0"/>
        <pt x="407" y="439" on="0"/>
        <pt x="450" y="507" on="0"/>
        <pt x="463" y="529" on="1"/>
        <pt x="470" y="540" on="0"/>
        <pt x="497" y="547" on="0"/>
        <pt x="508" y="540" on="1"/>
        <pt x="519" y="533" on="0"/>
        <pt x="526" y="506" on="0"/>
        <pt x="519" y="495" on="1"/>
        <pt x="504" y="470" on="0"/>
        <pt x="453" y="390" on="0"/>
        <pt x="396" y="302" on="0"/>
        <pt x="340" y="218" on="0"/>
        <pt x="320" y="191" on="1"/>
        <pt x="320" y="27" on="1"/>
        <pt x="320" y="13" on="0"/>
        <pt x="301" y="-6" on="0"/>
      </contour>
      <contour>
        <pt x="175" y="673" on="1"/>
        <pt x="175" y="667" on="0"/>
        <pt x="180" y="664" on="0"/>
        <pt x="186" y="664" on="0"/>
        <pt x="192" y="667" on="0"/>
        <pt x="193" y="667" on="1"/>
        <pt x="195" y="667" on="0"/>
        <pt x="207" y="665" on="0"/>
        <pt x="207" y="673" on="1"/>
        <pt x="207" y="681" on="0"/>
        <pt x="202" y="681" on="1"/>
        <pt x="193" y="681" on="1"/>
        <pt x="192" y="681" on="0"/>
        <pt x="186" y="683" on="0"/>
        <pt x="180" y="683" on="0"/>
        <pt x="175" y="679" on="0"/>
      </contour>
      <contour>
        <pt x="368" y="673" on="1"/>
        <pt x="368" y="667" on="0"/>
        <pt x="373" y="664" on="0"/>
        <pt x="379" y="664" on="0"/>
        <pt x="385" y="667" on="0"/>
        <pt x="386" y="667" on="1"/>
        <pt x="388" y="667" on="0"/>
        <pt x="401" y="665" on="0"/>
        <pt x="401" y="673" on="1"/>
        <pt x="401" y="682" on="0"/>
        <pt x="389" y="681" on="0"/>
        <pt x="386" y="681" on="1"/>
        <pt x="385" y="681" on="0"/>
        <pt x="379" y="683" on="0"/>
        <pt x="373" y="683" on="0"/>
        <pt x="368" y="679" on="0"/>
      </contour>
      <contour>
        <pt x="141" y="673" on="1"/>
        <pt x="141" y="700" on="0"/>
        <pt x="175" y="733" on="0"/>
        <pt x="193" y="733" on="1"/>
        <pt x="210" y="733" on="0"/>
        <pt x="241" y="705" on="0"/>
        <pt x="241" y="673" on="1"/>
        <pt x="241" y="639" on="0"/>
        <pt x="210" y="615" on="0"/>
        <pt x="193" y="615" on="1"/>
        <pt x="173" y="615" on="0"/>
        <pt x="141" y="644" on="0"/>
      </contour>
      <contour>
        <pt x="335" y="673" on="1"/>
        <pt x="335" y="701" on="0"/>
        <pt x="368" y="733" on="0"/>
        <pt x="386" y="733" on="1"/>
        <pt x="403" y="733" on="0"/>
        <pt x="434" y="705" on="0"/>
        <pt x="434" y="673" on="1"/>
        <pt x="434" y="639" on="0"/>
        <pt x="403" y="615" on="0"/>
        <pt x="386" y="615" on="1"/>
        <pt x="366" y="615" on="0"/>
        <pt x="335" y="643" on="0"/>
      </contour>
    </TTGlyph>
    <TTGlyph name="Z" xMin="21" yMin="-1" xMax="266" yMax="648">
      <contour>
        <pt x="256" y="610" on="1"/>
        <pt x="247" y="581" on="0"/>
        <pt x="220" y="489" on="0"/>
        <pt x="188" y="382" on="0"/>
        <pt x="155" y="269" on="0"/>
        <pt x="125" y="164" on="0"/>
        <pt x="100" y="78" on="0"/>
        <pt x="93" y="53" on="1"/>
        <pt x="111" y="53" on="0"/>
        <pt x="136" y="54" on="1"/>
        <pt x="184" y="54" on="1"/>
        <pt x="209" y="55" on="0"/>
        <pt x="253" y="56" on="0"/>
        <pt x="266" y="57" on="1"/>
        <pt x="264" y="0" on="1"/>
        <pt x="28" y="-1" on="1"/>
        <pt x="21" y="34" on="1"/>
        <pt x="40" y="92" on="0"/>
        <pt x="88" y="244" on="0"/>
        <pt x="135" y="398" on="0"/>
        <pt x="176" y="541" on="0"/>
        <pt x="188" y="592" on="1"/>
        <pt x="162" y="592" on="1"/>
        <pt x="144" y="592" on="0"/>
        <pt x="101" y="591" on="0"/>
        <pt x="56" y="590" on="0"/>
        <pt x="40" y="589" on="1"/>
        <pt x="38" y="648" on="1"/>
        <pt x="250" y="648" on="1"/>
      </contour>
    </TTGlyph>
    <TTGlyph name="Zacute" xMin="65" yMin="-6" xMax="516" yMax="764">
      <contour>
        <pt x="98" y="-6" on="1"/>
        <pt x="84" y="-6" on="0"/>
        <pt x="65" y="13" on="0"/>
        <pt x="65" y="27" on="1"/>
        <pt x="65" y="37" on="0"/>
        <pt x="71" y="45" on="1"/>
        <pt x="71" y="47" on="0"/>
        <pt x="72" y="49" on="1"/>
        <pt x="74" y="53" on="1"/>
        <pt x="85" y="70" on="0"/>
        <pt x="131" y="130" on="0"/>
        <pt x="189" y="204" on="0"/>
        <pt x="256" y="287" on="0"/>
        <pt x="322" y="371" on="0"/>
        <pt x="383" y="448" on="0"/>
        <pt x="406" y="479" on="1"/>
        <pt x="111" y="479" on="1"/>
        <pt x="97" y="479" on="0"/>
        <pt x="78" y="498" on="0"/>
        <pt x="78" y="512" on="1"/>
        <pt x="78" y="526" on="0"/>
        <pt x="97" y="545" on="0"/>
        <pt x="111" y="545" on="1"/>
        <pt x="460" y="545" on="1"/>
        <pt x="464" y="545" on="0"/>
        <pt x="466" y="544" on="1"/>
        <pt x="477" y="547" on="0"/>
        <pt x="489" y="540" on="1"/>
        <pt x="500" y="532" on="0"/>
        <pt x="507" y="505" on="0"/>
        <pt x="499" y="494" on="1"/>
        <pt x="485" y="473" on="0"/>
        <pt x="437" y="409" on="0"/>
        <pt x="376" y="332" on="0"/>
        <pt x="308" y="247" on="0"/>
        <pt x="242" y="164" on="0"/>
        <pt x="182" y="89" on="0"/>
        <pt x="161" y="60" on="1"/>
        <pt x="483" y="60" on="1"/>
        <pt x="497" y="60" on="0"/>
        <pt x="516" y="41" on="0"/>
        <pt x="516" y="27" on="1"/>
        <pt x="516" y="13" on="0"/>
        <pt x="497" y="-6" on="0"/>
        <pt x="483" y="-6" on="1"/>
      </contour>
      <contour>
        <pt x="441" y="746" on="1"/>
        <pt x="448" y="734" on="0"/>
        <pt x="441" y="708" on="0"/>
        <pt x="430" y="701" on="1"/>
        <pt x="396" y="681" on="0"/>
        <pt x="331" y="639" on="0"/>
        <pt x="309" y="623" on="1"/>
        <pt x="298" y="615" on="0"/>
        <pt x="271" y="620" on="0"/>
        <pt x="263" y="631" on="1"/>
        <pt x="255" y="642" on="0"/>
        <pt x="260" y="669" on="0"/>
        <pt x="271" y="677" on="1"/>
        <pt x="293" y="693" on="0"/>
        <pt x="361" y="737" on="0"/>
        <pt x="396" y="757" on="1"/>
        <pt x="408" y="764" on="0"/>
        <pt x="434" y="757" on="0"/>
      </contour>
    </TTGlyph>
    <TTGlyph name="Zcaron" xMin="65" yMin="-6" xMax="516" yMax="761">
      <contour>
        <pt x="98" y="-6" on="1"/>
        <pt x="84" y="-6" on="0"/>
        <pt x="65" y="13" on="0"/>
        <pt x="65" y="27" on="1"/>
        <pt x="65" y="37" on="0"/>
        <pt x="71" y="45" on="1"/>
        <pt x="71" y="47" on="0"/>
        <pt x="72" y="49" on="1"/>
        <pt x="74" y="53" on="1"/>
        <pt x="85" y="70" on="0"/>
        <pt x="131" y="130" on="0"/>
        <pt x="189" y="204" on="0"/>
        <pt x="256" y="287" on="0"/>
        <pt x="322" y="371" on="0"/>
        <pt x="383" y="448" on="0"/>
        <pt x="406" y="479" on="1"/>
        <pt x="111" y="479" on="1"/>
        <pt x="97" y="479" on="0"/>
        <pt x="78" y="498" on="0"/>
        <pt x="78" y="512" on="1"/>
        <pt x="78" y="526" on="0"/>
        <pt x="97" y="545" on="0"/>
        <pt x="111" y="545" on="1"/>
        <pt x="460" y="545" on="1"/>
        <pt x="464" y="545" on="0"/>
        <pt x="466" y="544" on="1"/>
        <pt x="477" y="547" on="0"/>
        <pt x="489" y="540" on="1"/>
        <pt x="500" y="532" on="0"/>
        <pt x="507" y="505" on="0"/>
        <pt x="499" y="494" on="1"/>
        <pt x="485" y="473" on="0"/>
        <pt x="437" y="409" on="0"/>
        <pt x="376" y="332" on="0"/>
        <pt x="308" y="247" on="0"/>
        <pt x="242" y="164" on="0"/>
        <pt x="182" y="89" on="0"/>
        <pt x="161" y="60" on="1"/>
        <pt x="483" y="60" on="1"/>
        <pt x="497" y="60" on="0"/>
        <pt x="516" y="41" on="0"/>
        <pt x="516" y="27" on="1"/>
        <pt x="516" y="13" on="0"/>
        <pt x="497" y="-6" on="0"/>
        <pt x="483" y="-6" on="1"/>
      </contour>
      <contour>
        <pt x="313" y="631" on="1"/>
        <pt x="308" y="627" on="0"/>
        <pt x="297" y="625" on="0"/>
        <pt x="291" y="625" on="1"/>
        <pt x="285" y="625" on="0"/>
        <pt x="273" y="627" on="0"/>
        <pt x="268" y="631" on="1"/>
        <pt x="242" y="649" on="0"/>
        <pt x="192" y="684" on="0"/>
        <pt x="171" y="701" on="1"/>
        <pt x="160" y="709" on="0"/>
        <pt x="157" y="736" on="0"/>
        <pt x="165" y="747" on="1"/>
        <pt x="173" y="758" on="0"/>
        <pt x="200" y="761" on="0"/>
        <pt x="211" y="753" on="1"/>
        <pt x="229" y="740" on="0"/>
        <pt x="269" y="711" on="0"/>
        <pt x="290" y="696" on="1"/>
        <pt x="311" y="711" on="0"/>
        <pt x="352" y="739" on="0"/>
        <pt x="370" y="753" on="1"/>
        <pt x="381" y="761" on="0"/>
        <pt x="408" y="758" on="0"/>
        <pt x="416" y="747" on="1"/>
        <pt x="424" y="736" on="0"/>
        <pt x="421" y="709" on="0"/>
        <pt x="410" y="701" on="1"/>
        <pt x="389" y="685" on="0"/>
        <pt x="339" y="649" on="0"/>
      </contour>
    </TTGlyph>
</ttFont>
